<svg xmlns="http://www.w3.org/2000/svg">
    <symbol id="facebook" viewBox="0 0 32 32" fill="none">
        <rect x="0.5" y="0.5" width="31" height="31" rx="4.5" stroke="#46A358" stroke-opacity="0.2"/>
        <path d="M14 13.3333H12V16H14V24H17.3333V16H19.7333L20 13.3333H17.3333V12.2C17.3333 11.6 17.4667 11.3333 18.0667 11.3333H20V8H17.4667C15.0667 8 14 9.06667 14 11.0667V13.3333Z"
              fill="#46A358" fill-opacity="0.6"/>
    </symbol>
    <symbol id="instagram" viewBox="0 0 32 32" fill="none">
       <rect x="0.5" y="0.5" width="31" height="31" rx="4.5" stroke="#46A358" stroke-opacity="0.2"/>
<path d="M16 9.46667C18.1333 9.46667 18.4 9.46667 19.2667 9.53333C21.4667 9.6 22.4667 10.6667 22.5333 12.8C22.6 13.6667 22.6 13.8667 22.6 16C22.6 18.1333 22.6 18.4 22.5333 19.2C22.4667 21.3333 21.4 22.4 19.2667 22.4667C18.4 22.5333 18.2 22.5333 16 22.5333C13.8667 22.5333 13.6 22.5333 12.8 22.4667C10.6 22.4 9.6 21.3333 9.53333 19.2C9.46667 18.3333 9.46667 18.1333 9.46667 16C9.46667 13.8667 9.46667 13.6 9.53333 12.8C9.6 10.6667 10.6667 9.6 12.8 9.53333C13.6 9.46667 13.8667 9.46667 16 9.46667ZM16 8C13.8 8 13.5333 8 12.7333 8.06667C9.8 8.2 8.2 9.8 8.06667 12.7333C8 13.5333 8 13.8 8 16C8 18.2 8 18.4667 8.06667 19.2667C8.2 22.2 9.8 23.8 12.7333 23.9333C13.5333 24 13.8 24 16 24C18.2 24 18.4667 24 19.2667 23.9333C22.2 23.8 23.8 22.2 23.9333 19.2667C24 18.4667 24 18.2 24 16C24 13.8 24 13.5333 23.9333 12.7333C23.8 9.8 22.2 8.2 19.2667 8.06667C18.4667 8 18.2 8 16 8ZM16 11.8667C13.7333 11.8667 11.8667 13.7333 11.8667 16C11.8667 18.2667 13.7333 20.1333 16 20.1333C18.2667 20.1333 20.1333 18.2667 20.1333 16C20.1333 13.7333 18.2667 11.8667 16 11.8667ZM16 18.6667C14.5333 18.6667 13.3333 17.4667 13.3333 16C13.3333 14.5333 14.5333 13.3333 16 13.3333C17.4667 13.3333 18.6667 14.5333 18.6667 16C18.6667 17.4667 17.4667 18.6667 16 18.6667ZM20.2667 10.8C19.7333 10.8 19.3333 11.2 19.3333 11.7333C19.3333 12.2667 19.7333 12.6667 20.2667 12.6667C20.8 12.6667 21.2 12.2667 21.2 11.7333C21.2 11.2 20.8 10.8 20.2667 10.8Z" 
fill="#46A358" fill-opacity="0.6"/>
    </symbol>
     <symbol id="twitter" viewBox="0 0 32 32" fill="none">
       <rect x="0.5" y="0.5" width="31" height="31" rx="4.5" stroke="#46A358" stroke-opacity="0.2"/>
<path d="M13.0319 22.0036C19.0699 22.0036 22.3718 17.0012 22.3718 12.6636C22.3718 12.5214 22.3689 12.38 22.3624 12.2392C23.0033 11.7759 23.5605 11.1976 24 10.5395C23.4118 10.8008 22.7789 10.9768 22.1149 11.0562C22.7926 10.6498 23.313 10.0067 23.5585 9.24021C22.9241 9.61636 22.2217 9.88969 21.4742 10.0371C20.8749 9.39908 20.0218 9 19.0779 9C17.2648 9 15.7946 10.4702 15.7946 12.2823C15.7946 12.54 15.8236 12.7904 15.8796 13.0308C13.1516 12.8938 10.7324 11.5874 9.11352 9.60125C8.83127 10.0862 8.66877 10.65 8.66877 11.2511C8.66877 12.3899 9.24837 13.3953 10.1297 13.9836C9.59121 13.9671 9.08531 13.8189 8.64293 13.5729C8.6422 13.5866 8.6422 13.6004 8.6422 13.6148C8.6422 15.2047 9.77392 16.532 11.2758 16.8329C11.0001 16.908 10.71 16.9484 10.4105 16.9484C10.199 16.9484 9.99338 16.9273 9.79339 16.8893C10.2112 18.1933 11.4232 19.1425 12.8601 19.1693C11.7364 20.0499 10.3209 20.5745 8.78305 20.5745C8.51827 20.5745 8.25695 20.5594 8 20.529C9.45273 21.46 11.1777 22.0036 13.0319 22.0036Z" 
fill="#46A358" fill-opacity="0.6"/>
    </symbol>
    <symbol id="linkedin" viewBox="0 0 32 32" fill="none">
      <rect x="0.5" y="0.5" width="31" height="31" rx="4.5" stroke="#46A358" stroke-opacity="0.2"/>
<path d="M11.3333 9.66667C11.3333 10.6 10.6 11.3333 9.66667 11.3333C8.73333 11.3333 8 10.6 8 9.66667C8 8.73333 8.73333 8 9.66667 8C10.6 8 11.3333 8.73333 11.3333 9.66667ZM11.3333 12.6667H8V23.3333H11.3333V12.6667ZM16.6667 12.6667H13.3333V23.3333H16.6667V17.7333C16.6667 14.6 20.6667 14.3333 20.6667 17.7333V23.3333H24V16.6C24 11.3333 18.0667 11.5333 16.6667 14.1333V12.6667Z" 
fill="#46A358" fill-opacity="0.6"/>
</symbol>
<symbol id="youtube" viewBox="0 0 32 32" fill="none" >
      <rect x="0.5" y="0.5" width="31" height="31" rx="4.5" stroke="#46A358" stroke-opacity="0.2"/>
<path fill-rule="evenodd" clip-rule="evenodd" d="M22.1653 13.4299L22.168 13.4306C22.168 13.4306 22.1676 13.4305 22.1667 13.4303C22.1663 13.4302 22.1658 13.4301 22.1653 13.4299ZM11.3244 13.3569C13.9176 13.1957 18.7483 13.1957 21.3415 13.3569L21.3422 13.3644C21.4047 13.9972 21.4299 14.8414 21.4299 16.0192C21.4299 17.1824 21.4053 18.0269 21.3441 18.665C18.6962 18.7703 13.9713 18.7703 11.3228 18.665C11.261 18.0332 11.236 17.1914 11.236 16.0192C11.236 14.8414 11.2612 13.9972 11.3237 13.3644L11.3244 13.3569ZM22.2422 18.6111C22.2422 18.6111 22.2405 18.6115 22.237 18.6122L22.2422 18.6111ZM10.4979 18.6077L10.5006 18.6084C10.4988 18.6079 10.4979 18.6077 10.4979 18.6077ZM7 16.0192C7 20.8412 7.38887 22.63 10.4221 22.8633C13.222 23.0189 19.4439 23.0189 22.2438 22.8633C25.277 22.7078 25.6659 20.8412 25.6659 16.0192C25.6659 11.1971 25.277 9.40832 22.2438 9.17499C19.4439 8.94167 13.222 8.94167 10.4221 9.17499C7.38887 9.40832 7 11.1971 7 16.0192ZM10.4979 13.4306C10.4979 13.4306 10.4988 13.4304 10.5007 13.4299L10.4979 13.4306ZM16.7823 17.7389C15.5039 18.3781 13.9997 17.4484 13.9997 16.0192C13.9997 14.5899 15.5039 13.6602 16.7823 14.2994C18.1994 15.008 18.1994 17.0303 16.7823 17.7389Z" 
fill="#46A358" fill-opacity="0.6"/>
</symbol>
<symbol id="heart" viewBox="0 0 20 20" fill="none">
    <path d="M10 18.8873C9.71527 18.8873 9.44077 18.7842 9.22684 18.5968C8.41888 17.8903 7.63992 17.2264 6.95267 16.6408L6.94916 16.6377C4.93423 14.9207 3.19427 13.4378 1.98364 11.9771C0.630341 10.3441 0 8.79578 0 7.10434C0 5.46097 0.563507 3.94485 1.58661 2.83508C2.62192 1.71219 4.04251 1.09375 5.58716 1.09375C6.74164 1.09375 7.79892 1.45874 8.72955 2.1785C9.19922 2.54181 9.62494 2.98645 10 3.5051C10.3752 2.98645 10.8008 2.54181 11.2706 2.1785C12.2012 1.45874 13.2585 1.09375 14.413 1.09375C15.9575 1.09375 17.3782 1.71219 18.4135 2.83508C19.4366 3.94485 20 5.46097 20 7.10434C20 8.79578 19.3698 10.3441 18.0165 11.9769C16.8059 13.4378 15.0661 14.9205 13.0515 16.6374C12.363 17.224 11.5828 17.8889 10.773 18.5971C10.5592 18.7842 10.2846 18.8873 10 18.8873ZM5.58716 2.26532C4.37363 2.26532 3.25882 2.74963 2.44781 3.62915C1.62476 4.52194 1.17142 5.75607 1.17142 7.10434C1.17142 8.52692 1.70013 9.79919 2.88559 11.2296C4.03137 12.6122 5.73563 14.0645 7.70889 15.7462L7.71255 15.7492C8.4024 16.3371 9.18442 17.0036 9.99832 17.7153C10.8171 17.0023 11.6003 16.3347 12.2916 15.7458C14.2647 14.0642 15.9688 12.6122 17.1146 11.2296C18.2999 9.79919 18.8286 8.52692 18.8286 7.10434C18.8286 5.75607 18.3752 4.52194 17.5522 3.62915C16.7413 2.74963 15.6264 2.26532 14.413 2.26532C13.524 2.26532 12.7078 2.54791 11.9872 3.10516C11.3449 3.60199 10.8975 4.23004 10.6352 4.66949C10.5003 4.89548 10.2629 5.03036 10 5.03036C9.73709 5.03036 9.49966 4.89548 9.36478 4.66949C9.10263 4.23004 8.65524 3.60199 8.01285 3.10516C7.29218 2.54791 6.47598 2.26532 5.58716 2.26532Z" 
    fill="#3D3D3D"/>
</symbol>
<symbol id="location" viewBox="0 0 20 20" fill="none">
<path fill-rule="evenodd" clip-rule="evenodd" d="M12.0918 8.92542C12.0918 7.77436 11.1591 6.84166 10.0081 6.84166C8.85787 6.84166 7.92517 7.77436 7.92517 8.92542C7.92517 10.0756 8.85787 11.0083 10.0081 11.0083C11.1591 11.0083 12.0918 10.0756 12.0918 8.92542Z" stroke="#46A358" stroke-width="1.5" stroke-linecap="round" stroke-linejoin="round"/>
<path fill-rule="evenodd" clip-rule="evenodd" d="M9.99959 17.5C7.58457 17.5 3.75 13.2989 3.75 8.8322C3.75 5.33539 6.54758 2.5 9.99959 2.5C13.4516 2.5 16.25 5.33539 16.25 8.8322C16.25 13.2989 12.4154 17.5 9.99959 17.5Z" stroke="#46A358" stroke-width="1.5" stroke-linecap="round" stroke-linejoin="round"/>
</symbol>
<symbol id="phone" viewBox="0 0 20 20" fill="none"
><path d="M11.9604 2.29175C15.0446 2.63425 17.4813 5.06758 17.8279 8.15175" stroke="#46A358" stroke-width="1.5" stroke-linecap="round" stroke-linejoin="round"/>
<path d="M11.9604 5.24425C13.4363 5.53091 14.5896 6.68508 14.8771 8.16091" stroke="#46A358" stroke-width="1.5" stroke-linecap="round" stroke-linejoin="round"/>
<path fill-rule="evenodd" clip-rule="evenodd" d="M6.41709 13.5825C0.668773 7.83352 1.48617 5.20096 2.09214 4.35263C2.16999 4.21552 4.08875 1.34323 6.14551 3.02839C11.2507 7.23288 4.78761 6.63843 9.07452 10.9261C13.3623 15.2128 12.767 8.74996 16.9716 13.8541C18.6568 15.9117 15.7844 17.8303 15.6482 17.9073C14.7998 18.5141 12.1663 19.3315 6.41709 13.5825Z" stroke="#46A358" stroke-width="1.5" stroke-linecap="round" stroke-linejoin="round"/>
</symbol>
<symbol id="emailbox" viewBox="0 0 20 20" fill="none">
<path d="M14.6208 7.51582C14.6208 7.51582 11.9457 10.7263 9.98917 10.7263C8.03345 10.7263 5.32835 7.51582 5.32835 7.51582" stroke="#46A358" stroke-width="1.5" stroke-linecap="round" stroke-linejoin="round"/>
<path fill-rule="evenodd" clip-rule="evenodd" d="M2.0434 9.97397C2.0434 4.27556 4.02752 2.37665 9.9799 2.37665C15.9323 2.37665 17.9164 4.27556 17.9164 9.97397C17.9164 15.6716 15.9323 17.5713 9.9799 17.5713C4.02752 17.5713 2.0434 15.6716 2.0434 9.97397Z" stroke="#46A358" stroke-width="1.5" stroke-linecap="round" stroke-linejoin="round"/>
</symbol>
<symbol id="logo" viewBox="0 0 35 35" fill="none">
<path d="M17.15 0C7.67748 0 0 7.67746 0 17.15C0 26.0201 6.73548 33.3175 15.3711 34.207C14.8496 29.9134 15.0436 26.4001 15.7067 23.5135C15.3347 21.7225 14.4898 19.0703 12.5734 17.1864C12.5734 17.1864 13.8348 19.0784 14.5181 21.6214C14.5181 21.6255 14.5221 21.6295 14.5221 21.6335C14.5949 21.9044 14.6596 22.1793 14.7162 22.4623C14.7283 22.527 14.7404 22.5917 14.7526 22.6604C14.8051 22.9515 14.8536 23.2426 14.886 23.5418C5.19513 22.3532 3.12921 13.6569 3.35561 10.3781C13.665 10.9482 15.7754 17.8292 16.0827 22.0985C19.4585 11.0412 30.1843 10.4024 31.0697 10.3781C31.4538 18.8763 25.1509 25.5026 17.6149 26.0807C17.6635 25.8503 17.7201 25.6198 17.7767 25.3934C17.7928 25.3247 17.813 25.26 17.8333 25.1913C17.8777 25.0296 17.9222 24.8679 17.9748 24.7061C17.995 24.6374 18.0192 24.5646 18.0394 24.4959C18.096 24.318 18.1567 24.1442 18.2173 23.9663C18.2335 23.9259 18.2456 23.8854 18.2618 23.845C18.3386 23.6348 18.4195 23.4326 18.5003 23.2305C18.5084 23.2143 18.5125 23.1941 18.5205 23.1779C18.5205 23.1779 18.5205 23.1779 18.5246 23.1779C20.4571 18.5043 24.0229 15.4439 24.0229 15.4439C17.0247 19.4868 15.8441 29.9983 15.6582 34.2231C16.1514 34.2676 16.6446 34.2999 17.15 34.2999C26.6225 34.2999 34.3 26.6225 34.3 17.15C34.3 7.67746 26.6225 0 17.15 0Z" fill="#46A358"/>
</symbol>
<symbol id="paypal" viewBox="0 -140 780 780">
<path d="m168.38 169.35c-8.399-5.774-19.359-8.668-32.88-8.668h-52.346c-4.145 0-6.435 2.073-6.87 6.215l-21.264 133.48c-0.221 1.311 0.107 2.51 0.981 3.6 0.869 1.092 1.962 1.635 3.271 1.635h24.864c4.361 0 6.758-2.068 7.198-6.215l5.888-35.986c0.215-1.744 0.982-3.162 2.291-4.254 1.308-1.09 2.944-1.803 4.907-2.129 1.963-0.324 3.814-0.488 5.562-0.488 1.743 0 3.814 0.111 6.217 0.328 2.397 0.217 3.925 0.324 4.58 0.324 18.756 0 33.478-5.285 44.167-15.867 10.684-10.576 16.032-25.242 16.032-44.004 0-12.868-4.203-22.191-12.598-27.974zm-26.989 40.08c-1.094 7.635-3.926 12.649-8.506 15.049-4.581 2.403-11.124 3.599-19.629 3.599l-10.797 0.326 5.563-35.007c0.434-2.397 1.851-3.597 4.252-3.597h6.218c8.72 0 15.049 1.257 18.975 3.761 3.924 2.51 5.233 7.801 3.924 15.869z" fill="#003087"/><path d="m720.79 160.68h-24.207c-2.406 0-3.822 1.2-4.254 3.601l-21.266 136.1-0.328 0.654c0 1.096 0.436 2.127 1.311 3.109 0.867 0.98 1.963 1.471 3.27 1.471h21.596c4.137 0 6.428-2.068 6.871-6.215l21.264-133.81v-0.325c-1e-3 -3.055-1.423-4.581-4.257-4.581z" fill="#009CDE"/><path d="m428.31 213.36c0-1.088-0.438-2.126-1.305-3.105-0.875-0.981-1.857-1.475-2.945-1.475h-25.191c-2.404 0-4.367 1.096-5.891 3.271l-34.678 51.039-14.395-49.074c-1.096-3.487-3.492-5.236-7.197-5.236h-24.541c-1.093 0-2.074 0.492-2.941 1.475-0.875 0.979-1.309 2.019-1.309 3.105 0 0.439 2.127 6.871 6.379 19.303 4.252 12.436 8.832 25.85 13.74 40.246 4.908 14.393 7.469 22.031 7.688 22.896-17.886 24.432-26.825 37.518-26.825 39.26 0 2.838 1.415 4.254 4.253 4.254h25.191c2.398 0 4.36-1.088 5.89-3.27l83.427-120.4c0.433-0.432 0.65-1.192 0.65-2.29z" fill="#003087"/><path d="m662.89 208.78h-24.865c-3.057 0-4.904 3.6-5.559 10.799-5.678-8.722-16.031-13.089-31.084-13.089-15.703 0-29.064 5.89-40.076 17.668-11.016 11.778-16.521 25.632-16.521 41.552 0 12.871 3.762 23.121 11.285 30.752 7.525 7.639 17.611 11.451 30.266 11.451 6.324 0 12.758-1.311 19.301-3.926 6.543-2.617 11.664-6.105 15.379-10.469 0 0.219-0.223 1.197-0.654 2.941-0.441 1.748-0.656 3.061-0.656 3.926 0 3.494 1.414 5.234 4.254 5.234h22.576c4.139 0 6.541-2.068 7.193-6.215l13.416-85.39c0.215-1.31-0.111-2.507-0.982-3.599-0.877-1.088-1.965-1.635-3.273-1.635zm-42.694 64.454c-5.562 5.453-12.27 8.178-20.121 8.178-6.328 0-11.449-1.742-15.377-5.234-3.928-3.482-5.891-8.281-5.891-14.395 0-8.064 2.727-14.886 8.182-20.447 5.445-5.562 12.213-8.342 20.283-8.342 6.102 0 11.174 1.799 15.213 5.396 4.031 3.6 6.055 8.562 6.055 14.889-2e-3 7.851-2.783 14.505-8.344 19.955z" fill="#009CDE"/><path d="m291.23 208.78h-24.865c-3.058 0-4.908 3.6-5.563 10.799-5.889-8.722-16.25-13.089-31.081-13.089-15.704 0-29.065 5.89-40.078 17.668-11.016 11.778-16.521 25.632-16.521 41.552 0 12.871 3.763 23.121 11.288 30.752 7.525 7.639 17.61 11.451 30.262 11.451 6.104 0 12.433-1.311 18.975-3.926 6.543-2.617 11.778-6.105 15.704-10.469-0.875 2.615-1.309 4.906-1.309 6.867 0 3.494 1.417 5.234 4.253 5.234h22.574c4.141 0 6.543-2.068 7.198-6.215l13.413-85.39c0.215-1.31-0.111-2.507-0.981-3.599-0.873-1.088-1.962-1.635-3.269-1.635zm-42.695 64.616c-5.563 5.35-12.382 8.016-20.447 8.016-6.329 0-11.4-1.742-15.214-5.234-3.819-3.482-5.726-8.281-5.726-14.395 0-8.064 2.725-14.886 8.18-20.447 5.449-5.562 12.211-8.343 20.284-8.343 6.104 0 11.175 1.8 15.214 5.397 4.032 3.6 6.052 8.562 6.052 14.889-1e-3 8.07-2.781 14.779-8.343 20.117z" fill="#003087"/><path d="m540.04 169.35c-8.398-5.774-19.355-8.668-32.879-8.668h-52.02c-4.363 0-6.764 2.073-7.197 6.215l-21.266 133.48c-0.221 1.311 0.107 2.51 0.982 3.6 0.865 1.092 1.961 1.635 3.27 1.635h26.826c2.617 0 4.361-1.416 5.236-4.252l5.889-37.949c0.217-1.744 0.98-3.162 2.291-4.254 1.309-1.09 2.943-1.803 4.908-2.129 1.961-0.324 3.812-0.488 5.561-0.488 1.744 0 3.814 0.111 6.215 0.328 2.398 0.217 3.93 0.324 4.58 0.324 18.76 0 33.479-5.285 44.168-15.867 10.688-10.576 16.031-25.242 16.031-44.004 1e-3 -12.868-4.2-22.192-12.595-27.974zm-33.533 53.819c-4.799 3.271-11.998 4.906-21.592 4.906l-10.471 0.328 5.562-35.008c0.432-2.396 1.85-3.598 4.252-3.598h5.887c4.799 0 8.615 0.219 11.455 0.654 2.83 0.438 5.561 1.799 8.178 4.088 2.619 2.291 3.926 5.619 3.926 9.979 0 9.164-2.402 15.377-7.197 18.651z" fill="#009CDE"/>
</symbol>
<symbol id="mastercard" viewBox="0 -140 780 780">
<path d="m449.01 250c0 99.143-80.371 179.5-179.51 179.5s-179.5-80.361-179.5-179.5c0-99.133 80.362-179.5 179.5-179.5 99.137 0 179.51 80.371 179.51 179.5" fill="#D9222A"/><path d="m510.49 70.496c-46.379 0-88.643 17.596-120.5 46.467-6.49 5.889-12.548 12.237-18.125 18.996h36.267c4.965 6.037 9.536 12.387 13.685 19.012h-63.635c-3.827 6.122-7.281 12.469-10.342 19.008h84.313c2.894 6.185 5.431 12.53 7.601 19.004h-99.513c-2.09 6.234-3.832 12.58-5.217 19.008h109.94c2.689 12.49 4.045 25.231 4.042 38.008 0 19.935-3.254 39.112-9.254 57.021h-99.513c2.164 6.477 4.7 12.824 7.596 19.008h84.316c-3.063 6.541-6.519 12.889-10.347 19.013h-63.625c4.147 6.62 8.719 12.966 13.685 18.996h36.259c-5.57 6.772-11.63 13.127-18.13 19.013 31.857 28.866 74.117 46.454 120.5 46.454 99.139 0 179.51-80.361 179.51-179.5 0-99.129-80.371-179.5-179.51-179.5" fill="#EE9F2D"/><path d="m666.07 350.06c0-3.199 2.592-5.801 5.796-5.801s5.796 2.602 5.796 5.801-2.592 5.801-5.796 5.801-5.796-2.602-5.796-5.801zm5.796 4.408c2.434-1e-3 4.407-1.974 4.408-4.408 0-2.432-1.971-4.402-4.402-4.404h-6e-3c-2.429-3e-3 -4.4 1.963-4.404 4.391v0.014c-2e-3 2.433 1.968 4.406 4.4 4.408 1e-3 -1e-3 3e-3 -1e-3 4e-3 -1e-3zm-0.783-1.86h-1.187v-5.096h2.149c0.45 0 0.908 0 1.305 0.254 0.413 0.279 0.646 0.771 0.646 1.279 0 0.571-0.338 1.104-0.884 1.312l0.938 2.25h-1.315l-0.779-2.017h-0.871l-2e-3 2.018zm0-2.89h0.658c0.246 0 0.505 0.021 0.726-0.1 0.195-0.125 0.296-0.359 0.296-0.584-5e-3 -0.209-0.112-0.402-0.288-0.518-0.207-0.129-0.536-0.101-0.758-0.101h-0.634v1.303zm-443.5-80.063c-2.046-0.238-2.945-0.301-4.35-0.301-11.046 0-16.638 3.787-16.638 11.268 0 4.611 2.729 7.545 6.987 7.545 7.939 0 13.659-7.559 14.001-18.512zm14.171 32.996h-16.146l0.371-7.676c-4.926 6.065-11.496 8.949-20.426 8.949-10.563 0-17.804-8.25-17.804-20.229 0-18.024 12.596-28.541 34.217-28.541 2.208 0 5.042 0.199 7.941 0.57 0.604-2.441 0.763-3.488 0.763-4.801 0-4.908-3.396-6.737-12.5-6.737-9.533-0.108-17.396 2.271-20.625 3.333 0.204-1.229 2.7-16.659 2.7-16.659 9.712-2.846 16.116-3.917 23.325-3.917 16.732 0 25.596 7.513 25.579 21.712 0.033 3.805-0.597 8.5-1.579 14.671-1.691 10.734-5.32 33.721-5.816 39.325zm-62.158 0h-19.487l11.162-69.997-24.925 69.997h-13.279l-1.642-69.597-11.733 69.597h-18.242l15.237-91.056h28.021l1.7 50.968 17.092-50.968h31.167l-15.071 91.056m354.97-32.996c-2.037-0.238-2.941-0.301-4.342-0.301-11.041 0-16.634 3.787-16.634 11.268 0 4.611 2.726 7.545 6.983 7.545 7.94 0 13.664-7.559 13.993-18.512zm14.184 32.996h-16.146l0.366-7.676c-4.926 6.065-11.5 8.949-20.422 8.949-10.565 0-17.8-8.25-17.8-20.229 0-18.024 12.588-28.541 34.213-28.541 2.208 0 5.037 0.199 7.934 0.57 0.604-2.441 0.763-3.488 0.763-4.801 0-4.908-3.392-6.737-12.496-6.737-9.533-0.108-17.387 2.271-20.629 3.333 0.204-1.229 2.709-16.659 2.709-16.659 9.712-2.846 16.112-3.917 23.313-3.917 16.74 0 25.604 7.513 25.587 21.712 0.032 3.805-0.597 8.5-1.579 14.671-1.684 10.734-5.321 33.721-5.813 39.325zm-220.39-1.125c-5.333 1.679-9.491 2.398-14 2.398-9.962 0-15.399-5.725-15.399-16.267-0.142-3.271 1.433-11.88 2.671-19.737 1.125-6.917 8.449-50.529 8.449-50.529h19.371l-2.263 11.208h11.699l-2.642 17.796h-11.742c-2.25 14.083-5.454 31.625-5.491 33.95 0 3.816 2.037 5.483 6.671 5.483 2.221 0 3.94-0.227 5.254-0.7l-2.578 16.398m59.392-0.6c-6.654 2.034-13.075 3.017-19.879 3-21.684-0.021-32.987-11.346-32.987-33.032 0-25.313 14.38-43.947 33.899-43.947 15.971 0 26.171 10.433 26.171 26.796 0 5.429-0.7 10.729-2.388 18.212h-38.574c-1.305 10.741 5.57 15.217 16.837 15.217 6.935 0 13.188-1.429 20.142-4.663l-3.221 18.417zm-10.888-43.9c0.107-1.543 2.055-13.217-9.013-13.217-6.171 0-10.583 4.704-12.38 13.217h21.393zm-123.42-5.017c0 9.367 4.542 15.826 14.842 20.676 7.892 3.709 9.112 4.81 9.112 8.17 0 4.617-3.479 6.701-11.191 6.701-5.813 0-11.221-0.908-17.458-2.922 0 0-2.563 16.321-2.68 17.102 4.43 0.967 8.38 1.861 20.279 2.19 20.563 0 30.059-7.829 30.059-24.75 0-10.175-3.976-16.146-13.737-20.634-8.171-3.75-9.108-4.587-9.108-8.045 0-4.004 3.237-6.046 9.537-6.046 3.825 0 9.05 0.408 14 1.112l2.775-17.175c-5.046-0.8-12.696-1.442-17.15-1.442-21.801 1e-3 -29.347 11.388-29.28 25.063m229.09-23.116c5.412 0 10.458 1.421 17.412 4.921l3.188-19.763c-2.854-1.121-12.904-7.7-21.417-7.7-13.041 0-24.065 6.471-31.82 17.15-11.309-3.746-15.958 3.825-21.657 11.367l-5.063 1.179c0.383-2.483 0.729-4.95 0.612-7.446h-17.896c-2.445 22.917-6.778 46.128-10.171 69.075l-0.884 4.976h19.496c3.254-21.143 5.037-34.68 6.121-43.842l7.341-4.084c1.097-4.078 4.529-5.458 11.417-5.291-0.926 5.008-1.389 10.091-1.383 15.184 0 24.225 13.07 39.308 34.05 39.308 5.404 0 10.041-0.712 17.221-2.658l3.43-20.759c-6.458 3.181-11.759 4.677-16.559 4.677-11.329 0-18.184-8.363-18.184-22.185 0-20.051 10.196-34.109 24.746-34.109"/><path d="m185.21 297.24h-19.491l11.171-69.988-24.926 69.988h-13.283l-1.642-69.588-11.733 69.588h-18.241l15.237-91.042h28.021l0.788 56.362 18.904-56.362h30.267l-15.072 91.042" fill="#ffffff"/><path d="m647.52 211.6l-4.321 26.309c-5.329-7.013-11.054-12.088-18.612-12.088-9.833 0-18.783 7.455-24.642 18.425-8.158-1.692-16.597-4.563-16.597-4.563l-4e-3 0.067c0.658-6.134 0.921-9.875 0.862-11.146h-17.9c-2.438 22.917-6.771 46.128-10.157 69.075l-0.893 4.976h19.492c2.633-17.096 4.648-31.291 6.133-42.551 6.658-6.016 9.992-11.266 16.721-10.916-2.979 7.205-4.725 15.503-4.725 24.017 0 18.513 9.366 30.725 23.533 30.725 7.142 0 12.621-2.462 17.967-8.171l-0.913 6.884h18.435l14.842-91.042-19.221-1e-3zm-24.371 73.941c-6.634 0-9.983-4.908-9.983-14.596 0-14.555 6.271-24.875 15.112-24.875 6.695 0 10.32 5.104 10.32 14.509 1e-3 14.679-6.37 24.962-15.449 24.962z"/><path d="m233.19 264.26c-2.042-0.236-2.946-0.299-4.346-0.299-11.046 0-16.634 3.787-16.634 11.266 0 4.604 2.729 7.547 6.979 7.547 7.947-1e-3 13.668-7.559 14.001-18.514zm14.178 32.984h-16.146l0.367-7.663c-4.921 6.054-11.5 8.95-20.421 8.95-10.567 0-17.805-8.25-17.805-20.229 0-18.032 12.592-28.542 34.217-28.542 2.208 0 5.042 0.2 7.938 0.571 0.604-2.441 0.763-3.487 0.763-4.808 0-4.909-3.392-6.729-12.496-6.729-9.537-0.108-17.396 2.271-20.629 3.321 0.204-1.225 2.7-16.637 2.7-16.637 9.708-2.858 16.12-3.929 23.32-3.929 16.737 0 25.604 7.517 25.588 21.704 0.029 3.821-0.604 8.513-1.584 14.675-1.687 10.724-5.319 33.724-5.812 39.316zm261.38-88.592l-3.191 19.767c-6.95-3.496-12-4.92-17.407-4.92-14.551 0-24.75 14.058-24.75 34.106 0 13.821 6.857 22.181 18.184 22.181 4.8 0 10.096-1.492 16.554-4.675l-3.421 20.75c-7.184 1.957-11.816 2.67-17.225 2.67-20.977 0-34.051-15.084-34.051-39.309 0-32.55 18.059-55.3 43.888-55.3 8.507 1e-3 18.561 3.609 21.419 4.73m31.443 55.608c-2.041-0.236-2.941-0.299-4.347-0.299-11.041 0-16.633 3.787-16.633 11.266 0 4.604 2.729 7.547 6.983 7.547 7.938-1e-3 13.663-7.559 13.997-18.514zm14.178 32.984h-16.15l0.371-7.663c-4.925 6.054-11.5 8.95-20.421 8.95-10.563 0-17.804-8.25-17.804-20.229 0-18.032 12.596-28.542 34.212-28.542 2.213 0 5.042 0.2 7.941 0.571 0.601-2.441 0.763-3.487 0.763-4.808 0-4.909-3.393-6.729-12.495-6.729-9.533-0.108-17.396 2.271-20.63 3.321 0.204-1.225 2.704-16.637 2.704-16.637 9.709-2.858 16.116-3.929 23.316-3.929 16.741 0 25.604 7.517 25.583 21.704 0.033 3.821-0.596 8.513-1.579 14.675-1.682 10.724-5.323 33.724-5.811 39.316zm-220.39-1.121c-5.338 1.679-9.496 2.408-14 2.408-9.962 0-15.399-5.726-15.399-16.268-0.138-3.279 1.438-11.88 2.675-19.736 1.12-6.926 8.445-50.534 8.445-50.534h19.368l-2.26 11.212h9.941l-2.646 17.788h-9.975c-2.25 14.092-5.463 31.62-5.496 33.95 0 3.83 2.041 5.482 6.671 5.482 2.221 0 3.938-0.216 5.254-0.691l-2.578 16.389m59.391-0.592c-6.65 2.033-13.079 3.012-19.879 3-21.685-0.021-32.987-11.346-32.987-33.033 0-25.321 14.379-43.95 33.899-43.95 15.971 0 26.171 10.429 26.171 26.8 0 5.434-0.7 10.733-2.384 18.212h-38.574c-1.306 10.741 5.569 15.222 16.837 15.222 6.93 0 13.188-1.435 20.138-4.677l-3.221 18.426zm-10.891-43.912c0.116-1.538 2.06-13.217-9.013-13.217-6.167 0-10.579 4.717-12.375 13.217h21.388zm-123.42-5.005c0 9.367 4.542 15.818 14.842 20.675 7.892 3.709 9.112 4.812 9.112 8.172 0 4.616-3.483 6.699-11.188 6.699-5.816 0-11.225-0.908-17.467-2.921 0 0-2.554 16.321-2.671 17.101 4.421 0.967 8.375 1.85 20.275 2.191 20.566 0 30.059-7.829 30.059-24.746 0-10.18-3.971-16.15-13.737-20.637-8.167-3.759-9.113-4.584-9.113-8.046 0-4 3.246-6.059 9.542-6.059 3.821 0 9.046 0.421 14.004 1.125l2.771-17.179c-5.042-0.8-12.692-1.441-17.146-1.441-21.804 0-29.346 11.379-29.283 25.066m398.45 50.63h-18.438l0.917-6.893c-5.347 5.717-10.825 8.18-17.968 8.18-14.166 0-23.528-12.213-23.528-30.726 0-24.63 14.521-45.392 31.708-45.392 7.559 0 13.279 3.087 18.604 10.096l4.325-26.308h19.221l-14.841 91.043zm-28.746-17.109c9.075 0 15.45-10.283 15.45-24.953 0-9.405-3.629-14.509-10.325-14.509-8.837 0-15.115 10.315-15.115 24.875-1e-3 9.686 3.357 14.587 9.99 14.587zm-56.842-56.929c-2.441 22.917-6.773 46.13-10.162 69.063l-0.892 4.976h19.491c6.972-45.275 8.658-54.117 19.588-53.009 1.742-9.267 4.982-17.383 7.399-21.479-8.163-1.7-12.721 2.913-18.688 11.675 0.471-3.788 1.333-7.467 1.162-11.225l-17.898-1e-3m-160.42 0c-2.446 22.917-6.779 46.13-10.167 69.063l-0.888 4.976h19.5c6.963-45.275 8.646-54.117 19.57-53.009 1.75-9.267 4.991-17.383 7.399-21.479-8.154-1.7-12.717 2.913-18.679 11.675 0.471-3.788 1.324-7.467 1.162-11.225l-17.897-1e-3m254.57 68.241c-4e-3 -3.199 2.586-5.795 5.784-5.799h0.012c3.197-4e-3 5.793 2.586 5.796 5.783v0.016c-1e-3 3.201-2.595 5.795-5.796 5.797-3.201-2e-3 -5.795-2.596-5.796-5.797zm5.796 4.405c2.431 2e-3 4.402-1.969 4.403-4.399v-4e-3c3e-3 -2.433-1.968-4.406-4.399-4.408h-4e-3c-2.435 1e-3 -4.407 1.974-4.408 4.408 2e-3 2.432 1.975 4.403 4.408 4.403zm-0.784-1.871h-1.188v-5.082h2.153c0.446 0 0.909 9e-3 1.296 0.254 0.417 0.283 0.654 0.767 0.654 1.274 0 0.575-0.337 1.112-0.888 1.317l0.941 2.236h-1.32l-0.779-2.009h-0.87l1e-3 2.01zm0-2.879h0.653c0.246 0 0.513 0.019 0.729-0.1 0.196-0.125 0.296-0.361 0.296-0.588-9e-3 -0.21-0.114-0.404-0.287-0.523-0.204-0.117-0.542-0.084-0.763-0.084h-0.629l1e-3 1.295z" fill="#ffffff"/>
</symbol>
<symbol id="visa" viewBox="0 -140 780 780" fill="none">
<path d="m293.2 348.73l33.359-195.76h53.358l-33.384 195.76h-53.333zm246.11-191.54c-10.569-3.966-27.135-8.222-47.821-8.222-52.726 0-89.863 26.551-90.181 64.604-0.297 28.129 26.515 43.822 46.754 53.185 20.771 9.598 27.752 15.716 27.652 24.283-0.133 13.123-16.586 19.115-31.924 19.115-21.355 0-32.701-2.967-50.225-10.273l-6.878-3.111-7.487 43.822c12.463 5.467 35.508 10.199 59.438 10.445 56.09 0 92.502-26.248 92.916-66.885 0.199-22.27-14.016-39.215-44.801-53.188-18.65-9.056-30.072-15.099-29.951-24.269 0-8.137 9.668-16.838 30.56-16.838 17.446-0.271 30.088 3.534 39.936 7.5l4.781 2.259 7.231-42.427m137.31-4.223h-41.23c-12.772 0-22.332 3.486-27.94 16.234l-79.245 179.4h56.031s9.159-24.121 11.231-29.418c6.123 0 60.555 0.084 68.336 0.084 1.596 6.854 6.492 29.334 6.492 29.334h49.512l-43.187-195.64zm-65.417 126.41c4.414-11.279 21.26-54.724 21.26-54.724-0.314 0.521 4.381-11.334 7.074-18.684l3.606 16.878s10.217 46.729 12.353 56.527h-44.293v3e-3zm-363.3-126.41l-52.239 133.5-5.565-27.129c-9.726-31.274-40.025-65.157-73.898-82.12l47.767 171.2 56.455-0.063 84.004-195.39-56.524-1e-3" fill="#0E4595"/><path d="m146.92 152.96h-86.041l-0.682 4.073c66.939 16.204 111.23 55.363 129.62 102.42l-18.709-89.96c-3.229-12.396-12.597-16.096-24.186-16.528" fill="#F2AE14"/>
</symbol>
<symbol id="amex" viewBox="0 -140 780 780" fill="none">
<path d="m575.61 145.11l-15.092 35.039h30.266l-15.174-35.039zm-174.15 21.713c2.845-1.422 4.52-4.515 4.52-8.356 0-3.764-1.76-6.49-4.604-7.771-2.591-1.42-6.577-1.584-10.399-1.584h-27v19.523h26.638c4.266 1e-3 7.831-0.059 10.845-1.812zm-345.97-21.713l-14.921 35.039h29.932l-15.011-35.039zm694.7 224.47h-42.344v-18.852h42.173c4.181 0 7.109-0.525 8.872-2.178 1.667-1.473 2.609-3.555 2.592-5.732 0-2.562-1.062-4.596-2.68-5.813-1.588-1.342-3.907-1.953-7.726-1.953-20.588-0.67-46.273 0.609-46.273-27.211 0-12.75 8.451-26.172 31.461-26.172h43.677v-17.492h-40.58c-12.246 0-21.144 2.81-27.443 7.181v-7.181h-60.022c-9.597 0-20.863 2.279-26.191 7.181v-7.181h-107.19v7.181c-8.529-5.897-22.925-7.181-29.565-7.181h-70.702v7.181c-6.747-6.262-21.758-7.181-30.902-7.181h-79.127l-18.104 18.775-16.959-18.775h-118.2v122.68h115.97l18.655-19.076 17.575 19.076 71.484 0.06v-28.859h7.03c9.484 0.146 20.67-0.223 30.542-4.311v33.106h58.962v-31.976h2.844c3.628 0 3.988 0.146 3.988 3.621v28.348h179.12c11.372 0 23.26-2.786 29.841-7.853v7.853h56.817c11.822 0 23.369-1.588 32.154-5.653v-22.853c-5.324 7.462-15.707 11.245-29.751 11.245zm-363.58-28.967h-27.36v29.488h-42.618l-27-29.102-28.058 29.102h-86.854v-87.914h88.19l26.976 28.818 27.89-28.818h70.064c17.401 0 36.952 4.617 36.952 28.963 0 24.422-19.016 29.463-38.182 29.463zm131.56-3.986c3.097 4.291 3.544 8.297 3.634 16.047v17.428h-22.016v-10.998c0-5.289 0.533-13.121-3.544-17.209-3.2-3.148-8.086-3.9-16.088-3.9h-23.432v32.107h-22.031v-87.914h50.62c11.105 0 19.188 0.473 26.384 4.148 6.92 4.006 11.275 9.494 11.275 19.523-2e-3 14.031-9.769 21.189-15.541 23.389 4.878 1.725 8.866 4.818 10.739 7.379zm90.575-36.258h-51.346v15.982h50.091v17.938h-50.091v17.492l51.346 0.078v18.242h-73.182v-87.914h73.182v18.182zm56.344 69.731h-42.705v-18.852h42.535c4.16 0 7.109-0.527 8.957-2.178 1.507-1.359 2.591-3.336 2.591-5.73 0-2.564-1.174-4.598-2.676-5.818-1.678-1.34-3.993-1.947-7.809-1.947-20.506-0.674-46.186 0.605-46.186-27.213 0-12.752 8.363-26.174 31.35-26.174h43.96v18.709h-40.225c-3.987 0-6.579 0.146-8.783 1.592-2.405 1.424-3.295 3.535-3.295 6.322 0 3.316 2.04 5.574 4.797 6.549 2.314 0.771 4.797 0.996 8.533 0.996l11.805 0.309c11.899 0.273 20.073 2.25 25.04 7.068 4.266 4.232 6.559 9.578 6.559 18.625-2e-3 18.913-12.335 27.742-34.448 27.742zm-170.06-68.313c-2.649-1.508-6.559-1.588-10.461-1.588h-27.001v19.744h26.64c4.265 0 7.892-0.145 10.822-1.812 2.842-1.646 4.543-4.678 4.543-8.438s-1.701-6.482-4.543-7.906zm244.99-1.59c-3.988 0-6.641 0.145-8.873 1.588-2.314 1.426-3.202 3.537-3.202 6.326 0 3.314 1.953 5.572 4.794 6.549 2.315 0.771 4.796 0.996 8.448 0.996l11.887 0.303c11.99 0.285 19.998 2.262 24.879 7.08 0.889 0.668 1.423 1.42 2.034 2.174v-25.014h-39.965l-2e-3 -2e-3zm-352.65 0h-28.59v22.391h28.336c8.424 0 13.663-4.006 13.667-11.611-4e-3 -7.688-5.497-10.78-13.413-10.78zm-190.81 0v15.984h48.136v17.938h-48.136v17.49h53.909l25.047-25.791-23.983-25.621h-54.973zm140.77 61.479v-70.482l-33.664 34.674 33.664 35.808zm-138.93-141.15v15.148h183.19l-0.085-32.046h3.545c2.483 0.083 3.205 0.302 3.205 4.229v27.818h94.748v-7.461c7.642 3.924 19.527 7.461 35.168 7.461h39.86l8.531-19.522h18.913l8.342 19.522h76.811v-18.544l11.629 18.543h61.555v-122.58h-60.915v14.477l-8.53-14.477h-62.507v14.477l-7.833-14.477h-84.434c-14.135 0-26.555 1.89-36.591 7.158v-7.158h-58.268v7.158c-6.387-5.43-15.089-7.158-24.762-7.158h-212.87l-14.282 31.662-14.668-31.662h-67.047v14.477l-7.367-14.477h-57.18l-26.553 58.284v46.621l39.264-87.894h32.579l37.29 83.217v-83.217h35.789l28.695 59.625 26.362-59.625h36.507v87.894h-22.475l-0.082-68.837-31.796 68.837h-19.252l-31.877-68.898v68.898h-44.6l-8.425-19.605h-45.654l-8.512 19.605h-23.814v17.682h37.466l8.447-19.523h18.914l8.425 19.523h73.713v-14.927l6.579 14.989h38.266l6.58-15.214zm288.67-80.176c7.085-7.015 18.188-10.25 33.298-10.25h21.227v18.833h-20.782c-7.998 0-12.521 1.14-16.871 5.208-3.74 3.7-6.304 10.696-6.304 19.908 0 9.417 1.955 16.206 6.028 20.641 3.376 3.478 9.513 4.533 15.283 4.533h9.851l30.902-69.12h32.853l37.124 83.134v-83.133h33.386l38.543 61.213v-61.213h22.46v87.891h-31.072l-41.562-65.968v65.968h-44.656l-8.532-19.605h-45.55l-8.278 19.605h-25.66c-10.657 0-24.151-2.258-31.793-9.722-7.707-7.462-11.713-17.571-11.713-33.553-4e-3 -13.037 2.389-24.953 11.818-34.37zm-45.101-10.249h22.372v87.894h-22.372v-87.894zm-100.87 0h50.432c11.203 0 19.464 0.285 26.553 4.21 6.936 3.926 11.095 9.658 11.095 19.46 0 14.015-9.763 21.254-15.448 23.429 4.796 1.75 8.896 4.841 10.849 7.401 3.096 4.372 3.629 8.277 3.629 16.126v17.267h-22.115l-0.083-11.084c0-5.29 0.528-12.896-3.461-17.122-3.203-3.09-8.088-3.763-15.983-3.763h-23.538v31.97h-21.927l-3e-3 -87.894zm-88.393 0h73.249v18.303h-51.32v15.843h50.088v18.017h-50.088v17.553h51.32v18.177h-73.249v-87.893z" fill="#2557D6"/>
</symbol>

<symbol id="searchbar" viewBox="0 0 20 20" fill="none">
<path d="M14.5726 16.0029C10.5755 19.1865 4.988 18.3056 2.02842 14.6542C-0.828088 11.129 -0.64944 6.04347 2.44943 2.82482C5.65137 -0.500594 10.6854 -0.944524 14.3346 1.78337C15.642 2.76051 16.6183 4.00364 17.2542 5.50838C17.8938 7.02186 18.0881 8.59654 17.8663 10.2205C17.6452 11.837 17 13.2775 15.9499 14.6217C16.0349 14.6773 16.1255 14.7173 16.1904 14.7822C17.3448 15.9311 18.4947 17.0843 19.6491 18.2331C19.9227 18.5054 20.0589 18.8225 19.9776 19.2047C19.8165 19.9651 18.9107 20.2586 18.3298 19.7366C18.0575 19.4925 17.807 19.2234 17.5484 18.9649C16.6002 18.0177 15.6526 17.0699 14.7044 16.1227C14.665 16.0853 14.6238 16.0503 14.5726 16.0029ZM15.9605 8.98677C15.9705 5.12689 12.8529 2.00627 8.98261 2.00065C5.12292 1.99503 2.00781 5.09068 1.99094 8.94806C1.97408 12.8173 5.08544 15.9467 8.96762 15.9648C12.8117 15.9829 15.9505 12.8504 15.9605 8.98677Z" fill="#3D3D3D"/>
</symbol>

<symbol id="blackbasket" viewBox="0 0 24 24" fill="none">
<path d="M17.1567 20.25H9.89163C6.79003 20.25 4.26667 17.7267 4.26667 14.6251V8.85947C4.26667 5.9762 2.82958 3.30739 0.422521 1.72031C-0.00975775 1.43531 -0.129101 0.853876 0.155897 0.421598C0.440896 -0.0107278 1.02228 -0.130118 1.45465 0.154974C2.82874 1.06097 3.94351 2.2559 4.74067 3.63167C4.91293 3.82466 6.30202 5.29699 8.57919 5.29699H19.3748C22.3201 5.24191 24.6254 8.19769 23.8554 11.0406L22.6126 15.9939C21.9839 18.4998 19.7404 20.25 17.1567 20.25ZM5.90513 6.64234C6.06099 7.36238 6.14166 8.10483 6.14166 8.85947V14.6251C6.14166 16.6928 7.8239 18.375 9.89163 18.375H17.1567C18.8792 18.375 20.3748 17.2082 20.794 15.5376L22.0367 10.5844C22.4943 8.89509 21.1243 7.13931 19.3748 7.17198H8.57914C7.54926 7.17198 6.65283 6.94993 5.90513 6.64234ZM9.42289 22.8281C9.42289 22.1809 8.89822 21.6563 8.25102 21.6563C6.69609 21.7182 6.69745 23.9387 8.25102 24C8.89822 24 9.42289 23.4753 9.42289 22.8281ZM18.751 22.8281C18.751 22.1809 18.2263 21.6563 17.5791 21.6563C16.0242 21.7182 16.0255 23.9387 17.5791 24C18.2263 24 18.751 23.4753 18.751 22.8281ZM20.3123 9.98446C20.3123 9.46668 19.8925 9.04697 19.3748 9.04697H8.95414C7.71027 9.09647 7.71121 10.8729 8.95414 10.922H19.3748C19.8925 10.922 20.3123 10.5022 20.3123 9.98446Z" fill="#3D3D3D"/>
</symbol>

<symbol id="arrow-right" viewBox="0 0 16 16" fill="none">
<path d="M2.66666 7.81714C2.66666 7.56401 2.85476 7.35481 3.09881 7.3217L3.16666 7.31714L13.1667 7.31714C13.4428 7.31714 13.6667 7.541 13.6667 7.81714C13.6667 8.07027 13.4786 8.27947 13.2345 8.31257L13.1667 8.31714H3.16666C2.89051 8.31714 2.66666 8.09328 2.66666 7.81714Z" fill="#3D3D3D"/>
<path d="M8.78066 4.15517C8.58498 3.96033 8.5843 3.64375 8.77914 3.44807C8.95627 3.27018 9.23401 3.25344 9.43006 3.39825L9.48624 3.44655L13.5196 7.46255C13.698 7.6402 13.7142 7.91895 13.5683 8.11499L13.5196 8.17114L9.48627 12.1878C9.29061 12.3827 8.97403 12.382 8.77917 12.1863C8.60203 12.0085 8.58646 11.7307 8.7321 11.5352L8.78063 11.4792L12.458 7.81666L8.78066 4.15517Z" fill="#3D3D3D"/>
</symbol>
</svg>