<svg width="83" height="93" viewBox="0 0 83 93" fill="none" xmlns="http://www.w3.org/2000/svg">
<ellipse cx="37" cy="54.6224" rx="37" ry="38.1327" fill="#46A358" fill-opacity="0.13"/>
<g clip-path="url(#clip0_4_3494)">
<path d="M22.2488 42.0248C39.0215 40.2184 55.9382 42.9913 72.6698 40.4927C73.4514 40.3745 73.1182 39.1548 72.3407 39.2729C55.7284 41.7505 38.9063 38.9648 22.2488 40.7586C21.4672 40.843 21.4589 42.1092 22.2488 42.0248Z" fill="#727272"/>
<path d="M22.0843 40.784C20.4469 41.3074 20.6526 43.5021 21.5206 44.667C22.9441 46.5747 26.1407 46.6169 28.2264 46.4144C29.0122 46.3384 29.0163 45.0722 28.2264 45.1482C26.8771 45.279 25.4783 45.2663 24.1659 44.8696C23.483 44.6628 22.7631 44.3716 22.3722 43.7131C22.1707 43.3713 21.7839 42.2064 22.4134 42.008C23.1704 41.7632 22.8454 40.5392 22.0843 40.784Z" fill="#727272"/>
<path d="M69.7818 40.8895C70.6498 40.8346 71.4891 40.6827 72.353 40.5645C73.723 40.3746 74.4265 40.7544 74.6651 42.2317C74.8625 43.4599 74.1097 43.8186 73.0483 44.1647C72.5464 44.3293 72.0198 44.4306 71.5014 44.5361C70.115 44.8147 68.7245 44.954 67.3134 45.0046C66.5235 45.0342 66.5194 46.3004 67.3134 46.2708C69.7201 46.1822 76.4793 46.0893 76.216 42.1852C76.1502 41.2103 75.2328 39.8639 74.373 39.4249C73.0894 38.7665 71.09 39.5389 69.7777 39.6233C68.9919 39.6739 68.9878 40.9401 69.7818 40.8895Z" fill="#727272"/>
<path d="M24.0549 46.1441C23.8862 48.8242 20.9241 50.3394 19.3526 52.1796C18.1184 53.6273 17.1475 55.2945 16.444 57.0714C14.9301 60.8784 14.6421 65.1455 15.4114 69.1593C16.9953 77.3938 23.0593 84.189 30.6331 87.1055C31.3778 87.3925 31.6987 86.1685 30.9623 85.8857C23.0963 82.8553 16.9829 75.2623 16.3 66.5552C15.975 62.4189 16.8266 58.1139 19.077 54.6318C20.9447 51.7449 25.0546 49.8963 25.2891 46.1441C25.3384 45.3338 24.1042 45.3338 24.0549 46.1441Z" fill="#727272"/>
<path d="M70.8226 45.6039C70.8226 48.934 73.1799 51.0233 75.5784 52.8846C77.6395 54.48 79.2357 56.0332 80.2519 58.536C81.1364 60.7096 81.6259 63.0563 81.737 65.4072C82.1402 74.0553 77.2445 82.083 69.7201 85.8604C69.0084 86.2192 69.6296 87.3123 70.3413 86.9536C77.3309 83.4462 82.2595 76.3176 82.9177 68.3321C83.2509 64.293 82.568 59.8444 80.5686 56.3033C78.3677 52.3992 72.0568 50.6096 72.0527 45.6039C72.0568 44.7894 70.8226 44.7894 70.8226 45.6039Z" fill="#727272"/>
<path d="M30.267 86.1769C29.4688 87.996 30.9005 89.5661 32.6777 89.6505C34.6072 89.7476 36.6436 89.2876 38.5772 89.2031C40.8193 89.1018 43.0614 89.0976 45.3036 89.1314C53.6714 89.2622 62.0351 89.9164 70.3659 88.7515C70.6498 88.7135 70.7938 88.3928 70.8185 88.1395C70.8843 87.4305 70.8267 86.9071 70.6251 86.2402C70.3906 85.4636 69.2017 85.7971 69.4362 86.5779C69.646 87.0886 69.6953 87.612 69.5843 88.1395C69.7365 87.9369 69.8846 87.7344 70.0368 87.5275C63.5408 88.435 56.9873 88.2071 50.4543 87.996C47.2865 87.8947 44.1146 87.8019 40.9468 87.8568C39.4987 87.8821 38.0506 87.9412 36.6025 88.0425C35.8126 88.0973 35.0268 88.1733 34.2411 88.2535C33.661 88.3126 30.4439 88.8233 31.3284 86.8058C31.6534 86.0756 30.592 85.4341 30.267 86.1769Z" fill="#727272"/>
<path d="M22.0802 52.7917C17.0529 59.1353 16.662 67.9902 21.1751 74.7433C21.3972 75.0767 21.9321 74.7602 21.7099 74.4225C17.3614 67.9185 17.6617 59.3675 22.5204 53.2349C22.7631 52.9268 22.3311 52.4752 22.0802 52.7917Z" fill="#727272"/>
<path d="M22.4134 77.0941C22.8165 77.6934 23.2773 78.2463 23.7916 78.7486C24.0795 79.0272 24.5156 78.584 24.2276 78.3012C23.7504 77.8369 23.3226 77.3305 22.9441 76.7776C22.7219 76.4441 22.1871 76.7565 22.4134 77.0941Z" fill="#727272"/>
<path d="M25.865 80.7366C26.2641 80.7366 26.2641 80.1035 25.865 80.1035C25.466 80.1035 25.466 80.7366 25.865 80.7366Z" fill="#727272"/>
<path d="M69.6296 45.6378C69.3128 46.8533 69.0413 48.0773 69.5062 49.2928C69.9381 50.4197 70.8144 51.4369 71.559 52.3697C73.3445 54.5982 76.9977 56.8478 77.1705 59.9542C77.1911 60.3594 77.8082 60.3636 77.7876 59.9542C77.6601 57.6286 75.9898 56.1387 74.4512 54.6277C73.4597 53.6528 72.5258 52.6187 71.6701 51.5129C71.0941 50.7658 70.4441 49.9766 70.1109 49.0776C69.7036 47.9844 69.9381 46.9082 70.222 45.8108C70.3248 45.4141 69.7283 45.2452 69.6296 45.6378Z" fill="#727272"/>
<path d="M77.4379 61.423C77.5243 62.2334 77.6107 63.0437 77.6971 63.8541C77.7382 64.255 78.3594 64.2593 78.3141 63.8541C78.2278 63.0437 78.1414 62.2334 78.055 61.423C78.0138 61.022 77.3967 61.0178 77.4379 61.423Z" fill="#727272"/>
<path d="M77.4955 65.5212C77.5408 65.7576 77.5037 65.9813 77.4173 66.2007C77.3556 66.3611 77.4873 66.5468 77.6313 66.589C77.8082 66.6397 77.948 66.5257 78.0097 66.3696C78.1373 66.0404 78.1537 65.6985 78.0879 65.3524C78.018 64.9557 77.4215 65.1245 77.4955 65.5212Z" fill="#727272"/>
<path d="M50.7423 60.8911C52.2151 58.021 54.9879 56.1429 58.2091 56.3075C62.0434 56.5016 66.0751 59.9246 63.3887 63.9679C61.813 66.3357 58.9826 67.8678 56.8968 69.7333C54.5806 71.8057 52.4619 74.089 50.5078 76.5286C50.0059 77.1532 50.8739 78.0522 51.3799 77.4233C54.3585 73.705 57.7278 70.5606 61.4304 67.623C63.9029 65.6562 66.6387 62.6722 65.1371 59.2155C63.8947 56.3539 60.4636 54.9484 57.5715 55.0328C54.1651 55.1341 51.2442 57.1938 49.6726 60.2495C49.3065 60.9713 50.372 61.6128 50.7423 60.8911Z" fill="#727272"/>
<path d="M50.4502 59.9077C47.8131 56.8647 44.5219 53.7287 40.2516 53.9566C37.0838 54.1255 34.3563 56.5903 33.8996 59.836C33.336 63.7907 36.2158 67.2601 39.0215 69.5519C42.469 72.3671 47.6691 73.342 50.2486 77.1575C50.697 77.8244 51.7666 77.1913 51.3141 76.5202C49.7055 74.1397 47.3647 72.9158 44.8798 71.6833C41.7203 70.1175 38.606 68.1802 36.5737 65.1582C34.3069 61.7944 34.6813 56.6494 39.075 55.417C43.3741 54.2141 46.9944 57.827 49.5739 60.8025C50.1046 61.4145 50.9767 60.5155 50.4502 59.9077Z" fill="#727272"/>
</g>
<g clip-path="url(#clip1_4_3494)">
<path d="M46.4719 13.0156C45.283 15.2345 43.4688 17.0123 41.1405 17.9326C40.2313 18.2941 39.0342 18.273 39.1535 16.9912C39.2275 16.1927 40.0668 15.4993 40.6756 15.1253C41.7123 14.4865 43.041 14.2764 44.1558 13.7804C44.8799 13.4568 44.2546 12.3684 43.5347 12.692C41.5436 13.5787 39.3633 13.7888 38.232 15.9406C37.6273 17.0921 37.4298 18.6933 38.7915 19.3489C40.2683 20.0592 42.3005 18.9118 43.5264 18.1049C45.2295 16.987 46.5665 15.4615 47.5333 13.6502C47.92 12.9399 46.8545 12.3011 46.4719 13.0156Z" fill="#46A358"/>
<path d="M43.8967 12.4901C42.3993 12.6582 40.9142 12.6666 39.4291 12.3808C38.8861 12.2757 38.3472 12.1329 37.8206 11.9606C37.3763 11.8261 36.9485 11.6622 36.5248 11.4646C35.8954 10.6493 35.9571 10.1955 36.7181 10.0946C38.9478 8.33789 42.4322 10.1828 44.6207 11.036C45.3653 11.326 45.6862 10.1072 44.9498 9.82142C43.0451 9.07755 40.9553 7.95966 38.8614 8.19921C37.6602 8.33369 34.8916 8.86742 34.5707 10.4098C33.8303 13.982 42.1072 13.9568 43.8967 13.7551C44.6783 13.6626 44.6865 12.4018 43.8967 12.4901Z" fill="#46A358"/>
<path d="M45.353 9.84239C43.4812 8.32524 41.8192 5.96337 41.9097 3.40397C41.9509 2.26506 42.6584 1.78176 43.6828 2.29448C44.2464 2.57605 44.6372 3.2947 44.9457 3.83684C45.6615 5.10603 45.9618 6.55594 46.2251 7.98063C46.3732 8.77492 47.5621 8.43871 47.414 7.64442C47.019 5.51789 46.4555 3.30311 44.9169 1.71452C44.0078 0.777331 42.4939 -0.298541 41.4243 0.962246C38.9231 3.90828 42.1977 8.87999 44.4808 10.7333C45.0979 11.2335 45.9783 10.3467 45.353 9.84239Z" fill="#46A358"/>
<path d="M47.3852 7.99358C47.6567 5.96791 48.5206 2.11411 50.7996 1.4585C52.9182 0.853323 52.7084 4.33309 52.116 5.48461C51.5195 6.64454 50.3471 7.73302 49.4955 8.70382C48.969 9.3048 49.837 10.2 50.3676 9.59478C51.5894 8.19951 53.416 6.59831 53.6792 4.63568C53.8849 3.11433 53.7738 0.815499 52.1325 0.14308C50.635 -0.470503 49.1541 0.924767 48.3025 2.02165C47.0478 3.63546 46.4637 5.63591 46.1922 7.64896C46.0852 8.45166 47.2741 8.79628 47.3852 7.99358Z" fill="#46A358"/>
<path d="M50.454 9.75442C51.8897 8.52726 54.5555 7.67413 56.3079 8.77942C58.5787 10.2167 55.3618 11.0783 54.3004 11.1497C53.165 11.2295 52.0296 11.1581 50.9024 11.0236C50.1167 10.9312 50.1208 12.1919 50.9024 12.2844C52.7454 12.5029 55.2342 12.7845 56.9497 11.8515C58.0152 11.2716 58.7803 9.8679 58.1262 8.68696C57.394 7.36313 55.333 7.04373 53.996 7.08156C52.3381 7.13199 50.8448 7.7876 49.586 8.86347C48.9731 9.38459 49.8493 10.2756 50.454 9.75442Z" fill="#46A358"/>
<path d="M50.5857 12.2422C51.8568 12.7213 53.1198 13.4441 53.8438 14.6629C54.7488 16.1927 54.7694 19.0084 52.1366 18.4831C49.8205 18.0208 48.1462 15.5076 47.6731 13.3265C47.5004 12.5364 46.3115 12.8684 46.4843 13.6627C46.9039 15.6043 47.9529 17.319 49.5243 18.5083C50.7585 19.4455 52.9264 20.5634 54.3786 19.5001C55.8719 18.4074 55.8719 16.1464 55.1972 14.5915C54.3992 12.7591 52.7002 11.6959 50.923 11.0234C50.1661 10.7461 49.8452 11.9648 50.5857 12.2422Z" fill="#46A358"/>
<path d="M38.1045 15.7137C34.5008 17.9326 31.8433 20.4038 31.2139 24.8502C30.5269 29.679 31.6253 34.7263 32.6291 39.4291C32.7977 40.2234 33.9866 39.8871 33.8179 39.0928C32.9294 34.9322 32.0202 30.6204 32.2958 26.3379C32.5961 21.6688 34.9657 19.1178 38.7216 16.8063C39.4044 16.3861 38.7874 15.2934 38.1045 15.7137Z" fill="#46A358"/>
<path d="M54.0083 14.2889C59.0477 14.6923 62.6143 18.8277 63.9678 23.564C65.4405 28.7207 64.6178 34.1505 63.8156 39.3449C63.6922 40.1392 64.881 40.4796 65.0045 39.6811C65.9424 33.5873 66.8844 27.1153 64.4614 21.24C62.6267 16.7894 58.8173 13.4147 54.0083 13.0281C53.2144 12.965 53.2185 14.2258 54.0083 14.2889Z" fill="#46A358"/>
<path d="M39.3263 18.3277C33.2996 22.8077 35.2536 32.936 36.4713 39.2315C36.6235 40.0258 37.8165 39.6896 37.6602 38.8953C37.0226 35.6004 36.4302 32.2678 36.4919 28.8973C36.5536 25.6192 37.1583 21.488 39.9475 19.4161C40.5851 18.9412 39.9721 17.8486 39.3263 18.3277Z" fill="#46A358"/>
<path d="M46.0934 14.251C43.8514 17.777 42.4034 21.7191 41.8768 25.8965C41.6012 28.0861 41.5806 30.3051 41.8357 32.4988C42.1113 34.8943 42.8641 37.1974 43.1438 39.5929C43.2343 40.3872 44.4726 40.3998 44.378 39.5929C43.8926 35.4112 42.642 31.5616 42.9711 27.2834C43.3125 22.8412 44.7935 18.6134 47.163 14.8856C47.5908 14.2048 46.5254 13.5744 46.0934 14.251Z" fill="#46A358"/>
<path d="M49.1088 18.1469C50.9477 21.2484 51.3344 24.7576 51.6553 28.3004C51.9885 31.9861 52.26 35.676 52.4904 39.3701C52.5397 40.1771 53.7739 40.1813 53.7245 39.3701C53.4653 35.1885 53.1732 31.0069 52.7536 26.8379C52.4245 23.5641 51.8692 20.3575 50.1743 17.5081C49.7629 16.8189 48.6933 17.4493 49.1088 18.1469Z" fill="#46A358"/>
<path d="M54.7241 18.7353C59.3192 24.64 59.4714 32.1795 59.3069 39.3744C59.2904 40.1855 60.5246 40.1855 60.541 39.3744C60.7138 31.7845 60.4176 24.0433 55.5963 17.8444C55.1026 17.2098 54.2346 18.1092 54.7241 18.7353Z" fill="#46A358"/>
<path d="M46.9532 20.2735C46.8833 20.555 46.8175 20.8324 46.7475 21.114C46.6529 21.509 47.2453 21.6771 47.344 21.2821C47.414 21.0005 47.4798 20.7231 47.5497 20.4416C47.6443 20.0507 47.052 19.8826 46.9532 20.2735Z" fill="#46A358"/>
<path d="M48.2861 22.4629C48.2861 22.7781 48.2861 23.0933 48.2861 23.4085C48.2861 23.8161 48.9031 23.8161 48.9031 23.4085C48.9031 23.0933 48.9031 22.7781 48.9031 22.4629C48.9031 22.0553 48.2861 22.0553 48.2861 22.4629Z" fill="#46A358"/>
<path d="M45.3077 24.4593C45.2748 24.9132 45.2378 25.3713 45.2049 25.8251C45.1761 26.2286 45.7931 26.2286 45.8219 25.8251C45.8548 25.3713 45.8919 24.9132 45.9248 24.4593C45.9536 24.0558 45.3365 24.0558 45.3077 24.4593Z" fill="#46A358"/>
<path d="M49.3145 26.6655C49.3145 27.0858 49.3145 27.5061 49.3145 27.9263C49.3145 28.334 49.9316 28.334 49.9316 27.9263C49.9316 27.5061 49.9316 27.0858 49.9316 26.6655C49.9316 26.2579 49.3145 26.2579 49.3145 26.6655Z" fill="#46A358"/>
<path d="M46.9491 28.977C46.9491 29.4309 46.9491 29.889 46.9491 30.3429C46.9491 30.7505 47.5662 30.7505 47.5662 30.3429C47.5662 29.889 47.5662 29.4309 47.5662 28.977C47.5662 28.5694 46.9491 28.5694 46.9491 28.977Z" fill="#46A358"/>
<path d="M45.6121 33.5999C45.6121 34.2303 45.6121 34.8607 45.6121 35.491C45.6121 35.8987 46.2292 35.8987 46.2292 35.491C46.2292 34.8607 46.2292 34.2303 46.2292 33.5999C46.2292 33.1922 45.6121 33.1922 45.6121 33.5999Z" fill="#46A358"/>
<path d="M43.7815 29.4771C43.8514 29.8974 43.9255 30.3177 43.9954 30.7379C44.0612 31.1372 44.6577 30.9691 44.5919 30.5698C44.522 30.1496 44.4479 29.7293 44.378 29.309C44.3081 28.914 43.7116 29.0821 43.7815 29.4771Z" fill="#46A358"/>
<path d="M48.5 35.7013C48.5329 36.1216 48.5699 36.5418 48.6028 36.9621C48.6358 37.3655 49.2528 37.3655 49.2199 36.9621C49.187 36.5418 49.15 36.1216 49.1171 35.7013C49.0842 35.2978 48.463 35.2936 48.5 35.7013Z" fill="#46A358"/>
<path d="M50.3471 30.9733C50.38 31.3936 50.417 31.8138 50.4499 32.2341C50.4828 32.6333 51.0999 32.6375 51.067 32.2341C51.0341 31.8138 50.9971 31.3936 50.9641 30.9733C50.9312 30.5698 50.3142 30.5656 50.3471 30.9733Z" fill="#46A358"/>
<path d="M57.431 16.903C57.9082 17.3275 58.3854 17.752 58.8626 18.1722C59.1629 18.437 59.5989 17.9915 59.2986 17.7267C58.8214 17.3023 58.3442 16.8778 57.867 16.4575C57.5709 16.1928 57.1307 16.6341 57.431 16.903Z" fill="#46A358"/>
<path d="M57.6902 20.4121C57.9576 20.9038 58.2291 21.3997 58.4965 21.8914C58.6898 22.2444 59.2246 21.9292 59.0313 21.572C58.7639 21.0803 58.4924 20.5844 58.225 20.0927C58.0275 19.7397 57.4968 20.0591 57.6902 20.4121Z" fill="#46A358"/>
<path d="M60.1625 20.618C60.467 21.0424 60.7714 21.4669 61.0758 21.8872C61.3062 22.2108 61.8451 21.8956 61.6106 21.5678C61.3062 21.1433 61.0017 20.7188 60.6973 20.2986C60.4628 19.9792 59.928 20.2902 60.1625 20.618Z" fill="#46A358"/>
<path d="M61.6846 26.1151C61.7875 26.8506 61.8944 27.586 61.9973 28.3215C62.0549 28.7207 62.6473 28.5526 62.5938 28.1534C62.4909 27.4179 62.384 26.6825 62.2811 25.947C62.2194 25.5477 61.627 25.7201 61.6846 26.1151Z" fill="#46A358"/>
<path d="M59.6113 24.2281C59.7141 24.5769 59.817 24.9299 59.9198 25.2788C60.035 25.6654 60.6274 25.5015 60.5163 25.1106C60.4135 24.7618 60.3106 24.4088 60.2078 24.06C60.0926 23.6734 59.4961 23.8373 59.6113 24.2281Z" fill="#46A358"/>
<path d="M62.8818 32.129C62.927 32.6291 62.9188 33.1292 62.8406 33.6251C62.7789 34.0201 63.3713 34.1924 63.4371 33.7932C63.5235 33.2385 63.5523 32.6879 63.5029 32.129C63.4618 31.7297 62.8447 31.7255 62.8818 32.129Z" fill="#46A358"/>
<path d="M61.4501 34.1252C61.4501 34.5118 61.4501 34.8942 61.4501 35.2809C61.4501 35.6885 62.0672 35.6885 62.0672 35.2809C62.0672 34.8942 62.0672 34.5118 62.0672 34.1252C62.0672 33.7175 61.4501 33.7175 61.4501 34.1252Z" fill="#46A358"/>
<path d="M62.0878 23.5936C62.2565 24.0139 62.4293 24.4342 62.5979 24.8544C62.6637 25.0141 62.8036 25.1234 62.9764 25.073C63.1204 25.0351 63.2561 24.8418 63.1903 24.6863C63.0216 24.2661 62.8489 23.8458 62.6802 23.4255C62.6144 23.2658 62.4745 23.1566 62.3017 23.207C62.1577 23.2448 62.0261 23.4381 62.0878 23.5936Z" fill="#46A358"/>
<path d="M60.9359 30.8682C60.9359 31.1119 60.9359 31.3599 60.9359 31.6036C60.9359 32.0113 61.553 32.0113 61.553 31.6036C61.553 31.3599 61.553 31.1119 61.553 30.8682C61.553 30.4605 60.9359 30.4605 60.9359 30.8682Z" fill="#46A358"/>
<path d="M62.1701 37.9076C62.1536 38.206 62.0837 38.4918 61.9767 38.7692C61.915 38.9289 62.0467 39.1138 62.1906 39.1558C62.3675 39.2062 62.5074 39.0928 62.5691 38.9373C62.7007 38.6053 62.7666 38.2648 62.7871 37.9076C62.8118 37.5 62.1948 37.5042 62.1701 37.9076Z" fill="#46A358"/>
<path d="M36.2903 19.4623C36.0805 19.7733 35.8707 20.0843 35.6568 20.3953C35.4305 20.7315 35.9653 21.0467 36.1916 20.7147C36.4014 20.4037 36.6112 20.0927 36.8251 19.7817C37.0472 19.4455 36.5124 19.1303 36.2903 19.4623Z" fill="#46A358"/>
<path d="M34.5296 24.0599C34.4515 24.4423 34.3774 24.8248 34.2992 25.2114C34.2211 25.6065 34.8135 25.7788 34.8957 25.3795C34.9739 24.9971 35.048 24.6146 35.1261 24.228C35.2043 23.8329 34.6078 23.6648 34.5296 24.0599Z" fill="#46A358"/>
<path d="M34.3321 21.7695C34.0072 22.2108 33.7644 22.6983 33.5999 23.2236C33.4765 23.6102 34.073 23.7741 34.1964 23.3917C34.3486 22.9168 34.5749 22.4881 34.8669 22.0889C35.1055 21.7611 34.5666 21.4501 34.3321 21.7695Z" fill="#46A358"/>
<path d="M33.0774 25.9511C33.0034 26.4764 32.9252 26.9975 32.8512 27.5229C32.7936 27.9179 33.3901 28.0902 33.4477 27.691C33.5217 27.1656 33.5999 26.6445 33.6739 26.1192C33.7315 25.7199 33.135 25.5476 33.0774 25.9511Z" fill="#46A358"/>
<path d="M33.6945 28.977C33.641 29.5023 33.674 30.0193 33.7727 30.5362C33.8467 30.9354 34.4432 30.7673 34.3692 30.3681C34.2828 29.9058 34.2663 29.4435 34.3157 28.977C34.3486 28.5736 33.7316 28.5778 33.6945 28.977Z" fill="#46A358"/>
<path d="M34.2005 32.9696C34.2334 33.2848 34.2705 33.6 34.3034 33.9152C34.3198 34.0833 34.4309 34.2304 34.6119 34.2304C34.7641 34.2304 34.941 34.0875 34.9204 33.9152C34.8875 33.6 34.8505 33.2848 34.8176 32.9696C34.8011 32.8015 34.6901 32.6544 34.5091 32.6544C34.3568 32.6544 34.1841 32.7973 34.2005 32.9696Z" fill="#46A358"/>
<path d="M33.2008 35.3399C33.4394 35.7391 33.6122 36.1594 33.7192 36.6175C33.8138 37.0125 34.4062 36.8444 34.3157 36.4494C34.1964 35.9451 33.9989 35.466 33.7356 35.0205C33.5258 34.6759 32.9952 34.9953 33.2008 35.3399Z" fill="#46A358"/>
<path d="M34.5173 37.9917C34.5872 38.1682 34.653 38.3405 34.723 38.5171C34.7847 38.6725 34.9286 38.786 35.1014 38.7356C35.2495 38.6936 35.3812 38.5086 35.3153 38.3489C35.2454 38.1724 35.1796 38.0001 35.1096 37.8236C35.0479 37.6681 34.904 37.5547 34.7312 37.6051C34.5872 37.6429 34.4556 37.832 34.5173 37.9917Z" fill="#46A358"/>
</g>
<defs>
<clipPath id="clip0_4_3494">
<rect width="68" height="50.5" fill="white" transform="translate(15 39.1633)"/>
</clipPath>
<clipPath id="clip1_4_3494">
<rect width="35" height="40.1939" fill="white" transform="translate(31)"/>
</clipPath>
</defs>
</svg>
