<svg width="77" height="96" viewBox="0 0 77 96" fill="none" xmlns="http://www.w3.org/2000/svg">
<ellipse cx="37" cy="58.2886" rx="37" ry="37.1841" fill="#46A358" fill-opacity="0.13"/>
<g clip-path="url(#clip0_4_3351)">
<path d="M28.1293 46.5876C40.7023 48.2594 53.3918 48.5222 66.0231 47.3714C66.8795 47.2944 66.8885 45.9352 66.0231 46.0122C53.3918 47.163 40.7023 46.9002 28.1293 45.2284C27.2774 45.1151 27.2819 46.4788 28.1293 46.5876Z" fill="#727272"/>
<path d="M31.0304 92.4885C36.465 93.1862 41.9354 93.526 47.4147 93.449C52.235 93.3811 57.9251 93.594 62.4449 91.6775C63.2296 91.3422 62.8843 90.0283 62.0862 90.3681C57.4498 92.3345 51.5086 92.0671 46.5493 92.0989C41.3569 92.1351 36.178 91.7908 31.0259 91.1293C30.174 91.0205 30.1785 92.3798 31.0304 92.4885Z" fill="#727272"/>
<path d="M27.6047 45.541C21.3317 51.4219 18.4081 60.1889 19.0987 68.7384C19.4529 73.1559 20.6905 77.451 22.5513 81.4562C24.2462 85.108 26.7438 90.341 30.4924 92.2394C31.2636 92.629 31.9452 91.4601 31.1694 91.0659C27.6809 89.2989 25.3089 84.2109 23.7126 80.7721C21.8563 76.7623 20.6411 72.4083 20.39 67.9818C19.9416 60.0031 22.7127 51.9792 28.5598 46.5015C29.1965 45.908 28.2414 44.9475 27.6047 45.541Z" fill="#727272"/>
<path d="M65.5478 47.1856C72.1661 51.3765 72.7893 60.4154 72.6279 67.5332C72.4486 75.471 71.4755 88.0484 62.0862 90.3681C61.2477 90.5765 61.6019 91.8859 62.4449 91.6775C72.2468 89.2581 73.6547 76.7759 73.9507 68.3759C74.2242 60.515 73.5337 50.638 66.2248 46.0121C65.4895 45.55 64.8169 46.7235 65.5478 47.1856Z" fill="#727272"/>
<path d="M32.5774 46.5966C27.6405 51.9655 25.4614 60.9318 26.2954 68.1221C26.7796 72.304 28.0889 76.4542 29.062 80.5364C30.0395 84.6276 31.0483 88.6872 33.2634 92.2982C33.7208 93.0412 34.8821 92.3571 34.4247 91.614C32.3442 88.225 31.3757 84.4373 30.4565 80.5998C29.5686 76.9027 28.5329 73.2011 27.8468 69.4632C26.5465 62.3454 28.5822 52.9396 33.528 47.5571C34.1154 46.9137 33.1648 45.9532 32.5774 46.5966Z" fill="#727272"/>
<path d="M39.2405 47.163C35.5637 53.7054 33.6311 61.1358 33.7298 68.6659C33.7791 72.2814 34.2903 75.9015 35.2678 79.3811C36.4829 83.6989 38.3303 87.7947 39.1374 92.2303C39.2943 93.0911 40.5902 92.7241 40.4332 91.8678C39.7293 87.985 38.2361 84.3694 37.0479 80.6271C35.8955 76.9934 35.205 73.2465 35.0884 69.4271C34.8552 61.8743 36.7116 54.4122 40.4019 47.8471C40.8323 47.086 39.671 46.4018 39.2405 47.163Z" fill="#727272"/>
<path d="M43.2043 48.4634C44.4822 56.0116 42.9308 63.5734 43.0608 71.1533C43.1191 74.6148 43.8859 77.8362 44.3343 81.2433C44.8006 84.7818 44.0025 88.42 43.5675 91.9313C43.4599 92.7967 44.8051 92.7876 44.9127 91.9313C45.3521 88.3882 46.1458 84.7229 45.6795 81.1527C45.2042 77.5009 44.4015 74.0394 44.397 70.3242C44.3881 62.8892 45.7512 55.5087 44.5002 48.1054C44.3522 47.2446 43.0564 47.607 43.2043 48.4634Z" fill="#727272"/>
<path d="M48.2488 47.8335C50.6118 54.6522 50.8988 61.8471 51.1364 69.0011C51.3965 76.7713 51.0109 84.4192 49.576 92.0671C49.4146 92.9234 50.7104 93.2904 50.8719 92.4296C52.3292 84.6639 52.7462 76.8891 52.4816 69.0011C52.2395 61.7293 51.9435 54.3985 49.5446 47.471C49.2621 46.6555 47.9618 47.0089 48.2488 47.8335Z" fill="#727272"/>
<path d="M53.9075 47.8653C54.4052 49.4012 55.4813 50.4252 56.3064 51.7753C57.248 53.3158 57.7637 55.0601 58.0417 56.8362C58.647 60.7145 58.36 64.774 58.3511 68.6841C58.3421 72.9384 58.6649 77.4374 57.5753 81.5921C56.6158 85.2394 54.4142 88.3837 53.6788 92.108C53.5084 92.9643 54.8043 93.3268 54.9747 92.4704C55.7638 88.4834 58.2031 85.108 59.064 81.1391C59.9473 77.0795 59.6873 72.8116 59.6962 68.6841C59.7052 64.8692 59.9339 60.9682 59.4362 57.176C59.2165 55.4996 58.8398 53.8413 58.1224 52.31C57.3242 50.6019 55.7862 49.3015 55.2078 47.5074C54.9343 46.6782 53.634 47.0316 53.9075 47.8653Z" fill="#727272"/>
<path d="M60.4496 47.6522C63.122 50.1895 64.4089 54.2399 65.3729 57.7377C66.3773 61.3804 66.041 65.2678 65.8168 68.9966C65.3639 76.5629 64.0995 84.1202 60.5078 90.8619C60.0953 91.6322 61.2567 92.3208 61.6692 91.5461C65.4985 84.3558 66.7764 76.2729 67.2024 68.2082C67.4176 64.1487 67.5925 60.1843 66.3325 56.2742C65.2384 52.8807 64.0322 49.1927 61.4001 46.6872C60.7724 46.0937 59.8173 47.0542 60.4496 47.6522Z" fill="#727272"/>
<path d="M32.4698 51.0504C32.3308 51.4083 32.1783 51.7617 32.0124 52.1106C31.8017 52.5501 32.0483 53.1527 32.5953 53.1345C32.9854 53.121 33.2948 52.9443 33.5728 52.6769C33.6625 52.5909 33.7522 52.5002 33.8374 52.4142C33.9495 52.3009 33.8015 52.4821 33.8867 52.3779C33.8688 52.4051 33.7746 52.396 33.8598 52.4051C33.6446 52.1197 33.4293 51.8297 33.2096 51.5443C33.1513 51.8478 33.0886 52.1514 33.0303 52.4595C32.9585 52.8174 33.1334 53.1934 33.5011 53.2977C33.8329 53.3883 34.2589 53.1844 34.3306 52.8219C34.3889 52.5184 34.4517 52.2148 34.51 51.9067C34.5996 51.4446 34.3172 51.0912 33.8598 51.0459C33.4876 51.0096 33.1513 51.209 32.8868 51.4536C32.7926 51.5397 32.7119 51.6303 32.6177 51.7164C32.5863 51.7436 32.5594 51.7708 32.5281 51.798C32.5415 51.7844 32.555 51.7753 32.5684 51.7617C32.5012 51.798 32.5012 51.8025 32.5774 51.7708C32.5012 51.7889 32.5056 51.7934 32.5908 51.7708C32.7836 52.1106 32.9765 52.4504 33.1737 52.7947C33.389 52.3417 33.5863 51.8795 33.7656 51.4129C33.8957 51.0685 33.6221 50.6653 33.2948 50.5747C32.9182 50.4705 32.6043 50.7061 32.4698 51.0504Z" fill="#727272"/>
<path d="M29.1382 59.1831C29.0754 59.5637 29.0127 59.9442 28.9499 60.3203C28.9006 60.6239 28.9813 60.9229 29.2593 61.086C29.5059 61.231 29.8781 61.2038 30.0754 60.9818C30.2054 60.8323 30.3354 60.6828 30.4655 60.5332C30.5506 60.4336 30.6717 60.2478 30.7748 60.1934C30.6627 60.2251 30.5506 60.2569 30.4341 60.284C30.4565 60.2795 30.4834 60.2795 30.5058 60.275C30.3937 60.2433 30.2816 60.2116 30.165 60.1844C30.183 60.198 30.2009 60.2116 30.2188 60.2251C30.1067 60.0303 29.9946 59.8355 29.887 59.6362C29.9229 60.0258 29.8153 60.4607 29.7704 60.8549C29.7077 61.4213 30.3758 61.6297 30.7838 61.4439C31.3129 61.1947 31.6672 60.7371 31.8555 60.1889C31.4788 60.2886 31.1067 60.3883 30.73 60.4879C30.7166 60.4018 30.7031 60.3158 30.6897 60.2297C30.4699 61.0769 31.7703 61.4394 31.9855 60.5921C32.0842 60.207 31.9945 59.7857 31.6806 59.5274C31.277 59.1967 30.7345 59.3145 30.5551 59.8264C30.4744 60.053 30.3085 60.1708 30.1023 60.2705C30.4386 60.4653 30.7748 60.6601 31.1156 60.8595C31.1829 60.2523 31.5057 59.174 30.6807 58.943C29.9857 58.7481 29.4969 59.5818 29.1203 60.0213C29.4969 60.2433 29.8691 60.4607 30.2457 60.6828C30.3085 60.3022 30.3713 59.9216 30.4341 59.5455C30.4924 59.1831 30.3399 58.8116 29.9633 58.7074C29.6449 58.6213 29.1965 58.8206 29.1382 59.1831Z" fill="#727272"/>
<path d="M28.5598 67.3701C28.6046 67.9047 28.6539 68.4393 28.6988 68.9694C28.766 69.7261 29.7749 69.9028 30.0215 69.1507C30.1561 68.7338 30.3444 68.3578 30.582 67.9863C30.174 67.9319 29.7615 67.8775 29.3534 67.8232C29.5104 68.2173 29.618 68.6206 29.6763 69.0465C29.7435 69.5267 30.322 69.6083 30.6627 69.4542C30.8331 69.3772 30.9721 69.2277 31.0618 69.0646C31.1022 68.9921 31.1336 68.906 31.1605 68.829C31.1739 68.7882 31.1829 68.7474 31.1963 68.7067C31.2187 68.6387 31.2098 68.6432 31.1784 68.7202C31.0797 68.7791 30.9811 68.838 30.8824 68.8969C30.9049 68.8879 30.9318 68.8834 30.9542 68.8743C30.8331 68.8743 30.7165 68.8743 30.5955 68.8743C30.5865 68.8698 30.5775 68.8652 30.5731 68.8562C30.4923 68.7746 30.4116 68.6931 30.3309 68.6115C30.3444 68.6296 30.3533 68.6478 30.3668 68.6659C30.3444 68.4892 30.322 68.317 30.2995 68.1403C30.2951 68.163 30.2951 68.1856 30.2906 68.2037C30.2412 68.5662 30.3758 68.9332 30.7614 69.0419C31.0753 69.128 31.5416 68.9332 31.5909 68.5662C31.6313 68.2717 31.6088 68.0044 31.3936 67.7824C31.2143 67.6012 30.9407 67.5151 30.6896 67.5423C30.4296 67.574 30.2009 67.728 30.0619 67.95C30.0036 68.0452 29.9229 68.1766 29.9184 68.2853C29.9139 68.4439 29.8467 68.3306 29.9901 68.2672C30.3175 68.4031 30.6493 68.539 30.9766 68.6749C30.9183 68.2536 30.8107 67.8503 30.6538 67.4516C30.4385 66.917 29.757 66.763 29.4252 67.2885C29.1292 67.7552 28.9005 68.2536 28.7302 68.7746C29.1696 68.8335 29.609 68.8969 30.0529 68.9558C30.0081 68.4212 29.9588 67.8866 29.9139 67.3565C29.8825 66.9895 29.6269 66.6769 29.2413 66.6769C28.8961 66.6905 28.5284 67.0031 28.5598 67.3701Z" fill="#727272"/>
<path d="M30.1785 76.9572C30.2233 77.741 30.6134 78.4251 31.2905 78.8238C31.7389 79.0821 32.2949 78.7513 32.3039 78.2348C32.3084 77.8361 32.398 77.4691 32.5505 77.1021C32.1738 77.2018 31.8017 77.3015 31.425 77.4012C31.6089 77.6277 31.8061 77.8271 32.0259 78.0128C32.3846 78.3164 33.0392 78.2575 33.1513 77.7138C33.1782 77.5915 33.2096 77.4873 33.25 77.374C32.8733 77.4737 32.5012 77.5733 32.1245 77.673C32.1649 77.6504 32.1873 77.6775 32.1828 77.75C32.3263 78.0898 32.8195 78.1623 33.102 77.9947C33.4473 77.7908 33.4876 77.4057 33.3441 77.0659C33.2859 76.93 33.1917 76.8076 33.0751 76.7125C32.6581 76.3818 32.1469 76.5041 31.9496 77.0115C31.9048 77.1248 31.8734 77.2335 31.851 77.3513C32.2276 77.2517 32.5998 77.152 32.9765 77.0523C32.7567 76.8665 32.5595 76.6627 32.3756 76.4407C32.0169 75.9966 31.425 76.3274 31.2501 76.7397C31.0528 77.2154 30.9632 77.7183 30.9542 78.2348C31.2905 78.04 31.6268 77.8452 31.9676 77.6458C31.7075 77.4963 31.5371 77.2607 31.5192 76.9526C31.4743 76.0918 30.1292 76.0827 30.1785 76.9572Z" fill="#727272"/>
<path d="M32.9496 86.2768C33.1065 86.6846 33.2948 87.0607 33.5504 87.4186C33.9495 87.9713 34.7431 87.7674 34.8059 87.0742C34.8104 87.0335 34.8821 86.5306 34.8552 86.5079C34.6624 86.6302 34.4741 86.7526 34.2813 86.8749C34.3261 86.9383 34.3665 86.9972 34.4158 87.0561C34.5862 87.2736 34.7969 87.4594 35.0705 87.5364C35.2812 87.5907 35.5278 87.5636 35.7117 87.4458C35.8327 87.3642 35.9179 87.2691 35.9807 87.1377C36.0031 87.0833 36.0255 87.0289 36.048 86.9746C36.1511 86.6484 35.9538 86.594 35.4606 86.8115C35.7296 87.6361 37.0299 87.2827 36.7564 86.449C36.5681 85.8781 36.0211 85.5066 35.4247 85.7331C35.1826 85.8283 34.9718 86.0095 34.8552 86.2451C34.8194 86.3176 34.6893 86.6302 34.7342 86.7208C34.9942 86.5713 35.2498 86.4173 35.5099 86.2678C35.474 86.2225 35.4381 86.1817 35.4068 86.1364C35.1915 85.6969 34.5683 85.4477 34.1199 85.6108C33.4876 85.8374 33.5145 86.517 33.4652 87.0788C33.8822 86.9655 34.2992 86.8522 34.7207 86.7344C34.5369 86.4807 34.371 86.2134 34.2544 85.9189C33.9315 85.1124 32.6312 85.4613 32.9496 86.2768Z" fill="#727272"/>
<path d="M40.1373 51.2361C39.653 51.6031 39.2495 52.038 38.9849 52.5953C38.6397 53.3202 39.4423 53.8911 40.0431 53.4199C40.1866 53.3067 40.3301 53.1934 40.4736 53.0801C40.5364 53.0303 40.5991 52.9804 40.6664 52.9306C40.6978 52.9034 40.7292 52.8808 40.7606 52.8536C40.8727 52.772 40.8144 52.7856 40.5857 52.8898C40.4736 52.8581 40.3615 52.8264 40.2449 52.7992C40.2584 52.8083 40.2718 52.8173 40.2853 52.8264C40.2046 52.7448 40.1238 52.6633 40.0431 52.5817C40.0297 52.5228 40.0117 52.4685 39.9983 52.4096C40.0028 52.3461 40.0028 52.3371 39.9893 52.3914C39.9579 52.4141 39.949 52.5681 39.949 52.5908C39.9176 52.7992 39.9355 53.0031 40.0431 53.1934C40.1418 53.3656 40.3167 53.5196 40.5095 53.5694C40.5902 53.5921 40.6933 53.6012 40.7785 53.6012C40.8592 53.6012 40.931 53.5876 41.0027 53.5604C41.0969 53.5332 41.0655 53.5241 40.9041 53.5332C40.8054 53.4743 40.7068 53.4154 40.6081 53.3565C40.6216 53.3701 40.635 53.3837 40.6485 53.3973C40.5902 53.2976 40.5319 53.1979 40.4736 53.0982C40.4781 53.1118 40.4826 53.13 40.487 53.1435C40.5095 52.9668 40.5319 52.7947 40.5543 52.618C40.5453 52.6316 40.5409 52.6452 40.5319 52.6588C40.1238 53.429 41.2852 54.1177 41.6932 53.3429C41.8681 53.0167 41.8277 52.6497 41.5542 52.3914C41.4107 52.2555 41.2179 52.174 41.0206 52.1694C40.9085 52.1649 40.7785 52.2374 40.6799 52.2283C40.792 52.2601 40.9041 52.2918 41.0206 52.319C41.0027 52.3054 40.9848 52.2918 40.9713 52.2827C41.052 52.3643 41.1327 52.4458 41.2134 52.5274C41.2045 52.5092 41.1955 52.4911 41.1865 52.473C41.2179 52.5863 41.2493 52.6995 41.2762 52.8173C41.2672 52.7312 41.2807 52.7766 41.3121 52.6497C41.348 52.4911 41.3524 52.319 41.3166 52.1558C41.2403 51.8296 40.9982 51.594 40.6754 51.5351C40.3391 51.4717 40.1104 51.6484 39.8548 51.8478C39.5992 52.0471 39.3436 52.251 39.0881 52.4503C39.4423 52.7267 39.792 52.9986 40.1463 53.2749C40.3077 52.9397 40.5139 52.6316 40.8144 52.405C41.1058 52.1876 41.2538 51.816 41.0565 51.4762C40.8906 51.1908 40.4332 51.0186 40.1373 51.2361Z" fill="#727272"/>
<path d="M37.5052 58.884C37.3931 59.4277 37.2855 59.9714 37.1734 60.5196C37.0344 61.2128 37.7788 61.6115 38.2989 61.1811C38.4513 61.0542 38.5859 60.8956 38.6845 60.7235C38.7518 60.6057 38.8325 60.3656 38.8684 60.3067C38.7876 60.3882 38.7069 60.4698 38.6262 60.5513C38.6486 60.5377 38.6666 60.5241 38.689 60.506C38.5769 60.5377 38.4648 60.5694 38.3482 60.5966C38.3751 60.5921 38.402 60.5921 38.4289 60.5876C38.3168 60.5558 38.2047 60.5241 38.0881 60.4969C37.9805 60.4471 37.976 60.2704 38.0074 60.5015C38.0164 60.5604 38.0299 60.6102 38.0478 60.6646C38.1106 60.8685 38.2227 61.0497 38.3931 61.1766C38.55 61.2944 38.7338 61.3578 38.9311 61.3533C39.0522 61.3487 39.1643 61.317 39.2719 61.2626C39.3302 61.24 39.3795 61.2083 39.4244 61.1675C39.5409 61.0859 39.5096 61.0905 39.3347 61.172C39.2226 61.1403 39.1105 61.1086 38.9939 61.0814C39.0118 61.0905 39.0163 61.0995 39.0298 61.1358C39.3167 61.9558 40.6171 61.6024 40.3256 60.7733C40.2001 60.4154 40.0162 60.0846 39.671 59.9079C39.4916 59.8128 39.2674 59.7856 39.0701 59.8309C38.8728 59.8762 38.7563 60.0076 38.5859 60.0892C38.698 60.0575 38.8101 60.0257 38.9266 59.9986C38.9042 59.9986 38.8773 59.9986 38.8549 59.9986C38.967 60.0303 39.0791 60.062 39.1957 60.0892C39.3167 60.3021 39.3526 60.3338 39.3033 60.1843C39.2943 60.1254 39.2854 60.0665 39.2764 60.0076C39.245 59.8898 39.1957 59.7675 39.1329 59.6678C38.967 59.405 38.6935 59.2329 38.3841 59.2374C38.0792 59.2419 37.8012 59.4186 37.6577 59.6859C37.5366 59.9125 37.5456 60.0484 37.3393 60.2206C37.716 60.4426 38.0881 60.6601 38.4648 60.8821C38.5769 60.3384 38.6845 59.7947 38.7966 59.251C38.976 58.3902 37.6801 58.0277 37.5052 58.884Z" fill="#727272"/>
<path d="M36.9851 65.8297C36.8461 66.5592 36.7564 67.2931 36.734 68.0316C36.716 68.5482 37.3169 68.8744 37.7473 68.6206C37.9446 68.5028 38.0881 68.3443 38.1957 68.1404C38.2361 68.0634 38.3527 67.8867 38.3303 67.8187C38.3258 67.8096 38.2854 67.8685 38.3034 67.8595C38.1913 67.8912 38.0792 67.9229 37.9626 67.9501C37.9536 67.9546 37.9402 67.9546 37.9312 67.9592C37.8505 67.8776 37.7698 67.796 37.6891 67.7145C37.7653 67.8142 37.7563 67.8051 37.7653 67.9093C37.8146 68.4666 38.4782 68.8381 38.9132 68.3896C38.9625 68.3352 39.0118 68.2854 39.0656 68.2355C38.9715 68.2808 38.8728 68.2718 38.7787 68.2174C38.7204 68.1177 38.6621 68.0181 38.6038 67.9184C38.6127 67.9456 38.6217 67.9727 38.6352 67.9999C38.7607 68.3443 39.0925 68.5799 39.4647 68.4757C39.792 68.385 40.0611 67.9863 39.9355 67.6375C39.5858 66.677 38.5679 66.7993 37.9626 67.4291C38.3437 67.5876 38.7293 67.7507 39.1105 67.9093C39.0567 67.2524 38.7338 66.541 37.9626 66.5909C37.6487 66.609 37.3707 66.7948 37.2048 67.0621C37.1465 67.1572 37.1061 67.266 37.0613 67.3702C37.012 67.4834 36.9268 67.5242 37.0658 67.4427C37.4021 67.6375 37.7384 67.8323 38.0792 68.0316C38.0971 67.4109 38.1644 66.7993 38.2809 66.1876C38.4468 65.3359 37.151 64.9734 36.9851 65.8297Z" fill="#727272"/>
<path d="M37.6532 73.5908C37.8057 74.198 37.9895 74.7915 38.2047 75.376C38.3796 75.8517 38.9401 76.051 39.3302 75.675C39.5006 75.5074 39.6172 75.3125 39.6755 75.0769C39.6979 74.9818 39.7158 74.8685 39.7203 74.7734C39.7338 74.4834 39.7024 74.7235 39.7293 74.7099C39.6172 74.7417 39.5051 74.7734 39.3885 74.8006C39.4199 74.8006 39.4468 74.796 39.4782 74.796C39.3661 74.7643 39.254 74.7326 39.1374 74.7054C39.0477 74.6646 39.0746 74.6239 39.1464 74.7507C39.1822 74.8141 39.2136 74.8685 39.2585 74.9274C39.3975 75.1086 39.5678 75.231 39.7965 75.2627C39.9983 75.2899 40.1911 75.24 40.3615 75.1222C40.4557 75.0543 40.5409 74.9773 40.6036 74.8776C40.6305 74.8232 40.6574 74.7688 40.6799 74.7145C40.7695 74.5378 40.6933 74.5831 40.4512 74.8549C40.3301 74.8549 40.2135 74.8549 40.0925 74.8549C40.0387 74.8096 39.9893 74.7598 39.9355 74.7145C39.9041 74.6012 39.8728 74.4879 39.8459 74.3701C39.8459 74.3973 39.8459 74.4245 39.8459 74.4517C39.8324 75.3261 41.1776 75.3261 41.191 74.4517C41.2 73.9941 40.8861 73.6362 40.4512 73.5455C40.218 73.4957 39.9849 73.5455 39.792 73.686C39.6979 73.754 39.6217 73.831 39.5589 73.9261C39.5454 73.9533 39.532 73.985 39.514 74.0122C39.3975 74.2387 39.4288 74.2342 39.6127 73.9986C39.7248 73.9669 39.8369 73.9352 39.9535 73.908C39.931 73.9125 39.9086 73.9125 39.8862 73.9171C39.9983 73.9488 40.1104 73.9805 40.227 74.0077C40.4198 74.1028 40.3212 74.0711 40.2494 73.9442C40.1956 73.8446 40.1239 73.7494 40.0431 73.6769C39.7876 73.4459 39.4513 73.387 39.1329 73.5002C38.8773 73.5908 38.6845 73.7902 38.5545 74.0213C38.4827 74.1527 38.4469 74.284 38.42 74.429C38.4065 74.4925 38.42 74.6737 38.3796 74.7145C38.7563 74.8141 39.1284 74.9138 39.5051 75.0135C39.2898 74.429 39.106 73.831 38.9535 73.2284C38.7338 72.3857 37.438 72.7436 37.6532 73.5908Z" fill="#727272"/>
<path d="M38.3303 80.0834C38.5724 80.8038 38.8818 81.497 39.2629 82.1494C39.5364 82.6161 40.1418 82.5617 40.4243 82.1494C40.5005 82.0362 40.5543 81.9184 40.5902 81.787C40.5947 81.7462 40.5991 81.71 40.6081 81.6692C40.6799 81.4064 40.6171 81.4155 40.4108 81.7009C40.2898 81.7009 40.1732 81.7009 40.0521 81.7009C39.8638 81.642 39.949 81.6556 40.0476 81.7643C40.1194 81.8413 40.209 81.9229 40.3032 81.9773C40.496 82.086 40.7247 82.1268 40.9444 82.1087C41.4466 82.0724 41.7919 81.7371 41.9578 81.2795C42.2582 80.4595 40.9579 80.1015 40.6619 80.9171C40.7471 80.6905 40.9579 80.8174 40.922 80.7087C40.8951 80.6316 40.7381 80.5274 40.6664 80.4867C40.4467 80.3598 40.1821 80.3326 39.9445 80.4142C39.7248 80.4867 39.5499 80.6543 39.4378 80.8582C39.3392 81.0394 39.3661 81.3112 39.2584 81.4653C39.6441 81.4653 40.0342 81.4653 40.4198 81.4653C40.0925 80.908 39.8279 80.3371 39.6216 79.7255C39.3526 78.9009 38.0523 79.2543 38.3303 80.0834Z" fill="#727272"/>
<path d="M40.1014 87.8355C40.1059 88.2116 40.1597 88.5876 40.2763 88.941C40.3615 89.1993 40.5633 89.3896 40.8368 89.4258C41.0834 89.4575 41.3928 89.3442 41.5049 89.0996C41.5811 88.9365 41.6574 88.7734 41.7336 88.6148C41.7695 88.5378 41.8053 88.4653 41.8367 88.3883C41.8546 88.352 41.8726 88.3112 41.8905 88.275C41.9264 88.207 41.9264 88.207 41.8905 88.275C41.7919 88.3339 41.6932 88.3928 41.5946 88.4517C41.608 88.4472 41.626 88.4381 41.6394 88.4336C41.5184 88.4336 41.4018 88.4336 41.2807 88.4336C41.2583 88.4245 41.2314 88.4109 41.209 88.4019C41.1282 88.3203 41.0475 88.2387 40.9668 88.1572C40.8996 88.0439 40.9623 88.1391 40.9892 88.2161C41.0117 88.2886 41.0386 88.3565 41.061 88.429C41.1103 88.5695 41.1596 88.7145 41.2045 88.8549C41.3211 89.2038 41.6663 89.4303 42.034 89.3307C42.3658 89.24 42.6214 88.8413 42.5048 88.4925C42.312 87.9307 42.1506 87.0064 41.3704 87.1106C40.765 87.1921 40.5633 87.9352 40.3391 88.4154C40.7471 88.4698 41.1596 88.5242 41.5677 88.5786C41.4825 88.3112 41.4421 88.0938 41.4376 87.831C41.4332 87.4776 41.1327 87.1332 40.7651 87.1514C40.4108 87.1695 40.0969 87.4549 40.1014 87.8355Z" fill="#727272"/>
<path d="M46.2803 88.66C46.2444 88.9681 46.2085 89.2807 46.1727 89.5888C46.1368 89.8788 46.4058 90.1733 46.6659 90.2458C46.9708 90.3319 47.2533 90.1823 47.4237 89.9332C47.5448 89.7565 47.6658 89.5843 47.7869 89.4076C47.8407 89.326 47.899 89.249 47.9528 89.1675C47.9752 89.1357 47.9976 89.104 48.02 89.0723C48.1187 88.9364 48.1052 88.9454 47.9842 89.0995C47.8721 89.1312 47.76 89.1629 47.6434 89.1901C47.6658 89.1901 47.6838 89.1901 47.7062 89.1901C47.5941 89.1584 47.482 89.1267 47.3654 89.0995C47.2309 88.8639 47.186 88.8186 47.2309 88.9636C47.2443 89.0179 47.2533 89.0768 47.2667 89.1312C47.2892 89.2445 47.3116 89.3532 47.3385 89.4665C47.3878 89.7021 47.4102 89.9785 47.5313 90.1914C47.6479 90.3908 47.8407 90.5629 48.0649 90.6264C48.4102 90.7215 48.6926 90.5448 48.8944 90.273C49.1141 89.9785 48.9393 89.5118 48.6523 89.3442C48.307 89.1403 47.9528 89.2943 47.7331 89.5888C47.7241 89.6024 47.7151 89.616 47.7062 89.6251C47.899 89.5118 48.0918 89.3985 48.2891 89.2898C48.2756 89.2898 48.2622 89.2943 48.2487 89.2943C48.3608 89.326 48.4729 89.3577 48.5895 89.3849C48.7061 89.4438 48.7778 89.7746 48.7106 89.4393C48.6926 89.3442 48.6702 89.2535 48.6523 89.1584C48.6164 88.9908 48.585 88.8231 48.5492 88.6555C48.4684 88.3021 48.2577 87.9577 47.89 87.8535C47.482 87.7403 47.1591 87.9759 46.9305 88.284C46.7018 88.5966 46.4865 88.9183 46.2668 89.2354C46.6838 89.3487 47.1008 89.462 47.5223 89.5798C47.5582 89.2717 47.5941 88.959 47.6299 88.651C47.6703 88.284 47.2892 87.9713 46.9574 87.9713C46.5583 87.9804 46.3251 88.2976 46.2803 88.66Z" fill="#727272"/>
<path d="M46.926 76.2503C46.7601 76.9753 46.6794 77.7183 46.6928 78.4613C46.7018 79.1002 47.6344 79.4309 47.9483 78.8057C48.0828 78.5338 48.2174 78.2665 48.3519 77.9947C48.4505 77.7953 48.5223 77.5461 48.7016 77.4057C48.603 77.4646 48.5043 77.5235 48.4057 77.5824C48.4057 77.5778 48.4057 77.5733 48.4102 77.5688C48.1949 77.4012 47.9797 77.238 47.76 77.0704C47.8452 77.3921 47.9304 77.7138 48.0156 78.0355C48.1232 78.4387 48.6389 78.6833 49.0021 78.4432C49.0648 78.4024 49.1276 78.3571 49.1904 78.3164C49.9078 77.8361 49.2352 76.6581 48.5133 77.1429C48.4505 77.1837 48.3878 77.229 48.325 77.2698C48.6523 77.4057 48.9841 77.5416 49.3114 77.6775C49.2262 77.3558 49.1411 77.0342 49.0559 76.7125C48.9796 76.427 48.7016 76.2096 48.4057 76.2141C47.4596 76.2322 47.1367 77.4193 46.787 78.1261C47.204 78.2393 47.621 78.3526 48.0425 78.4704C48.0335 77.8406 48.0873 77.2335 48.2263 76.6173C48.4147 75.761 47.1188 75.3986 46.926 76.2503Z" fill="#727272"/>
<path d="M45.6436 66.0833C45.675 66.6179 45.7019 67.148 45.7332 67.6827C45.7691 68.3532 46.6211 68.6115 46.9887 68.027C47.2488 67.6102 47.5089 67.1979 47.769 66.781C47.3833 66.781 46.9932 66.781 46.6076 66.781C46.7018 66.9442 46.7601 67.0937 46.769 67.284C46.8004 67.882 47.4775 68.1675 47.9169 67.7642C48.2577 67.4561 48.4774 67.0846 48.6433 66.6542C48.316 66.7901 47.9842 66.926 47.6569 67.062C47.6569 67.071 47.6569 67.0801 47.6524 67.0846C47.5941 66.9849 47.5358 66.8853 47.4775 66.7856C47.491 66.8128 47.4999 66.8445 47.5134 66.8717C47.6524 67.2115 47.9573 67.4516 48.3429 67.3474C48.6568 67.2613 48.9527 66.8535 48.8137 66.5092C48.6971 66.2328 48.5761 66.0652 48.3339 65.884C47.9528 65.5985 47.4865 65.9247 47.3475 66.2917C47.2668 66.5001 47.1278 66.6542 46.9663 66.8037C47.3475 66.9623 47.7331 67.1254 48.1142 67.284C48.0918 66.8581 47.9842 66.4639 47.769 66.0969C47.5044 65.6484 46.8767 65.6665 46.6076 66.0969C46.3475 66.5137 46.0875 66.926 45.8274 67.3429C46.2444 67.4561 46.6614 67.5694 47.0829 67.6872C47.0515 67.1526 47.0246 66.6225 46.9932 66.0878C46.9394 65.2134 45.5942 65.2089 45.6436 66.0833Z" fill="#727272"/>
<path d="M46.0068 57.0989C45.9664 57.4432 45.9485 57.7876 45.9575 58.1319C45.9709 58.6031 46.5359 59.0381 46.9708 58.7209C47.195 58.5578 47.334 58.372 47.4103 58.1047C47.4282 58.0413 47.4461 57.9688 47.4551 57.9054C47.4641 57.8465 47.4999 57.8419 47.4506 57.8873C47.2175 58.1047 46.9708 58.4174 46.5987 57.9643C46.639 58.0141 46.6256 58.0096 46.5987 57.9507C46.6301 58.0186 46.6525 58.0957 46.6839 58.1636C46.7377 58.2814 46.8184 58.3856 46.9081 58.4763C47.1861 58.7526 47.5986 58.807 47.9349 58.6122C48.2532 58.4309 48.3564 57.996 48.177 57.6834C47.9887 57.3617 47.5762 57.2575 47.2578 57.4387C47.2444 57.4478 47.2264 57.4568 47.213 57.4659C47.3251 57.4342 47.4372 57.4025 47.5537 57.3753C47.5896 57.3708 47.9125 57.552 47.8856 57.561C47.9035 57.5973 47.9035 57.5973 47.89 57.5656C47.8766 57.5293 47.8631 57.4931 47.8452 57.4568C47.7914 57.3254 47.7286 57.2031 47.63 57.0944C47.4103 56.8633 47.0695 56.75 46.7601 56.8497C46.4686 56.9403 46.2758 57.1759 46.1817 57.4614C46.1592 57.5248 46.1503 57.5882 46.1323 57.6562C46.1234 57.6879 46.1144 57.7151 46.1099 57.7468C46.092 57.8057 46.092 57.8057 46.1144 57.7468C46.1413 57.6607 46.1996 57.5928 46.2893 57.5475C46.6256 57.7423 46.9619 57.9371 47.3026 58.1364C47.2937 57.7921 47.3116 57.4478 47.352 57.1034C47.3968 56.75 47.0112 56.4102 46.6794 56.4238C46.2803 56.4419 46.0561 56.7229 46.0068 57.0989Z" fill="#727272"/>
<path d="M45.5942 50.1306C45.4687 50.6289 45.5315 51.1409 45.796 51.5804C46.1099 52.115 46.8318 51.9519 47.0246 51.4173C47.0964 51.2179 46.9887 51.5396 47.056 51.3357C47.0829 51.2587 47.1053 51.295 47.0381 51.3267C46.8318 51.4354 46.5538 51.3629 46.491 51.0911C46.5762 51.449 46.9753 51.662 47.3206 51.5668C47.6793 51.4671 47.8766 51.0911 47.7914 50.7286C47.6703 50.2121 47.1143 49.9357 46.6166 50.0535C46.1278 50.1759 45.8902 50.6063 45.7288 51.0503C46.1368 50.9959 46.5493 50.9416 46.9574 50.8872C46.8901 50.7694 46.8811 50.7785 46.8677 50.638C46.8766 50.7105 46.8722 50.6199 46.8722 50.5972C46.8811 50.3979 46.8453 50.6788 46.8901 50.484C46.9753 50.1396 46.778 49.7319 46.4193 49.6458C46.074 49.5733 45.6884 49.759 45.5942 50.1306Z" fill="#727272"/>
<path d="M26.3671 48.5268C26.1698 48.7896 25.9905 49.0659 25.8335 49.3559C25.569 49.8316 26.0174 50.5747 26.5913 50.3527C26.7976 50.2756 26.9994 50.1941 27.2056 50.1171C26.9321 49.9585 26.6541 49.7999 26.3761 49.6413C26.412 49.7455 26.4299 49.8135 26.4254 49.9177C26.4209 50.262 26.7393 50.629 27.098 50.5973C27.4343 50.5701 27.7213 50.4886 28.0217 50.3436C28.349 50.185 28.4342 49.7093 28.2638 49.4148C28.0665 49.075 27.6719 49.0116 27.3446 49.1701C27.2774 49.2019 27.1518 49.2336 27.098 49.2381C27.3222 49.4646 27.5464 49.6912 27.7706 49.9177C27.7751 49.7002 27.7437 49.4828 27.6719 49.2789C27.5599 48.9572 27.2056 48.6672 26.8424 48.8031C26.6362 48.8802 26.4344 48.9617 26.2281 49.0387C26.4792 49.3695 26.7348 49.7048 26.9859 50.0355C27.1473 49.7455 27.3222 49.4692 27.5195 49.2064C27.7392 48.9119 27.5643 48.4452 27.2774 48.2776C26.9411 48.0828 26.5868 48.2323 26.3671 48.5268Z" fill="#727272"/>
<path d="M22.5603 56.1566C22.3047 56.7229 22.085 57.3028 21.9056 57.9009C21.7935 58.2724 22.0401 58.6168 22.3764 58.7391C22.6634 58.8433 22.9728 58.7799 23.2239 58.6168C23.3315 58.5443 23.4032 58.4718 23.484 58.3766C23.7933 58.0051 23.3674 58.4854 23.1163 58.1727C23.058 58.0731 22.9997 57.9734 22.9414 57.8737C22.9055 57.7468 22.9324 58.0096 22.9324 58.0051C22.9459 58.1093 22.9728 58.218 23.0266 58.3132C23.1297 58.4899 23.318 58.6349 23.5109 58.6892C23.8741 58.7889 24.3404 58.6485 24.4973 58.2769C24.6408 57.9417 24.596 57.5475 24.2552 57.3481C23.9727 57.1805 23.4795 57.253 23.336 57.5928C23.3494 57.5747 23.3629 57.5566 23.3808 57.543C23.4795 57.4841 23.5781 57.4252 23.6768 57.3663C23.8113 57.407 23.9458 57.4478 24.0803 57.4886C24.1386 57.5883 24.1969 57.6879 24.2552 57.7876C24.2911 57.9145 24.2642 57.6019 24.2552 57.5701C24.2193 57.4342 24.1565 57.3119 24.0669 57.2122C23.901 57.0355 23.6857 56.9313 23.4436 56.9177C23.2239 56.9087 23.0221 56.9721 22.8427 57.099C22.7576 57.1579 22.6858 57.2258 22.6186 57.3074C22.3405 57.6336 22.5334 57.3572 22.7396 57.4297C22.8966 57.7106 23.0535 57.987 23.2104 58.2679C23.3539 57.7831 23.5243 57.3119 23.7306 56.8498C23.8785 56.5145 23.8247 56.1203 23.4884 55.921C23.1925 55.7443 22.7082 55.8213 22.5603 56.1566Z" fill="#727272"/>
<path d="M21.0716 64.1714C20.9281 64.9507 20.9281 65.7073 21.0805 66.4866C21.1568 66.8717 21.5693 67.0167 21.9101 66.9623C22.1074 66.9306 22.2912 66.8173 22.4302 66.6678C22.4885 66.6044 22.5423 66.5274 22.5916 66.4549C22.6185 66.4141 22.641 66.3733 22.6634 66.328C22.7037 66.2646 22.6903 66.2691 22.6141 66.3326C22.493 66.3326 22.3764 66.3326 22.2553 66.3326C22.2867 66.3416 22.3181 66.3507 22.3495 66.3597C22.2509 66.3008 22.1522 66.2419 22.0536 66.183C22.0042 66.0788 21.9998 66.0834 22.0446 66.1966C22.067 66.251 22.0894 66.3054 22.1119 66.3597C22.1836 66.4957 22.2822 66.6044 22.4078 66.6859C22.7082 66.8898 22.9817 66.8762 23.3046 66.7267C23.6364 66.5772 23.7171 66.0879 23.5467 65.7979C23.3494 65.4536 22.9593 65.4037 22.6275 65.5533C22.6051 65.5623 22.5782 65.5759 22.5558 65.585C22.7306 65.5623 22.901 65.5397 23.0759 65.517C23.049 65.508 23.0221 65.5034 22.9952 65.4944C23.0938 65.5533 23.1925 65.6122 23.2911 65.6711C23.318 65.7617 23.318 65.7707 23.2956 65.7028C23.2732 65.6303 23.2463 65.5623 23.2149 65.4989C23.1745 65.4219 23.1297 65.3449 23.0669 65.2814C22.8786 65.0775 22.6185 64.9824 22.345 65.0096C22.1074 65.0322 21.8966 65.15 21.7307 65.3222C21.65 65.4038 21.5827 65.4989 21.5245 65.5986C21.511 65.6258 21.4931 65.6529 21.4796 65.6801C21.3944 65.807 21.4168 65.7934 21.5514 65.6439C21.8249 65.8025 22.1029 65.961 22.3809 66.1196C22.2778 65.594 22.2733 65.0549 22.3719 64.5293C22.4392 64.1669 22.2733 63.7953 21.9011 63.6911C21.5693 63.605 21.1388 63.8089 21.0716 64.1714Z" fill="#727272"/>
<path d="M22.0311 73.9804C22.2195 74.361 22.4033 74.7416 22.5916 75.1222C22.7575 75.4574 23.2104 75.5345 23.5108 75.3668C23.753 75.2309 23.9189 75.0134 23.9951 74.7416C24.031 74.6193 24.0534 74.4652 24.04 74.3384C24.0265 74.1934 24.0893 74.2341 24.013 74.3021C23.9144 74.361 23.8158 74.4199 23.7171 74.4788C23.7081 74.4833 23.6992 74.4833 23.6902 74.4879C23.5781 74.4561 23.466 74.4244 23.3494 74.3973C23.5826 74.5332 23.6947 74.7506 24.0355 74.7506C24.439 74.7506 24.5287 74.5105 24.7708 74.2704C24.6722 74.3293 24.5735 74.3882 24.4749 74.4471C24.3449 74.3655 24.2148 74.284 24.0848 74.1979C24.1386 74.5604 24.5915 74.7597 24.9143 74.6736C25.2999 74.5649 25.4389 74.2024 25.3851 73.8354C25.3224 73.4277 24.9412 73.1241 24.5466 73.0833C24.0848 73.038 23.7844 73.2918 23.5647 73.6723C23.6454 73.5908 23.7261 73.5092 23.8068 73.4277C23.7844 73.4458 23.7575 73.4639 23.735 73.482C23.8471 73.4503 23.9592 73.4186 24.0758 73.3914C24.0534 73.3914 24.0265 73.3914 24.0041 73.3914C24.1162 73.4231 24.2283 73.4549 24.3449 73.482C24.2641 73.4367 24.0534 73.2057 23.874 73.1558C23.6185 73.0833 23.3494 73.1377 23.1387 73.2963C22.9504 73.4367 22.8203 73.6451 22.7531 73.8672C22.7082 74.0076 22.7575 74.293 22.6858 74.3927C22.7665 74.3112 22.8472 74.2296 22.9279 74.1481C22.901 74.1617 22.8741 74.1798 22.8427 74.1934C23.1476 74.2749 23.457 74.3565 23.7619 74.438C23.5736 74.0574 23.3898 73.6769 23.2015 73.2963C22.8069 72.5079 21.6455 73.1966 22.0311 73.9804Z" fill="#727272"/>
<path d="M26.1833 84.0749C26.1609 84.6594 26.7617 84.9901 27.2684 84.8315C27.5105 84.7545 27.6854 84.5824 27.802 84.3649C27.8199 84.3286 27.8379 84.2879 27.8558 84.2516C27.9544 84.093 27.8558 84.1383 27.5509 84.3966C27.4119 84.3785 27.4747 84.3785 27.5733 84.4328C27.8917 84.6095 28.3087 84.5099 28.4925 84.1882C28.6719 83.8756 28.5687 83.4361 28.2504 83.2594C27.9186 83.0736 27.5419 82.9649 27.1742 83.1189C26.9859 83.2005 26.829 83.3364 26.7214 83.5176C26.69 83.5675 26.6586 83.6264 26.6406 83.6853C26.6317 83.7034 26.6227 83.7215 26.6137 83.7396C26.8469 83.4769 27.089 83.4542 27.3446 83.6717C27.4029 83.7714 27.4612 83.871 27.5195 83.9707C27.524 84.0069 27.5285 84.0432 27.533 84.0794C27.5464 83.7215 27.2146 83.3817 26.8604 83.3998C26.4792 83.4134 26.1967 83.6943 26.1833 84.0749Z" fill="#727272"/>
<path d="M51.0378 50.407C51.1185 50.8148 51.2575 51.1954 51.4324 51.5714C51.5983 51.9203 52.0511 51.9656 52.3516 51.8161C52.5219 51.73 52.6609 51.5759 52.7506 51.4083C52.7775 51.3585 52.7955 51.3041 52.8224 51.2497C52.9659 50.9371 52.8179 51.4083 52.4726 51.3721C52.3605 51.3404 52.2484 51.3086 52.1318 51.2815C52.0556 51.2452 52.2439 51.3675 52.2439 51.3675C52.3157 51.4219 52.365 51.4536 52.4502 51.4899C52.6251 51.5669 52.8044 51.5805 52.9928 51.5533C53.3963 51.4853 53.634 51.2226 53.7864 50.8556C53.9254 50.5158 53.634 50.108 53.3156 50.0174C52.93 49.9086 52.6296 50.1533 52.4861 50.4931C52.643 50.1986 52.8403 50.1352 53.0735 50.3028C53.0555 50.2847 53.0376 50.2666 53.0152 50.253C52.93 50.1669 52.7686 50.0763 52.652 50.0446C52.4368 49.9857 52.2036 50.0219 52.0153 50.1352C51.8583 50.2303 51.7462 50.3798 51.67 50.5429C51.6521 50.5837 51.6296 50.629 51.6117 50.6743C51.5624 50.8193 51.5893 50.6834 51.67 50.6471C51.9749 50.7287 52.2843 50.8103 52.5892 50.8918C52.4637 50.6245 52.3874 50.3436 52.3291 50.0536C52.2619 49.6912 51.8314 49.4873 51.4996 49.5779C51.1364 49.673 50.9705 50.0446 51.0378 50.407Z" fill="#727272"/>
<path d="M52.5982 58.1862C52.6834 58.6166 52.773 59.0471 52.8582 59.4775C53.0017 60.1888 53.9478 60.0574 54.1541 59.4775C54.2214 59.2827 54.3379 59.1558 54.4859 59.0199C54.1317 58.9746 53.7819 58.9293 53.4277 58.884C53.5443 59.1558 53.6653 59.4322 53.7819 59.704C53.9164 60.0166 54.4366 60.1526 54.7011 59.9487C54.8626 59.8264 54.9926 59.7176 55.0957 59.5364C55.1316 59.473 55.1719 59.3959 55.1944 59.3234C55.2033 59.2917 55.2168 59.26 55.2347 59.2328C55.3423 59.0335 55.1361 58.97 54.6115 59.0425C54.5621 59.405 54.9567 59.7221 55.284 59.7221C55.6876 59.7221 55.9073 59.4095 55.9566 59.0425C56.0329 58.4762 55.5082 57.9642 54.9657 57.9642C54.6922 57.9642 54.4455 58.0865 54.2617 58.2814C54.1765 58.372 54.1182 58.4717 54.0599 58.5804C54.0241 58.6529 53.8851 58.8794 54.0241 58.7752C54.329 58.8568 54.6384 58.9383 54.9433 59.0199C54.8267 58.748 54.7056 58.4717 54.589 58.1998C54.4052 57.7739 53.8178 57.8011 53.5308 58.0639C53.208 58.3584 53.0017 58.7118 52.8538 59.1196C53.2842 59.1196 53.7192 59.1196 54.1496 59.1196C54.0644 58.6891 53.9747 58.2587 53.8895 57.8283C53.7236 56.9675 52.4233 57.3299 52.5982 58.1862Z" fill="#727272"/>
<path d="M53.7774 68.5798C53.7371 68.9196 53.7774 69.2685 53.8671 69.5947C53.9792 69.9889 54.4904 70.2562 54.8536 70.0025C55.0912 69.8348 55.2347 69.6536 55.3379 69.3818C55.3648 69.3138 55.3872 69.2413 55.4096 69.1688C55.45 69.0238 55.4096 69.2187 55.293 69.2368C55.172 69.2368 55.0554 69.2368 54.9343 69.2368C54.8222 69.1915 54.7505 69.1235 54.7325 69.0238C54.7191 68.9785 54.7236 68.9921 54.7505 69.0646C54.7639 69.1054 54.7774 69.1507 54.7908 69.1915C54.867 69.3999 54.9747 69.5675 55.145 69.708C55.5127 70.007 55.9297 69.9572 56.2885 69.6763C56.5754 69.4497 56.5216 68.9514 56.2885 68.7158C56.006 68.4303 55.6248 68.4892 55.3379 68.7158C55.3244 68.7293 55.3065 68.7384 55.293 68.752C55.3917 68.6931 55.4903 68.6342 55.589 68.5753C55.571 68.5798 55.5531 68.5844 55.5352 68.5889C55.6562 68.5889 55.7728 68.5889 55.8939 68.5889C55.9746 68.6025 56.0912 68.8517 56.0418 68.7022C56.006 68.5844 55.9611 68.462 55.8983 68.3578C55.71 68.0497 55.3782 67.873 55.024 67.9093C54.7101 67.941 54.4545 68.1404 54.2841 68.4031C54.2124 68.5164 54.1631 68.6433 54.1227 68.7701C54.1093 68.8109 54.0824 68.8698 54.0779 68.9106C54.0734 68.9695 54.0644 68.897 54.1765 68.82C54.5038 68.9559 54.8357 69.0918 55.163 69.2277C55.1002 69.0057 55.0912 68.8064 55.1181 68.5753C55.1585 68.2083 54.7774 67.8957 54.4456 67.8957C54.0554 67.9002 53.8223 68.2128 53.7774 68.5798Z" fill="#727272"/>
<path d="M53.4053 76.5811C53.3694 77.0251 53.4053 77.4601 53.4725 77.8995C53.5532 78.4115 54.2752 78.5429 54.598 78.1986C54.7146 78.0762 54.8356 77.9539 54.9612 77.8406C55.0733 77.741 55.1899 77.6413 55.2796 77.5779C54.9522 77.4419 54.6204 77.306 54.2931 77.1701C54.3334 77.2879 54.3334 77.152 54.32 77.2788C54.329 77.1837 54.2662 77.3649 54.311 77.2879C54.1362 77.6096 54.2348 78.0309 54.5532 78.2167C54.8626 78.3979 55.2975 78.2982 55.4724 77.972C55.6652 77.6141 55.728 77.1973 55.5934 76.8076C55.4634 76.4361 54.9791 76.1235 54.607 76.3999C54.2662 76.6536 53.9478 76.9254 53.6564 77.2335C54.033 77.3332 54.4052 77.4329 54.7818 77.5325C54.737 77.2381 54.737 76.8937 54.7594 76.572C54.7863 76.2186 54.4321 75.8788 54.0868 75.8924C53.6922 75.9196 53.4367 76.2005 53.4053 76.5811Z" fill="#727272"/>
<path d="M52.9748 85.4569C52.7327 85.8692 52.5488 86.3222 52.4457 86.7934C52.365 87.1514 52.5533 87.5274 52.9165 87.6316C53.2932 87.7358 53.616 87.5048 53.746 87.1559C53.7864 87.0426 53.9209 86.798 53.9927 86.7028C53.6743 86.7028 53.3604 86.7028 53.0421 86.7028C52.9614 86.6031 52.9389 86.4944 52.9703 86.3675C52.912 86.73 53.0645 87.097 53.4411 87.2057C53.764 87.2963 54.2079 87.097 54.2707 86.73C54.3334 86.3539 54.2662 86.0232 53.9971 85.7423C53.764 85.4976 53.2707 85.4569 53.0466 85.7423C52.7865 86.0685 52.5982 86.3993 52.4502 86.7934C52.8806 86.9158 53.3156 87.0336 53.746 87.1559C53.8312 86.7753 53.9433 86.4763 54.1406 86.1455C54.3245 85.8284 54.2124 85.398 53.8985 85.2167C53.5801 85.0264 53.1631 85.1397 52.9748 85.4569Z" fill="#727272"/>
<path d="M57.8982 88.1708C57.6202 88.5378 57.4902 88.9908 57.4677 89.4484C57.4543 89.7158 57.6471 89.974 57.8803 90.0692C58.1448 90.1779 58.4004 90.1145 58.6156 89.9287C58.9474 89.6433 59.2792 89.3533 59.6111 89.0679C59.2568 89.0225 58.9071 88.9772 58.5528 88.9319C58.5259 88.8912 58.5394 88.8323 58.5439 88.787C58.5484 88.7552 58.6201 88.6465 58.5484 88.7598C58.3556 89.0724 58.4811 89.5073 58.7905 89.6886C59.1133 89.8789 59.5169 89.7565 59.7097 89.4439C59.9384 89.0769 59.9339 88.6103 59.7142 88.2387C59.4765 87.84 58.9878 87.8174 58.656 88.1028C58.3242 88.3882 57.9924 88.6782 57.6605 88.9637C58.0417 89.1222 58.4273 89.2853 58.8084 89.4439C58.8174 89.24 58.7726 89.5345 58.8174 89.3397C58.8353 89.2717 58.8533 89.1993 58.8757 89.1313C58.8398 89.2264 58.9295 89.0361 58.9295 89.0316C58.9654 88.9682 59.0057 88.9093 59.0506 88.8549C59.2703 88.5604 59.0954 88.0937 58.8084 87.9261C58.4721 87.7222 58.1224 87.8763 57.8982 88.1708Z" fill="#727272"/>
<path d="M60.3823 79.2724C60.2881 79.7889 60.2343 80.3099 60.2298 80.84C60.2209 81.506 61.158 81.7779 61.4853 81.1843C61.6871 80.8128 61.9248 80.4911 62.2207 80.1921C61.9472 80.2284 61.6781 80.2646 61.4046 80.2963C61.3912 80.2873 61.3732 80.2737 61.3598 80.2646C61.3015 80.1649 61.2432 80.0652 61.1849 79.9656C61.1715 79.9248 61.2163 79.7979 61.1715 79.9429C61.1401 80.0335 61.1221 80.1785 61.1177 80.2646C61.1087 80.4821 61.1715 80.695 61.297 80.8717C61.4405 81.0665 61.6781 81.1979 61.9248 81.1979C62.0593 81.1979 62.2162 81.1572 62.3328 81.0937C62.3552 81.0801 62.3732 81.0711 62.3956 81.0575C62.5032 80.9895 62.4718 80.985 62.3014 81.0439C62.1893 81.0122 62.0772 80.9805 61.9606 80.9533C61.7813 80.8627 61.7678 80.7585 61.7858 80.6271C61.7364 80.9895 61.8754 81.3565 62.2566 81.4652C62.5704 81.5513 63.0323 81.3565 63.0861 80.9895C63.1399 80.5999 63.122 80.2057 62.826 79.9112C62.6781 79.7662 62.4539 79.6801 62.2476 79.6847C62.1131 79.6892 61.9561 79.7345 61.8396 79.7979C61.8082 79.8161 61.6602 79.8795 61.7454 79.8614C61.8665 79.8614 61.9831 79.8614 62.1041 79.8614C62.0862 79.8568 62.0638 79.8478 62.0458 79.8432C62.1445 79.9021 62.2431 79.961 62.3418 80.0199C62.3866 80.396 62.427 80.4911 62.4673 80.3054C62.4853 80.2601 62.4942 80.2148 62.5032 80.1649C62.5256 80.0607 62.5346 79.952 62.5256 79.8432C62.5077 79.5442 62.3552 79.2588 62.0817 79.1274C61.8127 78.9915 61.4898 79.0096 61.2656 79.2316C60.8935 79.6076 60.5751 80.0335 60.3195 80.4957C60.7365 80.6089 61.1535 80.7222 61.575 80.84C61.5795 80.4368 61.6109 80.0335 61.6826 79.6348C61.7454 79.2724 61.584 78.9008 61.2118 78.7966C60.88 78.706 60.4451 78.9099 60.3823 79.2724Z" fill="#727272"/>
<path d="M61.288 69.9164C61.0952 70.3831 61.0907 70.9132 61.2387 71.3935C61.445 72.0549 62.3148 72.0232 62.5346 71.3935C62.6467 71.0672 62.8484 70.809 63.104 70.5825C62.7229 70.4239 62.3373 70.2608 61.9561 70.1022C61.9696 70.3333 61.9875 70.5643 62.001 70.7909C62.0279 71.1896 62.2879 71.4252 62.6736 71.4705C62.8888 71.4977 63.0861 71.4252 63.2654 71.3074C63.3417 71.2575 63.4089 71.1986 63.4672 71.1307C63.4896 71.099 63.5165 71.0718 63.539 71.0446C63.6197 70.9585 63.5524 70.9766 63.3327 71.099C63.2206 71.0672 63.1085 71.0355 62.9919 71.0083C62.956 70.9676 62.9157 70.9268 62.8798 70.886C62.8484 70.7727 62.817 70.6595 62.7901 70.5417C62.7901 70.5598 62.7901 70.5779 62.7946 70.596C62.826 70.4828 62.8574 70.3695 62.8843 70.2517C62.8753 70.2653 62.8664 70.2834 62.8574 70.297C62.4 71.0446 63.5659 71.7287 64.0187 70.9812C64.2878 70.5417 64.0636 69.9708 63.5928 69.7986C63.3461 69.708 63.095 69.7261 62.8664 69.853C62.7722 69.9028 62.6915 69.9753 62.6153 70.0524C62.5973 70.0705 62.5839 70.0931 62.5659 70.1113C62.4763 70.2019 62.5121 70.2019 62.6736 70.1113C62.8978 70.3378 63.122 70.5643 63.3461 70.7909C63.3327 70.5598 63.3148 70.3287 63.3013 70.1022C63.261 69.4996 62.6018 69.2232 62.1534 69.6219C61.723 70.007 61.427 70.4873 61.2387 71.031C61.6692 71.031 62.1041 71.031 62.5346 71.031C62.4494 70.7546 62.4763 70.5417 62.5839 70.2789C62.7229 69.9391 62.4314 69.5313 62.1131 69.4407C61.7274 69.332 61.427 69.5766 61.288 69.9164Z" fill="#727272"/>
<path d="M60.7276 58.005C60.7634 58.3856 60.8038 58.7707 60.8397 59.1513C60.871 59.4865 61.0683 59.7765 61.4226 59.8173C61.7454 59.8581 62.0772 59.6632 62.1624 59.3325C62.2342 59.0425 62.3328 58.7797 62.4763 58.5215C62.0907 58.5215 61.7006 58.5215 61.315 58.5215C61.3822 58.6484 61.4495 58.7752 61.5123 58.8975C61.7589 59.3642 62.4135 59.3098 62.6736 58.8975C62.696 58.8613 62.7274 58.8296 62.7274 58.816C62.7991 58.7526 62.7498 58.7571 62.5884 58.8296C62.5167 58.8704 62.4449 58.8794 62.3732 58.8658C62.2925 58.7843 62.2118 58.7027 62.131 58.6212C62.1266 58.603 62.1221 58.5849 62.1176 58.5668C62.3777 59.3959 63.678 59.0425 63.4135 58.2043C63.2789 57.7785 62.9112 57.5111 62.4629 57.5247C62.0279 57.5383 61.723 57.8645 61.5078 58.2089C61.8934 58.2089 62.2835 58.2089 62.6691 58.2089C62.6019 58.082 62.5346 57.9552 62.4718 57.8328C62.2387 57.3888 61.5481 57.3933 61.3105 57.8328C61.1177 58.1908 60.9652 58.5713 60.8621 58.97C61.3015 59.0289 61.7409 59.0924 62.1848 59.1513C62.149 58.7707 62.1086 58.3856 62.0727 58.005C62.0369 57.638 61.7903 57.3254 61.4002 57.3254C61.0639 57.3254 60.6917 57.638 60.7276 58.005Z" fill="#727272"/>
<path d="M57.396 50.407C57.5664 50.8419 57.7771 51.2044 58.0731 51.5668C58.4138 51.9837 59.055 51.7118 59.1985 51.2678C59.3017 50.9416 59.3465 50.5882 59.3151 50.2484C58.8981 50.3617 58.4811 50.4749 58.0596 50.5927C58.1896 50.8465 58.3735 51.0775 58.5932 51.2587C58.8757 51.4898 59.2703 51.5351 59.5438 51.2587C59.7814 51.0186 59.8263 50.5293 59.5438 50.2982C59.4631 50.2348 59.3869 50.1623 59.3241 50.0853C59.2568 49.9992 59.3644 50.1532 59.3061 50.0581C59.2748 50.0083 59.2478 49.9584 59.2209 49.9086C59.0819 49.6367 58.7367 49.5144 58.4587 49.5914C58.1941 49.6639 57.9385 49.9539 57.9654 50.2484C57.9923 50.5338 57.9834 50.6471 57.8982 50.9054C58.2748 50.8057 58.647 50.706 59.0237 50.6063C58.9654 50.5384 58.9071 50.4523 58.8398 50.3345C58.8084 50.2801 58.777 50.2212 58.7456 50.1668C58.7367 50.1532 58.6649 49.9811 58.6874 50.049C58.5528 49.7092 58.239 49.4691 57.8578 49.5733C57.544 49.6594 57.2615 50.0626 57.396 50.407Z" fill="#727272"/>
<path d="M64.1891 49.8814C64.2429 50.1669 64.3506 50.4433 64.4985 50.697C64.651 50.9552 64.9693 51.0911 65.2563 51.0096C65.5612 50.9235 65.7226 50.6562 65.7495 50.3526C65.7809 50.0355 65.8123 49.7138 65.8437 49.3966C65.5074 49.5915 65.1711 49.7863 64.8303 49.9856C65.0366 50.1397 65.2429 50.2983 65.4491 50.4523C65.7406 50.6698 66.2024 50.5021 66.3683 50.2077C66.5701 49.8633 66.4177 49.4963 66.1262 49.2788C65.9199 49.1248 65.7137 48.9662 65.5074 48.8122C65.3191 48.6717 65.0187 48.6989 64.8303 48.8122C64.6106 48.9436 64.5209 49.152 64.4985 49.4012C64.4671 49.7183 64.4358 50.04 64.4044 50.3572C64.8214 50.2439 65.2384 50.1306 65.6599 50.0128C65.5523 49.8316 65.5254 49.7455 65.485 49.5235C65.4177 49.1611 64.9873 48.9572 64.6555 49.0478C64.2878 49.1475 64.1264 49.519 64.1891 49.8814Z" fill="#727272"/>
<path d="M67.1754 58.0367C67.2382 58.4128 67.3279 58.7753 67.449 59.1377C67.588 59.5681 68.0364 59.7494 68.4354 59.5455C68.682 59.4186 68.839 59.183 68.9018 58.9157C68.9331 58.7934 68.9376 58.662 68.9466 58.5306C68.9466 58.4853 68.9511 58.44 68.9556 58.3947C68.9466 58.585 68.821 58.7073 68.5744 58.7707C68.4623 58.739 68.3502 58.7073 68.2337 58.6801C68.7628 58.9429 69.1753 59.1196 69.7806 58.9837C70.6236 58.7934 70.2694 57.4795 69.4219 57.6743C69.2112 57.7241 69.0901 57.5973 68.9107 57.5067C68.5969 57.3526 68.2381 57.3753 67.9646 57.5927C67.7584 57.7558 67.6642 57.9824 67.6283 58.2406C67.6149 58.3403 67.6104 58.4355 67.6014 58.5351C67.5925 58.6212 67.5969 58.6257 67.6059 58.5578C67.5611 58.7118 67.6104 58.6484 67.7584 58.3766C68.0857 58.5125 68.4175 58.6484 68.7448 58.7843C68.6282 58.4219 68.5386 58.0594 68.4713 57.6833C68.4085 57.3209 67.9691 57.117 67.6418 57.2076C67.2651 57.3028 67.1127 57.6743 67.1754 58.0367Z" fill="#727272"/>
<path d="M68.7403 67.8685C68.6955 68.2128 68.6462 68.5572 68.6013 68.9015C68.561 69.205 68.6282 69.5041 68.9107 69.6672C69.1439 69.8076 69.5474 69.794 69.7268 69.563C69.8254 69.4316 69.9241 69.3228 70.081 69.2685C69.7985 69.051 69.5116 68.8335 69.2291 68.6115C69.238 68.8834 69.2425 69.1552 69.2515 69.4271C69.265 69.8801 69.6685 70.1882 70.1034 70.084C70.3187 70.0342 70.498 69.9254 70.6684 69.7895L70.8343 69.6581C70.8209 69.64 70.6057 69.6536 70.5563 69.5992C70.498 69.4995 70.4397 69.3999 70.3815 69.3002C70.3904 69.3228 70.3949 69.3455 70.4039 69.3682C70.6864 70.1882 71.9867 69.8348 71.6997 69.0057C71.5428 68.5572 71.1841 68.3034 70.7088 68.317C70.516 68.3216 70.3142 68.385 70.1483 68.4847C70.0138 68.5662 69.8882 68.7339 69.7358 68.7701C70.0183 68.9876 70.3052 69.205 70.5877 69.4271C70.5787 69.1552 70.5743 68.8834 70.5653 68.6115C70.5563 68.1947 70.1393 67.8096 69.7133 67.9546C69.3412 68.086 69.0094 68.2853 68.7672 68.6025C69.1439 68.8245 69.5161 69.0419 69.8927 69.2639C69.9375 68.9196 69.9869 68.5753 70.0317 68.2309C70.081 67.8685 69.9465 67.5015 69.5609 67.3928C69.256 67.3067 68.7897 67.5015 68.7403 67.8685Z" fill="#727272"/>
<path d="M66.8078 79.1228C66.7136 79.5079 66.6194 79.893 66.5298 80.2781C66.4446 80.6315 66.6374 81.0212 67.0006 81.1163C67.3234 81.2024 67.6328 81.139 67.8974 80.926C68.1081 80.7538 68.1843 80.4865 68.3771 80.3189C68.2785 80.3778 68.1798 80.4367 68.0812 80.4956C68.1126 80.482 68.144 80.4684 68.1798 80.4548C68.0588 80.4548 67.9422 80.4548 67.8211 80.4548C67.8525 80.4593 67.8839 80.4684 67.9198 80.4729C67.7853 80.3687 67.6507 80.2645 67.5162 80.1603C67.5072 80.1059 67.5117 80.1195 67.5252 80.2101C67.5566 80.2872 67.588 80.3642 67.6238 80.4412C67.7135 80.5907 67.8525 80.6949 68.005 80.7629C68.1664 80.8354 68.3457 80.8445 68.5206 80.8082C68.5789 80.8037 68.6372 80.7856 68.691 80.7629C68.9556 80.6768 68.9018 80.6496 68.5296 80.6859C68.4489 80.6043 68.3682 80.5228 68.2875 80.4412C68.2964 80.4548 68.3099 80.4729 68.3188 80.4865C68.2875 80.3733 68.2561 80.26 68.2292 80.1422C68.2292 80.1603 68.2292 80.183 68.2247 80.2011C68.1843 81.0755 69.5295 81.0755 69.5699 80.2011C69.5878 79.8296 69.3367 79.5169 68.9914 79.4082C68.83 79.3584 68.6507 79.3538 68.4847 79.3946C68.4265 79.4082 68.1978 79.4535 68.265 79.4626C68.3771 79.4943 68.4892 79.526 68.6058 79.5532C68.5834 79.5396 68.5655 79.5215 68.543 79.5079C68.6237 79.5894 68.7045 79.671 68.7852 79.7525C68.7538 79.6891 68.682 79.449 68.5699 79.3312C68.3906 79.15 68.0633 79.0684 67.8211 79.1364C67.6238 79.1907 67.4534 79.3085 67.3189 79.458C67.2472 79.5396 67.1844 79.6302 67.1306 79.7254C67.1127 79.7571 67.0992 79.7888 67.0813 79.816C66.9557 79.9881 67.0499 79.9836 67.3638 79.7979C67.5207 80.0788 67.6776 80.3551 67.8346 80.636C67.9287 80.2509 68.0229 79.8658 68.1126 79.4807C68.3099 78.6335 67.014 78.271 66.8078 79.1228Z" fill="#727272"/>
<path d="M65.3819 87.2963C65.4805 87.3733 65.5792 87.4503 65.6778 87.5273C65.9648 87.7539 66.4311 87.5726 66.597 87.2827C66.7988 86.9338 66.6463 86.5759 66.3549 86.3539C66.2562 86.2768 66.1576 86.1998 66.0589 86.1228C65.772 85.8963 65.3056 86.0775 65.1397 86.3675C64.938 86.7163 65.0949 87.0697 65.3819 87.2963Z" fill="#727272"/>
</g>
<g clip-path="url(#clip1_4_3351)">
<path d="M35.2992 44.96C35.8584 40.3049 32.6253 36.8293 29.1803 34.1488C27.1737 32.5852 25.2122 31.2808 23.9046 29.0426C23.2372 27.8945 22.5969 26.5989 22.2226 25.3257C21.4922 22.8463 22.7547 18.9507 25.8796 21.8098C27.6787 23.4583 28.0936 25.5848 29.4689 27.4164C30.2444 28.4529 31.4349 29.0068 32.6749 28.3457C36.404 26.3621 33.5181 19.4823 32.6839 16.7482C31.6738 13.4379 31.1418 10.2526 32.8417 7.06735C33.4009 6.02197 34.0276 4.94532 34.7446 4.0027C35.209 3.39513 35.7997 2.73842 36.4626 2.31848C37.8334 1.44287 38.6585 1.44287 40.1736 1.90748C41.7879 2.40336 41.8014 2.48824 42.1306 4.02503C42.2839 4.73535 42.347 5.51715 42.3831 6.24981C42.4598 7.8 42.3335 9.3636 42.0134 10.887C41.4136 13.7774 39.6866 16.3328 39.3079 19.2679C39.0283 21.4256 39.2222 28.2831 42.8115 27.6398C47.0185 26.8848 46.7164 20.1926 50.9099 19.2991C54.4 18.5531 56.1045 22.3549 54.6255 24.9638C53.8229 26.3845 52.4882 27.4835 51.203 28.4529C48.9124 30.1818 46.1122 31.0842 43.8621 32.831C39.7903 36.0028 41.1431 40.9885 42.816 45.0762C43.1407 45.8669 44.4483 45.5184 44.1191 44.7188C42.9919 41.9624 41.576 38.5895 43.1001 35.6946C44.5114 33.0141 48.236 32.076 50.6394 30.4945C53.886 28.3591 58.544 24.3384 55.7934 20.1077C53.4937 16.5651 49.0386 17.7489 46.9374 20.7153C46.3016 21.6133 45.8101 22.6006 45.2464 23.5432C44.9894 23.9721 44.7324 24.4054 44.4303 24.8075C44.2138 25.0666 43.9974 25.3212 43.781 25.5803C42.072 25.9556 41.1882 25.5044 41.1296 24.2178C39.4161 20.6081 41.4903 16.9091 42.6537 13.5808C43.5194 11.1059 43.8892 8.47012 43.7043 5.85668C43.578 4.04737 43.3887 1.59923 41.6707 0.51811C40.1601 -0.43345 37.8379 0.111575 36.3544 0.853167C34.1449 1.96109 32.7921 4.31095 31.6738 6.4017C28.8015 11.7715 31.7009 16.5025 32.7696 21.9126C32.9094 22.6318 33.2656 24.2088 33.0266 25.0085C32.2961 25.6697 31.5656 26.3264 30.8306 26.9876C30.4113 26.4559 30.0956 25.8752 29.8747 25.2363C29.4508 24.3027 29.0044 23.4315 28.3867 22.6006C27.4127 21.2871 25.5729 19.1294 23.6926 19.2366C21.8664 19.3438 20.7932 21.2559 20.5993 22.8507C20.3107 25.2095 21.5868 27.7247 22.7412 29.7261C25.9427 35.2702 34.8663 37.3118 33.9465 44.9689C33.8473 45.8133 35.2 45.8088 35.2992 44.96Z" fill="#46A358"/>
<path d="M46.987 22.6855C47.961 17.7936 46.1212 13.3218 45.7379 8.49248C45.508 5.60653 46.748 0.991685 50.689 2.30511C53.6245 3.28347 54.7382 6.75019 54.5398 9.52446C54.3955 11.5527 53.4125 17.5033 57.3535 16.9493C60.7354 16.4758 62.4805 10.8915 64.1218 8.52375C65.5287 6.49555 68.6355 3.53365 71.368 4.36012C75.6968 5.66907 72.9237 10.8155 70.9306 12.8393C67.5713 16.2479 63.991 19.2634 61.0285 23.0607C59.3105 25.2632 57.8225 28.8818 61.6327 29.8691C63.0982 30.2488 64.5096 29.744 65.8308 29.1454C66.8949 28.6629 67.9095 28.0866 69.0413 27.7694C71.1065 27.1886 73.5009 27.6443 72.1346 30.1863C68.9376 36.1413 61.6192 31.7499 56.8981 34.2472C52.894 36.3692 51.9606 41.06 52.3393 45.1745C52.416 46.0277 53.7733 46.0367 53.6921 45.1745C53.4261 42.3064 53.656 39.206 55.6581 36.9321C58.2464 33.9925 61.7004 35.0647 65.1273 34.9977C68.6265 34.9307 73.1311 33.2509 73.8571 29.3777C74.6507 25.1336 69.7718 25.9556 67.2692 26.9787C66.1644 27.4299 65.1319 28.1313 63.9775 28.4618C63.0621 28.7254 61.6147 28.8684 60.8932 28.0151C60.1943 27.1842 60.758 25.7859 61.1908 25.08C62.7736 22.4889 65.1995 20.1256 67.3549 17.9947C70.3264 15.0551 75.3947 11.9369 74.9573 7.14332C74.6236 3.47557 71.2057 2.13088 68.0538 3.50684C66.1599 4.33331 64.5953 5.64674 63.3597 7.28628C61.7455 9.42617 60.8842 12.3657 58.9588 14.251C58.2644 14.93 57.5835 16.373 56.0324 14.9568C55.3425 14.3269 55.5499 12.6472 55.622 11.785C55.7167 10.6547 55.9602 9.55126 55.9241 8.41207C55.8655 6.48661 55.2207 4.53435 53.9627 3.04223C51.3022 -0.102832 46.7345 0.0356578 44.9669 3.98039C43.9117 6.33919 44.3762 9.03751 44.8181 11.4857C45.4674 15.0998 46.4188 18.6469 45.6838 22.3281C45.517 23.1724 46.8201 23.5343 46.987 22.6855Z" fill="#46A358"/>
<path d="M46.6849 31.1602C46.0491 35.7661 45.0075 40.2782 43.5555 44.7009C43.285 45.5229 44.5926 45.8758 44.8587 45.0583C46.3106 40.6356 47.3522 36.1235 47.988 31.5176C48.1053 30.6687 46.8021 30.3069 46.6849 31.1602Z" fill="#46A358"/>
<path d="M30.506 44.1917C30.3301 40.6445 27.8456 38.25 24.9868 36.4273C23.1335 35.2434 21.1044 34.2561 19.5126 32.7149C18.8272 32.0537 17.5511 30.7715 17.4835 29.744C17.2535 26.3175 21.4786 28.9846 22.4165 29.7753C23.0749 30.3337 24.0353 29.3866 23.3725 28.8282C21.898 27.5818 19.2511 25.9601 17.2265 26.8983C15.5942 27.6533 15.8647 29.5251 16.4915 30.8743C19.1294 36.606 28.806 37.2627 29.1532 44.1917C29.1938 45.0494 30.5511 45.0539 30.506 44.1917Z" fill="#46A358"/>
<path d="M60.8391 45.5185C62.5256 42.9989 64.7486 40.9394 67.4721 39.5545C69.9522 38.2947 73.0274 38.0758 75.2234 36.2933C77.744 34.2472 77.8748 29.2303 73.7038 29.3598C72.8335 29.3866 72.8335 30.7269 73.7038 30.7C75.3496 30.9234 76.017 31.8258 75.7149 33.4028C75.3767 34.3097 74.804 35.0245 73.9969 35.5427C73.0094 36.2352 71.8099 36.5524 70.6736 36.9098C69.2262 37.3654 67.8148 37.8435 66.4756 38.5582C63.6889 40.0504 61.4118 42.2394 59.6668 44.8439C59.1843 45.5632 60.3567 46.2333 60.8391 45.5185Z" fill="#46A358"/>
<path d="M64.5141 33.7289C58.7829 34.8011 56.6681 40.4524 55.3109 45.3978C55.0809 46.2332 56.3886 46.5861 56.614 45.7552C57.8495 41.2565 59.6307 36.0028 64.8748 35.0244C65.7271 34.8591 65.3663 33.5681 64.5141 33.7289Z" fill="#46A358"/>
<path d="M34.2937 13.3307C33.6218 10.6547 34.4605 7.72412 36.6339 5.92822C37.0713 5.54849 37.5673 5.2581 38.1129 5.05707C39.6145 5.37426 40.3134 6.16946 40.2097 7.44267C40.2368 8.18426 40.0925 8.91692 39.9166 9.63171C39.5604 11.0747 38.9336 12.4462 38.4692 13.8579C37.2742 17.4944 35.5562 23.4405 38.7848 26.5364C39.0959 26.8357 39.5784 26.3622 39.2628 26.0629C36.431 23.3512 37.883 18.1377 38.8524 14.8899C39.6911 12.0754 41.9683 8.33615 40.4307 5.37872C39.2312 3.07353 36.4806 4.94538 35.3127 6.29454C33.5857 8.29148 33.0041 10.9764 33.6398 13.5094C33.7481 13.9294 34.3974 13.7507 34.2937 13.3307Z" fill="#46A358"/>
<path d="M48.5877 24.182C48.9755 23.3288 49.7601 22.1226 50.8107 21.9796C52.4115 21.7607 53.2367 23.7532 52.3799 25.0711C51.5728 26.313 50.0352 27.1797 48.7095 27.7113C46.5045 28.5914 45.0255 29.8065 43.4247 31.5444C43.1316 31.8615 43.6096 32.3396 43.9027 32.0179C44.8722 30.9591 45.8642 29.8601 47.1268 29.1275C48.1323 28.5422 49.3002 28.3144 50.3102 27.7426C51.5412 27.0412 53.5343 25.5267 53.6786 23.9989C53.7958 22.7659 52.4837 21.3363 51.2572 21.2604C49.7782 21.1665 48.5426 22.6676 48.006 23.847C47.8257 24.2312 48.4119 24.5752 48.5877 24.182Z" fill="#46A358"/>
<path d="M23.3003 24.9595C23.4491 23.7846 23.8955 23.3512 24.635 23.6684C24.8966 23.6729 25.113 23.7667 25.2934 23.9498C25.6496 24.1822 25.8841 24.5261 26.096 24.888C26.4748 25.5358 26.6506 26.2908 26.9302 26.9788C27.2864 27.8633 27.7554 28.5826 28.5625 29.1097C28.9278 29.351 29.266 28.7702 28.9052 28.529C26.9212 27.2245 27.4758 23.8382 24.9958 23.0162C23.5078 22.5247 22.0107 23.8024 22.7186 25.2945C22.9035 25.6877 23.4852 25.3482 23.3003 24.9595Z" fill="#46A358"/>
<path d="M47.5326 7.6214C47.1809 5.69147 49.2326 4.15468 50.8017 5.56192C51.6675 6.33925 52.0012 7.76882 52.0057 8.88568C52.0147 10.4001 51.3158 11.7538 51.6134 13.2727C51.6946 13.6971 52.3484 13.5184 52.2672 13.094C51.893 11.1864 52.9662 9.35922 52.4837 7.38016C52.1951 6.19629 51.6089 4.8784 50.3734 4.43166C48.1458 3.63199 46.509 5.76742 46.8788 7.79563C46.9599 8.22003 47.6093 8.04133 47.5326 7.6214Z" fill="#46A358"/>
<path d="M47.1944 12.0396C48.2947 14.3314 48.8358 16.3417 48.7546 18.8837C48.7411 19.317 49.4174 19.3125 49.431 18.8837C49.5166 16.2121 48.9304 14.0991 47.7806 11.7045C47.5912 11.3159 47.0095 11.6554 47.1944 12.0396Z" fill="#46A358"/>
<path d="M64.7351 10.1231C65.3889 8.64442 66.6244 7.71073 68.0538 7.00935C68.4641 6.79491 68.888 6.62068 69.3299 6.48219C71.2373 7.1255 71.7198 8.01452 70.7774 9.15818C70.3264 9.85956 69.6726 10.4895 69.109 11.106C66.9626 13.4514 64.6449 15.6225 62.1964 17.6507C61.8627 17.9277 62.3407 18.4013 62.6744 18.1243C64.8884 16.2926 66.9942 14.3448 68.9602 12.2541C70.1416 10.9988 72.4097 9.13584 71.9137 7.15231C70.9262 3.22098 64.9786 7.9073 64.1489 9.78808C63.9775 10.1767 64.5637 10.5163 64.7351 10.1231Z" fill="#46A358"/>
<path d="M60.9158 20.0854C58.7559 21.6579 57.4437 23.9497 57.1957 26.59C57.1551 27.0188 57.8315 27.0144 57.8721 26.59C58.0976 24.2044 59.306 22.0823 61.2585 20.6617C61.6057 20.4115 61.2675 19.8263 60.9158 20.0854Z" fill="#46A358"/>
<path d="M65.195 31.263C65.6369 30.9994 66.0788 30.7224 66.5432 30.4946C66.8949 30.3025 67.2647 30.155 67.6525 30.0523C68.3785 29.753 68.622 30.3114 68.3785 31.7276C67.9005 32.6613 65.3122 32.697 64.5096 32.6479C62.503 32.5317 60.6137 31.9867 58.6341 32.5898C58.2193 32.7149 58.3952 33.3626 58.8145 33.2376C61.1908 32.5094 63.504 33.5681 65.9029 33.3046C67.2061 33.1571 69.0503 32.563 69.6996 31.3121C70.0604 30.6152 69.9747 29.6949 69.1856 29.3152C67.8915 28.6942 65.8714 30.0702 64.8523 30.6822C64.4825 30.91 64.8207 31.4908 65.195 31.263Z" fill="#46A358"/>
<path d="M55.1396 33.7557C51.6224 36.5836 50.3418 40.8723 49.9856 45.1968C49.9495 45.6256 50.6259 45.6256 50.662 45.1968C51.0047 41.0376 52.2357 36.9455 55.6175 34.2293C55.9557 33.9568 55.4732 33.4877 55.1396 33.7557Z" fill="#46A358"/>
<path d="M40.0023 34.895C38.9562 36.6909 38.9877 38.6476 39.2177 40.6579C39.4116 42.3466 39.6325 44.004 40.8094 45.3174C41.098 45.6391 41.576 45.1656 41.2874 44.8439C40.1331 43.5573 39.9888 41.7703 39.8354 40.1263C39.6731 38.4153 39.6957 36.7579 40.5885 35.23C40.8049 34.8592 40.2232 34.5242 40.0023 34.895Z" fill="#46A358"/>
<path d="M21.3434 30.4812C19.3864 30.508 20.162 32.5496 21.2081 33.2822C22.5157 34.1981 24.0038 34.8101 25.3926 35.583C27.0294 36.4943 27.6878 38.0311 28.9458 39.3133C29.2479 39.6215 29.7259 39.148 29.4238 38.8397C28.1748 37.5665 27.5705 36.0431 25.9608 35.1317C25.1491 34.6716 24.2969 34.2829 23.4807 33.8407C23.0568 33.6128 22.633 33.385 22.2272 33.1303C22.0648 33.0321 21.898 32.9293 21.7357 32.831C20.9285 32.5272 20.8023 31.9688 21.3479 31.1557C21.7762 31.1468 21.7762 30.4767 21.3434 30.4812Z" fill="#46A358"/>
<path d="M72.2383 33.5682C72.2609 34.4617 71.846 34.9486 70.9848 35.0335C70.5699 35.1988 70.1596 35.3596 69.7448 35.5249C69.127 35.7706 68.5047 36.0163 67.887 36.262C66.444 36.8339 64.9966 37.4102 63.5537 37.982C63.1524 38.1383 63.3282 38.7906 63.734 38.6298C65.3844 37.973 67.0347 37.3208 68.6851 36.6641C69.9071 36.1771 71.4673 35.8287 72.554 35.0692C73.4964 34.4081 73.5234 33.0366 72.2338 32.8981C71.8055 32.8489 71.81 33.5235 72.2383 33.5682Z" fill="#46A358"/>
<path d="M62.0025 38.9111C60.1898 40.6087 58.7604 42.6012 57.7504 44.8617C57.5745 45.2504 58.1562 45.5944 58.3366 45.2013C59.3241 42.9943 60.7084 41.0466 62.485 39.3891C62.7961 39.0898 62.3182 38.6163 62.0025 38.9111Z" fill="#46A358"/>
<path d="M30.5511 41.8418C31.0696 42.6013 31.4033 43.4188 31.5611 44.3212C31.6333 44.7456 32.2871 44.5669 32.215 44.1425C32.0481 43.191 31.6829 42.3019 31.1373 41.5023C30.8938 41.1493 30.3076 41.4844 30.5511 41.8418Z" fill="#46A358"/>
</g>
<defs>
<clipPath id="clip0_4_3351">
<rect width="55" height="48.2388" fill="white" transform="translate(19 45.2239)"/>
</clipPath>
<clipPath id="clip1_4_3351">
<rect width="61" height="46.2289" fill="white" transform="translate(16)"/>
</clipPath>
</defs>
</svg>
