<svg width="90" height="93" viewBox="0 0 90 93" fill="none" xmlns="http://www.w3.org/2000/svg">
<ellipse cx="37" cy="53.8668" rx="37" ry="38.3282" fill="#46A358" fill-opacity="0.13"/>
<g clip-path="url(#clip0_4_3611)">
<path d="M51.3006 45.6075C51.3204 46.1091 51.4594 46.5836 51.7176 47.0106C51.9393 47.3834 52.5052 47.0275 52.2835 46.6581C52.0882 46.3294 51.979 45.9803 51.9658 45.5973C51.9459 45.1601 51.284 45.1737 51.3006 45.6075Z" fill="#46A358"/>
<path d="M59.8093 45.5634C59.7762 45.7532 59.7398 45.9396 59.7067 46.1294C59.6736 46.309 59.7663 46.4954 59.945 46.5428C60.1105 46.5869 60.3157 46.4785 60.3488 46.2988C60.3819 46.109 60.4183 45.9226 60.4514 45.7328C60.4845 45.5532 60.3918 45.3668 60.2131 45.3194C60.0476 45.2753 59.8424 45.3838 59.8093 45.5634Z" fill="#46A358"/>
<path d="M64.3401 46.2378C64.767 46.2277 64.7537 45.5499 64.3268 45.56C63.8999 45.5702 63.9131 46.248 64.3401 46.2378Z" fill="#46A358"/>
<path d="M39.4823 47.4376C39.9092 47.4274 39.896 46.7496 39.469 46.7598C39.0421 46.7699 39.0554 47.4478 39.4823 47.4376Z" fill="#46A358"/>
<path d="M51.5885 4.54481C49.0335 12.2619 47.6402 20.3449 47.488 28.4958C47.4119 32.5932 47.6469 36.6941 48.1929 40.7543C48.4444 42.6251 48.7622 44.4891 49.1461 46.3362C49.4472 47.7799 49.6028 49.4304 50.6486 50.5319C51.0954 51.003 51.7804 50.2675 51.337 49.7998C50.2084 48.6103 50.0926 46.0955 49.8013 44.5399C49.434 42.5742 49.1428 40.5916 48.9276 38.5988C48.5206 34.8301 48.3849 31.0342 48.5139 27.2452C48.7754 19.5993 50.1555 12.0382 52.5516 4.79561C52.7567 4.1754 51.7904 3.92799 51.5885 4.54481Z" fill="#46A358"/>
<path d="M55.4408 4.68372C56.7778 12.394 56.8109 20.2737 57.079 28.0789C57.2047 31.7459 57.4199 35.4231 57.347 39.0935C57.2709 42.9029 56.5461 46.4852 55.5698 50.1455C55.401 50.7793 56.3641 51.0267 56.5329 50.3963C57.4496 46.9699 58.1777 43.5875 58.3167 40.0222C58.4723 36.0399 58.2108 32.0374 58.0751 28.0619C57.8038 20.1619 57.7475 12.2008 56.3939 4.39564C56.2814 3.75171 55.3282 4.04318 55.4408 4.68372Z" fill="#46A358"/>
<path d="M62.629 17.9319C63.0824 28.4822 63.4928 39.1614 60.9776 49.4948C60.8221 50.132 61.7851 50.3794 61.9407 49.7456C64.4757 39.324 64.0819 28.55 63.6219 17.9115C63.5921 17.2574 62.5993 17.2744 62.629 17.9319Z" fill="#46A358"/>
<path d="M59.8226 18.0877C58.416 19.7721 57.4761 21.731 57.0624 23.9102C56.94 24.5508 57.903 24.8049 58.0255 24.161C58.4061 22.1479 59.2368 20.3516 60.5374 18.7926C60.9511 18.2944 60.2396 17.5895 59.8226 18.0877Z" fill="#46A358"/>
<path d="M69.6055 24.5678C69.5823 32.2069 68.5829 39.7748 66.6236 47.1461C66.4548 47.7799 67.4179 48.0273 67.5867 47.3969C69.5658 39.9408 70.5752 32.2746 70.5984 24.5474C70.5984 23.8933 69.6055 23.9137 69.6055 24.5678Z" fill="#46A358"/>
<path d="M67.7191 22.2937C65.1509 25.3405 63.89 29.0923 62.9832 32.9525C62.8342 33.5897 63.7973 33.8405 63.9462 33.2033C64.8133 29.5261 65.9849 25.9099 68.4372 22.9987C68.8509 22.5038 68.1361 21.7955 67.7191 22.2937Z" fill="#46A358"/>
<path d="M43.7549 10.791C45.5222 15.0545 46.8062 19.474 47.6005 24.0323C47.7131 24.6763 48.6629 24.3814 48.5537 23.7409C47.7594 19.1825 46.472 14.7631 44.708 10.4995C44.4598 9.90645 43.5067 10.1877 43.7549 10.791Z" fill="#46A358"/>
<path d="M41.9148 11.1604C41.3952 17.6302 40.8855 24.1814 41.9379 30.6275C43.04 37.3516 45.7472 43.9129 47.8289 50.3692C48.0275 50.9894 48.9806 50.7013 48.782 50.0777C46.7665 43.818 44.1619 37.4532 42.997 30.9597C41.8254 24.422 42.3781 17.7149 42.9076 11.14C42.9606 10.4893 41.9677 10.513 41.9148 11.1604Z" fill="#46A358"/>
<path d="M35.5969 26.791C38.9097 29.9497 41.5938 33.6438 43.6059 37.7955C43.8906 38.3818 44.7345 37.8464 44.4532 37.2634C42.4046 33.0372 39.6577 29.2719 36.2853 26.0556C35.8187 25.6116 35.1303 26.3437 35.5969 26.791Z" fill="#46A358"/>
<path d="M33.3233 28.0959C35.8882 35.9451 39.34 43.4419 43.6258 50.4573C43.9634 51.0132 44.8139 50.4845 44.473 49.9253C40.2302 42.9809 36.8148 35.5723 34.2764 27.8044C34.0745 27.1876 33.1214 27.4723 33.3233 28.0959Z" fill="#46A358"/>
<path d="M39.0686 48.4407C37.6058 45.7633 35.4612 43.5367 32.7938 42.12C32.251 41.8319 31.7314 41.9065 32.7838 41.798C33.1677 41.7574 33.5649 41.7404 33.9488 41.7472C35.1998 41.7608 36.3316 41.9912 37.4072 42.686C38.6582 43.4926 39.7504 44.6517 40.869 45.6379C41.3522 46.065 42.0405 45.3329 41.5574 44.9059C40.1409 43.6519 38.7376 42.0861 37.0002 41.3066C36.0305 40.8694 34.9813 40.7406 33.9289 40.7372C33.2604 40.7338 31.8704 40.6051 31.3111 41.188C30.219 42.32 32.3106 42.9876 32.9625 43.3841C35.1998 44.733 36.9604 46.6716 38.2214 48.983C38.5325 49.5456 39.3797 49.0135 39.0686 48.4407Z" fill="#46A358"/>
<path d="M69.2812 40.1849C70.2509 37.9718 72.5046 37.277 74.6492 36.8161C74.9636 36.7483 75.0894 36.3212 74.9305 36.0637C73.7656 34.1793 71.6442 33.9861 69.6551 34.1725C69.023 34.2302 69.0363 35.2469 69.675 35.1893C71.2801 35.0402 73.1169 35.03 74.0833 36.5958C74.1759 36.345 74.2719 36.0942 74.3646 35.8434C71.9751 36.3551 69.483 37.2397 68.4141 39.69C68.1526 40.2831 69.0197 40.7813 69.2812 40.1849Z" fill="#46A358"/>
<path d="M35.4314 25.8082C34.9946 26.3979 34.5048 27.1333 33.78 27.3706C33.0651 27.6044 32.3006 27.2689 32.3569 26.3843C32.3999 25.6929 32.9791 25.188 33.5417 24.8999C34.197 24.5644 35.9941 24.4051 35.5175 25.6929C35.2924 26.3064 36.2555 26.547 36.4806 25.9437C36.9406 24.6999 35.8352 23.612 34.6636 23.5883C33.4325 23.5646 31.9995 24.4017 31.5361 25.598C31.1026 26.7063 31.556 28.0924 32.7607 28.4076C34.2334 28.7906 35.3487 27.5942 36.1496 26.5165C36.5302 25.9946 35.8187 25.2862 35.4314 25.8082Z" fill="#46A358"/>
<path d="M43.9965 10.0284C43.3776 10.147 42.4807 10.5605 41.8618 10.2216C41.243 9.87927 41.3555 9.0286 41.7129 8.53717C42.0869 8.02541 42.676 7.83901 43.2717 8.00847C43.7549 8.14742 45.2607 9.44207 44.2116 9.88944C43.6291 10.1368 43.9038 11.1163 44.4962 10.8655C45.7373 10.3368 45.6943 8.86592 44.8967 7.92035C44.0924 6.96462 42.6528 6.60198 41.5772 7.29675C40.6373 7.90679 40.1144 9.23533 40.6241 10.2995C41.3455 11.8111 43.0334 11.2417 44.2811 11.0045C44.9066 10.8825 44.6187 9.90638 43.9965 10.0284Z" fill="#46A358"/>
<path d="M55.7916 3.82639C54.9311 4.05346 53.9283 4.3212 53.0414 4.10091C51.7937 3.79589 51.7473 2.33178 52.6244 1.57262C53.326 0.965964 54.4016 0.898181 55.2521 1.16253C55.7883 1.3286 56.4171 1.68785 56.5627 2.29111C56.7017 2.8571 56.4336 3.4163 55.8776 3.55526C55.2587 3.71116 55.54 4.68723 56.1622 4.53133C57.6416 4.15852 57.9659 2.27078 57.0558 1.15914C56.0299 -0.0914443 53.9713 -0.304959 52.5913 0.386423C51.2939 1.03714 50.503 2.78593 51.3668 4.12124C52.3662 5.67007 54.62 5.18204 56.0729 4.79568C56.6918 4.63639 56.4105 3.66032 55.7916 3.82639Z" fill="#46A358"/>
<path d="M62.8706 13.8208C61.4442 13.5599 59.8821 13.9835 59.2302 15.4307C58.7006 16.6033 59.2004 18.125 60.4315 18.5656C61.6726 19.0096 63.5557 18.4605 64.2441 17.2811C64.9027 16.1458 64.4261 14.7054 63.3869 14.0276C62.8475 13.6751 62.3676 14.5664 62.9037 14.9155C63.5722 15.3493 63.7907 16.3356 63.2446 16.9693C62.7581 17.5353 61.7189 17.7759 61.014 17.6472C60.1072 17.4811 59.7564 16.5084 60.2098 15.7052C60.7062 14.8274 61.7288 14.6444 62.629 14.8071C63.2545 14.9223 63.4994 13.9361 62.8706 13.8208Z" fill="#46A358"/>
<path d="M70.5653 19.44C69.3109 19.3553 67.5735 19.5383 67.2955 21.1108C67.0671 22.3987 68.4968 24.1001 69.5923 24.5576C72.7197 25.8624 73.3883 19.3553 70.691 19.5281C70.0556 19.5688 70.0721 20.5855 70.7109 20.5449C71.5879 20.4872 71.3728 22.6122 71.1742 23.0325C70.7076 24.0323 69.814 23.6662 69.2249 23.0291C68.7715 22.5377 67.9574 21.6667 68.4273 20.9617C68.8807 20.2839 69.8934 20.4127 70.5851 20.4567C71.2238 20.5008 71.1974 19.4841 70.5653 19.44Z" fill="#46A358"/>
<path d="M52.6376 6.39855C52.5383 6.74085 52.4357 7.08316 52.3364 7.42546C52.214 7.84571 52.856 8.00839 52.9785 7.59153C53.0778 7.24922 53.1804 6.90692 53.2797 6.56462C53.4021 6.14437 52.7601 5.98169 52.6376 6.39855Z" fill="#46A358"/>
<path d="M54.0508 6.45631C54.0541 6.68338 54.0607 6.90706 54.064 7.13413C54.0739 7.57133 54.7358 7.55777 54.7259 7.12058C54.7226 6.8935 54.716 6.66982 54.7127 6.44275C54.7061 6.00555 54.0442 6.01911 54.0508 6.45631Z" fill="#46A358"/>
<path d="M53.5808 10.5333C54.0078 10.5231 53.9945 9.84529 53.5676 9.85546C53.144 9.86224 53.1572 10.5401 53.5808 10.5333Z" fill="#46A358"/>
<path d="M51.605 10.9129C51.5752 11.2891 51.5455 11.6687 51.519 12.0449C51.5058 12.2279 51.6911 12.3804 51.8566 12.377C52.0518 12.3737 52.1677 12.2144 52.1809 12.0314C52.2107 11.6552 52.2405 11.2756 52.2669 10.8994C52.2802 10.7164 52.0948 10.5639 51.9294 10.5673C51.7341 10.5706 51.6183 10.7299 51.605 10.9129Z" fill="#46A358"/>
<path d="M53.1704 12.011C53.1804 12.4245 53.187 12.8379 53.1969 13.2548C53.2068 13.692 53.8688 13.6784 53.8588 13.2412C53.8489 12.8278 53.8423 12.4143 53.8323 11.9974C53.8224 11.5602 53.1605 11.5738 53.1704 12.011Z" fill="#46A358"/>
<path d="M54.342 9.61159C54.385 9.9505 54.4281 10.2894 54.4711 10.6249C54.4942 10.8079 54.6167 10.9605 54.8087 10.9571C54.9708 10.9537 55.1562 10.7944 55.133 10.6114C55.09 10.2725 55.0469 9.93355 55.0039 9.59803C54.9807 9.41502 54.8583 9.2625 54.6663 9.26589C54.5009 9.26928 54.3155 9.42857 54.342 9.61159Z" fill="#46A358"/>
<path d="M54.438 14.6952C54.4413 14.885 54.4446 15.0714 54.4479 15.2612C54.4578 15.6984 55.1197 15.6849 55.1098 15.2477C55.1065 15.0579 55.1032 14.8715 55.0999 14.6817C55.09 14.2445 54.4281 14.258 54.438 14.6952Z" fill="#46A358"/>
<path d="M53.005 9.18794C52.9719 9.52347 53.0447 9.83866 53.1804 10.1437C53.2532 10.3097 53.4981 10.3436 53.6371 10.2555C53.8059 10.1505 53.8191 9.95727 53.7463 9.78782C53.6603 9.59464 53.647 9.38112 53.6669 9.171C53.6834 8.98798 53.4915 8.83547 53.3293 8.83886C53.134 8.84564 53.0215 9.00493 53.005 9.18794Z" fill="#46A358"/>
<path d="M50.6949 14.5698C50.6287 14.9493 50.5625 15.3255 50.4964 15.7051C50.4202 16.1321 51.0623 16.3016 51.1384 15.8712C51.2046 15.4916 51.2708 15.1154 51.337 14.7358C51.4098 14.3088 50.771 14.1393 50.6949 14.5698Z" fill="#46A358"/>
<path d="M52.5185 16.9083C52.4887 17.1726 52.4556 17.437 52.4258 17.7013C52.4059 17.8843 52.4754 18.0639 52.6641 18.1148C52.8196 18.1555 53.0447 18.0538 53.0678 17.8708C53.0976 17.6064 53.1307 17.3421 53.1605 17.0777C53.1804 16.8947 53.1109 16.7151 52.9222 16.6642C52.7667 16.6202 52.5416 16.7252 52.5185 16.9083Z" fill="#46A358"/>
<path d="M51.936 21.7311C51.9889 22.0192 51.9559 22.3005 51.8665 22.575C51.7308 22.9885 52.3728 23.1546 52.5085 22.7411C52.6376 22.3479 52.6475 21.9446 52.5714 21.5379C52.5383 21.3583 52.3199 21.26 52.161 21.3109C51.9724 21.3685 51.8996 21.5515 51.936 21.7311Z" fill="#46A358"/>
<path d="M49.9139 18.9961C49.8841 19.2604 49.851 19.5248 49.8212 19.7891C49.8014 19.9722 49.8709 20.1518 50.0595 20.2026C50.215 20.2433 50.4401 20.1416 50.4633 19.9586C50.493 19.6942 50.5261 19.4299 50.5559 19.1655C50.5758 18.9825 50.5063 18.8029 50.3176 18.7521C50.1588 18.7114 49.9337 18.8131 49.9139 18.9961Z" fill="#46A358"/>
<path d="M54.4214 19.5349C54.5009 19.9111 54.577 20.2873 54.6564 20.6601C54.7458 21.0871 55.3812 20.8905 55.2918 20.4669C55.2124 20.0907 55.1363 19.7145 55.0569 19.3417C54.9675 18.9147 54.3354 19.1078 54.4214 19.5349Z" fill="#46A358"/>
<path d="M54.855 24.5169C54.8616 24.8931 54.8715 25.2693 54.8782 25.6455C54.8881 26.0827 55.55 26.0692 55.5401 25.632C55.5334 25.2558 55.5235 24.8796 55.5169 24.5034C55.5103 24.0662 54.8484 24.0797 54.855 24.5169Z" fill="#46A358"/>
<path d="M54.0739 29.4855C54.117 29.7498 54.1567 30.0108 54.1997 30.2751C54.2295 30.4548 54.4545 30.5496 54.6101 30.5022C54.7987 30.4446 54.8616 30.2616 54.8318 30.0819C54.7888 29.8176 54.7491 29.5566 54.7061 29.2923C54.6763 29.1127 54.4512 29.0178 54.2957 29.0652C54.107 29.1194 54.0441 29.3025 54.0739 29.4855Z" fill="#46A358"/>
<path d="M51.3734 26.9639C51.3767 27.191 51.3833 27.4147 51.3866 27.6417C51.3965 28.0789 52.0584 28.0654 52.0485 27.6282C52.0452 27.4011 52.0386 27.1774 52.0353 26.9503C52.0287 26.5132 51.3668 26.5267 51.3734 26.9639Z" fill="#46A358"/>
<path d="M49.5498 24.0627C49.573 24.344 49.5465 24.6084 49.4671 24.8795C49.3446 25.2998 49.9867 25.4624 50.1091 25.0456C50.2051 24.7236 50.2382 24.3847 50.2117 24.0492C50.1753 23.6188 49.5134 23.6289 49.5498 24.0627Z" fill="#46A358"/>
<path d="M50.3805 31.8646C50.3474 32.129 50.3176 32.3933 50.2845 32.6577C50.2614 32.8407 50.3342 33.0203 50.5228 33.0712C50.6784 33.1118 50.9034 33.0102 50.9266 32.8271C50.9597 32.5628 50.9895 32.2984 51.0226 32.0341C51.0457 31.8511 50.9729 31.6715 50.7843 31.6206C50.6254 31.58 50.4037 31.6816 50.3805 31.8646Z" fill="#46A358"/>
<path d="M53.7562 35.7045C53.7992 35.9282 53.839 36.1553 53.882 36.3789C53.9151 36.5586 54.1335 36.6569 54.2924 36.606C54.4777 36.5484 54.5472 36.3654 54.5141 36.1858C54.4711 35.9621 54.4314 35.735 54.3883 35.5113C54.3552 35.3317 54.1368 35.2334 53.978 35.2843C53.7926 35.3419 53.7231 35.5249 53.7562 35.7045Z" fill="#46A358"/>
<path d="M51.9658 39.585C52.0452 39.9612 52.1279 40.334 52.2074 40.7102C52.3 41.1372 52.9322 40.9407 52.8428 40.517C52.7634 40.1408 52.6806 39.768 52.6012 39.3918C52.5085 38.9648 51.8731 39.158 51.9658 39.585Z" fill="#46A358"/>
<path d="M55.6592 42.0387C55.5897 42.303 55.5235 42.5674 55.454 42.8351C55.3448 43.2587 55.9868 43.4248 56.0961 43.0012C56.1656 42.7368 56.2318 42.4725 56.3013 42.2047C56.4105 41.7811 55.7684 41.615 55.6592 42.0387Z" fill="#46A358"/>
<path d="M55.1661 12.6245C55.2091 12.8889 55.2521 13.1498 55.2952 13.4142C55.3249 13.5938 55.55 13.6887 55.7055 13.6413C55.8942 13.5837 55.9571 13.4006 55.9273 13.221C55.8842 12.9567 55.8412 12.6957 55.7982 12.4314C55.7684 12.2517 55.5434 12.1568 55.3878 12.2043C55.2025 12.2619 55.1363 12.4449 55.1661 12.6245Z" fill="#46A358"/>
<path d="M55.2455 17.2777C55.2918 17.6166 55.3382 17.9521 55.3845 18.291C55.411 18.4707 55.5268 18.6266 55.7221 18.6232C55.8842 18.6198 56.0696 18.4605 56.0464 18.2775C56.0001 17.9386 55.9537 17.603 55.9074 17.2641C55.8809 17.0845 55.7651 16.9286 55.5698 16.932C55.4077 16.9354 55.219 17.0981 55.2455 17.2777Z" fill="#46A358"/>
<path d="M60.2098 21.0397C60.1204 21.5718 60.0278 22.1005 59.9384 22.6326C59.8656 23.0597 60.5076 23.2291 60.5804 22.7987C60.6698 22.2666 60.7625 21.7379 60.8518 21.2058C60.9246 20.7788 60.2826 20.6093 60.2098 21.0397Z" fill="#46A358"/>
<path d="M61.4972 20.084C61.5038 20.3484 61.5071 20.6127 61.5137 20.8737C61.5237 21.3109 62.1856 21.2973 62.1756 20.8601C62.169 20.5958 62.1657 20.3314 62.1591 20.0705C62.1492 19.6333 61.4906 19.6468 61.4972 20.084Z" fill="#46A358"/>
<path d="M61.1364 23.707C61.0736 24.2729 61.014 24.8389 60.9511 25.4049C60.9048 25.8387 61.5667 25.8184 61.613 25.3914C61.6759 24.8254 61.7355 24.2594 61.7984 23.6934C61.8447 23.263 61.1828 23.2799 61.1364 23.707Z" fill="#46A358"/>
<path d="M59.4221 24.6999C59.2798 25.0049 59.1408 25.31 58.9985 25.6116C58.8165 26.0047 59.3956 26.3369 59.5777 25.9403C59.72 25.6353 59.859 25.3303 60.0013 25.0287C60.1833 24.6355 59.6041 24.3034 59.4221 24.6999Z" fill="#46A358"/>
<path d="M58.4259 22.8868C58.3399 23.1173 58.2572 23.3444 58.1711 23.5748C58.1082 23.7477 58.2505 23.9442 58.4094 23.9883C58.598 24.0391 58.747 23.9137 58.8132 23.7443C58.8992 23.5138 58.9819 23.2867 59.068 23.0563C59.1309 22.8834 58.9886 22.6869 58.8297 22.6428C58.6411 22.592 58.4921 22.714 58.4259 22.8868Z" fill="#46A358"/>
<path d="M60.3157 27.34C60.3024 27.6417 60.2925 27.9433 60.2793 28.2449C60.2627 28.6821 60.9246 28.6652 60.9412 28.2314C60.9544 27.9297 60.9643 27.6281 60.9776 27.3265C60.9941 26.8893 60.3322 26.9062 60.3157 27.34Z" fill="#46A358"/>
<path d="M61.6726 29.1194C61.6593 29.4007 61.6461 29.6854 61.6329 29.9666C61.6229 30.1497 61.8017 30.3022 61.9704 30.2988C62.1591 30.2954 62.2849 30.1361 62.2948 29.9531C62.308 29.6718 62.3213 29.3871 62.3345 29.1058C62.3444 28.9228 62.1657 28.7703 61.9969 28.7737C61.8083 28.7771 61.6825 28.9364 61.6726 29.1194Z" fill="#46A358"/>
<path d="M61.1497 32.1492C61.1199 32.3932 61.0868 32.6406 61.057 32.8846C61.0339 33.0643 61.11 33.2473 61.2953 33.2981C61.4542 33.3388 61.6759 33.2371 61.6991 33.0541C61.7288 32.8101 61.7619 32.5627 61.7917 32.3186C61.8149 32.139 61.7388 31.956 61.5534 31.9052C61.3946 31.8611 61.1728 31.9662 61.1497 32.1492Z" fill="#46A358"/>
<path d="M58.6808 30.0548C58.6477 30.2616 58.6146 30.4717 58.5815 30.6784C58.5517 30.8581 58.6378 31.0411 58.8198 31.0919C58.982 31.1326 59.1938 31.0275 59.2235 30.8479C59.2566 30.6412 59.2897 30.431 59.3228 30.2243C59.3526 30.0447 59.2666 29.8617 59.0845 29.8108C58.9224 29.7668 58.7106 29.8718 58.6808 30.0548Z" fill="#46A358"/>
<path d="M59.1574 35.4435C59.1607 35.5926 59.164 35.7451 59.1673 35.8943C59.1772 36.3315 59.8391 36.3179 59.8292 35.8807C59.8259 35.7316 59.8226 35.5791 59.8193 35.43C59.8093 34.9928 59.1474 35.0063 59.1574 35.4435Z" fill="#46A358"/>
<path d="M61.2953 37.4328C61.2986 37.582 61.3019 37.7345 61.3052 37.8836C61.3152 38.3208 61.9771 38.3072 61.9671 37.87C61.9638 37.7209 61.9605 37.5684 61.9572 37.4193C61.9473 36.9821 61.2854 36.9956 61.2953 37.4328Z" fill="#46A358"/>
<path d="M59.389 41.5406C59.4155 41.8049 59.389 42.0489 59.3063 42.2997C59.25 42.4726 59.3824 42.6691 59.5446 42.7132C59.7299 42.7606 59.8888 42.642 59.9483 42.4692C60.0476 42.1676 60.084 41.8456 60.0509 41.5304C60.0311 41.3474 59.902 41.1949 59.7134 41.1983C59.5446 41.1983 59.3692 41.3576 59.389 41.5406Z" fill="#46A358"/>
<path d="M60.2065 19.3213C60.1204 19.4942 60.0311 19.667 59.945 19.8365C59.7498 20.2228 60.3256 20.555 60.5242 20.1652C60.6102 19.9924 60.6996 19.8195 60.7856 19.6501C60.9809 19.2637 60.405 18.9316 60.2065 19.3213Z" fill="#46A358"/>
<path d="M43.04 12.8787C43.0996 13.2346 43.1625 13.5938 43.222 13.9497C43.2518 14.1293 43.4769 14.2242 43.6324 14.1767C43.8211 14.1191 43.8872 13.9361 43.8542 13.7565C43.7946 13.4006 43.7317 13.0414 43.6721 12.6855C43.6423 12.5059 43.4173 12.411 43.2618 12.4585C43.0731 12.5161 43.0069 12.6991 43.04 12.8787Z" fill="#46A358"/>
<path d="M44.0262 15.1189C44.1785 15.4917 44.334 15.8679 44.4863 16.2407C44.5558 16.4102 44.7146 16.5254 44.8966 16.4678C45.0522 16.4204 45.1879 16.217 45.1184 16.0476C44.9661 15.6748 44.8106 15.2986 44.6584 14.9258C44.5889 14.7563 44.43 14.6411 44.248 14.6987C44.0924 14.7461 43.9567 14.9495 44.0262 15.1189Z" fill="#46A358"/>
<path d="M43.1228 16.3695C43.0466 16.8915 43.0533 17.3897 43.1426 17.9048C43.2154 18.3318 43.8475 18.1387 43.778 17.7116C43.7118 17.3253 43.7118 16.9254 43.7681 16.5356C43.8244 16.1086 43.1823 15.9391 43.1228 16.3695Z" fill="#46A358"/>
<path d="M44.3804 18.3284C44.4929 18.647 44.6021 18.9689 44.7146 19.2875C44.8569 19.6976 45.4924 19.5078 45.3501 19.0943C45.2375 18.7757 45.1283 18.4538 45.0158 18.1352C44.8735 17.7251 44.2381 17.9149 44.3804 18.3284Z" fill="#46A358"/>
<path d="M42.8414 19.6841C42.8481 20.0603 42.858 20.4364 42.8646 20.8126C42.8745 21.2498 43.5364 21.2363 43.5265 20.7991C43.5199 20.4229 43.51 20.0467 43.5033 19.6705C43.4967 19.2333 42.8348 19.2469 42.8414 19.6841Z" fill="#46A358"/>
<path d="M44.0825 20.9584C44.0891 21.2973 44.0958 21.6362 44.1024 21.9751C44.1123 22.4123 44.7742 22.3987 44.7643 21.9615C44.7577 21.6226 44.751 21.2837 44.7444 20.9448C44.7345 20.5076 44.0726 20.5212 44.0825 20.9584Z" fill="#46A358"/>
<path d="M45.9325 21.6294C46.0649 22.0225 46.2006 22.4156 46.333 22.8088C46.472 23.2189 47.1074 23.0291 46.9684 22.6156C46.836 22.2225 46.7003 21.8293 46.568 21.4362C46.429 21.0261 45.7935 21.2159 45.9325 21.6294Z" fill="#46A358"/>
<path d="M46.6573 25.0049C46.697 25.2116 46.7401 25.4184 46.7798 25.6251C46.8162 25.8047 47.0313 25.903 47.1901 25.8522C47.3755 25.7946 47.4483 25.6116 47.4119 25.4319C47.3722 25.2252 47.3291 25.0185 47.2894 24.8117C47.253 24.6321 47.0379 24.5338 46.8791 24.5846C46.697 24.6389 46.6209 24.8253 46.6573 25.0049Z" fill="#46A358"/>
<path d="M44.8404 25.0422C44.9496 25.3608 45.029 25.6861 45.0654 26.0216C45.0853 26.2046 45.2144 26.3572 45.403 26.3538C45.5685 26.3504 45.7472 26.1911 45.7273 26.0081C45.6843 25.6115 45.6049 25.2252 45.4758 24.849C45.3335 24.4389 44.6981 24.6287 44.8404 25.0422Z" fill="#46A358"/>
<path d="M43.1426 23.6899C43.1492 23.9543 43.1525 24.2187 43.1592 24.4796C43.1691 24.9168 43.831 24.9033 43.8211 24.4661C43.8144 24.2017 43.8111 23.9374 43.8045 23.6764C43.7946 23.2392 43.136 23.2528 43.1426 23.6899Z" fill="#46A358"/>
<path d="M43.9402 27.74C43.9667 28.0789 44.0296 28.411 44.1388 28.7296C44.2811 29.1397 44.9165 28.9499 44.7742 28.5364C44.6815 28.272 44.622 28.0043 44.6021 27.7264C44.5723 27.2926 43.9104 27.3062 43.9402 27.74Z" fill="#46A358"/>
<path d="M45.3898 30.6242C45.4493 30.8309 45.5089 31.0377 45.5685 31.241C45.6876 31.6579 46.3231 31.4681 46.2039 31.0478C46.1443 30.8411 46.0848 30.6378 46.0252 30.431C45.9061 30.0142 45.2706 30.2039 45.3898 30.6242Z" fill="#46A358"/>
<path d="M46.1675 28.0078C46.2072 28.1569 46.2469 28.306 46.2867 28.4585C46.3992 28.8788 47.0346 28.6856 46.9221 28.2654C46.8824 28.1162 46.8426 27.9671 46.8029 27.8146C46.6904 27.3943 46.055 27.5875 46.1675 28.0078Z" fill="#46A358"/>
<path d="M44.291 33.6438C44.3738 33.9793 44.4532 34.3182 44.5359 34.6537C44.6385 35.0774 45.2739 34.8842 45.1713 34.4606C45.0886 34.125 45.0092 33.7861 44.9264 33.4506C44.8238 33.027 44.1884 33.2201 44.291 33.6438Z" fill="#46A358"/>
<path d="M45.9358 38.5785C45.9954 38.7276 46.0517 38.8768 46.1112 39.0259C46.1774 39.1953 46.3396 39.3106 46.5216 39.2529C46.6805 39.2055 46.8096 39.0022 46.7434 38.8327C46.6838 38.6836 46.6275 38.5345 46.568 38.3853C46.5018 38.2159 46.3396 38.1006 46.1576 38.1583C45.9987 38.2057 45.8697 38.4091 45.9358 38.5785Z" fill="#46A358"/>
<path d="M67.4808 24.5338C67.3054 24.8965 67.1267 25.2557 66.9513 25.6183C66.7593 26.0081 67.3385 26.3402 67.5304 25.9471C67.7058 25.5845 67.8845 25.2252 68.0599 24.8626C68.2519 24.4728 67.6727 24.1441 67.4808 24.5338Z" fill="#46A358"/>
<path d="M68.4075 25.3845C68.3247 25.7268 68.2387 26.0657 68.1559 26.408C68.05 26.8317 68.6921 26.9977 68.798 26.5741C68.8807 26.2318 68.9668 25.8929 69.0495 25.5506C69.1521 25.1303 68.51 24.9643 68.4075 25.3845Z" fill="#46A358"/>
<path d="M67.5933 28.6246C67.5106 28.9093 67.4278 29.194 67.3418 29.4786C67.2193 29.8989 67.8614 30.0616 67.9838 29.6447C68.0666 29.36 68.1493 29.0753 68.2354 28.7906C68.3545 28.3738 67.7125 28.2077 67.5933 28.6246Z" fill="#46A358"/>
<path d="M67.0373 27.252C66.9678 27.3841 66.895 27.5197 66.8255 27.6519C66.6203 28.0349 67.1995 28.367 67.4047 27.9806C67.4742 27.8485 67.547 27.7129 67.6165 27.5807C67.8217 27.2011 67.2425 26.869 67.0373 27.252Z" fill="#46A358"/>
<path d="M68.6722 27.4146C68.6424 27.679 68.6126 27.9433 68.5829 28.2077C68.563 28.3907 68.6325 28.5703 68.8211 28.6212C68.9767 28.6618 69.2017 28.5602 69.2249 28.3771C69.2547 28.1128 69.2845 27.8484 69.3143 27.5841C69.3341 27.4011 69.2646 27.2215 69.076 27.1706C68.9171 27.1299 68.6921 27.2316 68.6722 27.4146Z" fill="#46A358"/>
<path d="M65.5546 29.1736C65.4885 29.3905 65.3892 29.5871 65.27 29.7769C65.0384 30.1429 65.6175 30.4716 65.8492 30.1056C66.0014 29.8684 66.114 29.6108 66.1967 29.3397C66.2496 29.1668 66.1239 28.9703 65.9584 28.9262C65.7731 28.8821 65.6076 28.9974 65.5546 29.1736Z" fill="#46A358"/>
<path d="M65.5348 32.0883C65.3925 32.3289 65.323 32.6034 65.3362 32.8847C65.3561 33.3185 66.018 33.3083 65.9981 32.8711C65.9915 32.7017 66.0246 32.5627 66.114 32.4204C66.3357 32.0442 65.7565 31.7154 65.5348 32.0883Z" fill="#46A358"/>
<path d="M67.259 31.3426C67.1929 31.5697 67.1267 31.8002 67.0638 32.0272C66.9446 32.4475 67.5867 32.6102 67.7058 32.1933C67.772 31.9662 67.8382 31.7358 67.9011 31.5087C68.0202 31.0885 67.3782 30.9258 67.259 31.3426Z" fill="#46A358"/>
<path d="M66.713 34.6842C66.6435 34.9317 66.5773 35.1757 66.5078 35.4231C66.392 35.8433 67.034 36.0094 67.1498 35.5892C67.2193 35.3417 67.2855 35.0977 67.355 34.8503C67.4709 34.4334 66.8288 34.2674 66.713 34.6842Z" fill="#46A358"/>
<path d="M68.8112 29.8718C68.7947 30.0243 68.7814 30.1734 68.7649 30.3259C68.745 30.5089 68.9403 30.6614 69.1024 30.658C69.301 30.6547 69.4069 30.4954 69.4268 30.3124C69.4433 30.1599 69.4566 30.0107 69.4731 29.8582C69.493 29.6752 69.2977 29.5227 69.1355 29.5261C68.937 29.5329 68.8311 29.6888 68.8112 29.8718Z" fill="#46A358"/>
<path d="M64.6545 36.65C64.6214 36.7652 64.585 36.8771 64.5519 36.9923C64.4261 37.4092 65.0682 37.5753 65.1939 37.1584C65.227 37.0432 65.2634 36.9313 65.2965 36.8161C65.4223 36.3992 64.7802 36.2365 64.6545 36.65Z" fill="#46A358"/>
<path d="M64.1216 40.1103C64.0521 40.3001 63.9793 40.4899 63.9098 40.6797C63.8469 40.8492 63.9893 41.0491 64.1481 41.0932C64.3401 41.144 64.4857 41.0186 64.5519 40.8492C64.6214 40.6594 64.6942 40.4696 64.7637 40.2798C64.8265 40.1103 64.6842 39.9104 64.5254 39.8663C64.3334 39.8155 64.1878 39.9375 64.1216 40.1103Z" fill="#46A358"/>
<path d="M66.7262 38.731C66.7295 38.8428 66.7295 38.9581 66.7328 39.0699C66.7428 39.5071 67.4047 39.4935 67.3947 39.0563C67.3914 38.9445 67.3914 38.8293 67.3881 38.7174C67.3782 38.2802 66.7163 38.2938 66.7262 38.731Z" fill="#46A358"/>
<path d="M65.4918 43.2214C65.4752 43.374 65.462 43.5231 65.4454 43.6756C65.4256 43.8586 65.6208 44.0111 65.783 44.0077C65.9816 44.0043 66.0875 43.8451 66.1073 43.662C66.1239 43.5095 66.1371 43.3604 66.1537 43.2079C66.1735 43.0249 65.9783 42.8724 65.8161 42.8758C65.6208 42.8791 65.5116 43.0384 65.4918 43.2214Z" fill="#46A358"/>
<path d="M35.2593 29.0888C35.3156 29.2752 35.3752 29.465 35.4314 29.6514C35.5572 30.0683 36.1926 29.8751 36.0669 29.4582C36.0106 29.2718 35.951 29.082 35.8948 28.8956C35.7657 28.4788 35.1303 28.672 35.2593 29.0888Z" fill="#46A358"/>
<path d="M35.9411 28.3195C36.1628 28.6008 36.3879 28.8821 36.6096 29.16C36.7222 29.3024 36.9637 29.2719 37.0763 29.1499C37.212 29.0041 37.1789 28.8144 37.0663 28.672C36.8446 28.3907 36.6196 28.1094 36.3978 27.8315C36.2853 27.6892 36.0437 27.7197 35.9312 27.8417C35.7955 27.984 35.8286 28.1772 35.9411 28.3195Z" fill="#46A358"/>
<path d="M37.212 30.7055C37.4039 30.9835 37.5959 31.2614 37.7845 31.5359C38.0294 31.8917 38.5953 31.5393 38.3504 31.1834C38.1585 30.9055 37.9665 30.6276 37.7779 30.3531C37.5297 29.9972 36.9637 30.3463 37.212 30.7055Z" fill="#46A358"/>
<path d="M36.3978 31.5155C36.5501 31.7764 36.7023 32.0374 36.8545 32.2984C37.073 32.6712 37.6389 32.3187 37.4205 31.9459C37.2682 31.6849 37.116 31.424 36.9638 31.163C36.742 30.7868 36.1794 31.1393 36.3978 31.5155Z" fill="#46A358"/>
<path d="M37.8805 34.3115C38.0724 34.664 38.2677 35.0165 38.4596 35.3689C38.6681 35.7485 39.2341 35.3961 39.0256 35.0165C38.8336 34.664 38.6384 34.3115 38.4464 33.9591C38.2346 33.5795 37.672 33.932 37.8805 34.3115Z" fill="#46A358"/>
<path d="M38.4663 33.2846C38.5986 33.4879 38.731 33.6946 38.8634 33.898C39.0984 34.2606 39.6643 33.9082 39.4293 33.5455C39.297 33.3422 39.1646 33.1354 39.0322 32.9321C38.7939 32.5694 38.228 32.9185 38.4663 33.2846Z" fill="#46A358"/>
<path d="M38.7741 31.8612C38.8833 32.1019 39.0686 32.2883 39.2903 32.4238C39.661 32.6441 39.982 32.051 39.6114 31.8307C39.479 31.7528 39.3996 31.6477 39.3367 31.5088C39.2606 31.3427 39.0223 31.3088 38.88 31.3969C38.7178 31.502 38.6979 31.6952 38.7741 31.8612Z" fill="#46A358"/>
<path d="M36.2919 33.6404C36.3349 33.8268 36.3747 34.0132 36.4177 34.203C36.4574 34.3826 36.6659 34.4809 36.8281 34.4301C37.0101 34.3759 37.0895 34.1861 37.0498 34.0098C37.0068 33.8234 36.9671 33.637 36.924 33.4472C36.8843 33.2676 36.6758 33.1693 36.5137 33.2202C36.3316 33.2744 36.2522 33.4642 36.2919 33.6404Z" fill="#46A358"/>
<path d="M38.3802 37.182C38.5325 37.5006 38.6847 37.8192 38.8336 38.1344C38.9131 38.3005 39.148 38.3343 39.2903 38.2462C39.4558 38.1446 39.479 37.9446 39.3996 37.7785C39.2473 37.46 39.0951 37.1414 38.9462 36.8262C38.8667 36.6601 38.6317 36.6262 38.4894 36.7143C38.324 36.8194 38.3008 37.0194 38.3802 37.182Z" fill="#46A358"/>
<path d="M40.8524 36.223C40.9683 36.4467 41.0808 36.6704 41.1966 36.8941C41.3952 37.2804 41.9578 36.9246 41.7625 36.5416C41.6467 36.3179 41.5342 36.0943 41.4184 35.8706C41.2165 35.4842 40.6539 35.8367 40.8524 36.223Z" fill="#46A358"/>
<path d="M41.607 41.0695C41.703 41.2559 41.799 41.4423 41.8982 41.6253C42.1001 42.0117 42.6627 41.6558 42.4642 41.2728C42.3682 41.0864 42.2722 40.9 42.1729 40.717C41.971 40.3307 41.4051 40.6831 41.607 41.0695Z" fill="#46A358"/>
<path d="M42.7819 39.3512C42.8944 39.5376 43.0102 39.724 43.1228 39.9104C43.3478 40.2798 43.9137 39.9273 43.6887 39.5579C43.5762 39.3715 43.4603 39.1851 43.3478 38.9987C43.1194 38.6293 42.5535 38.9818 42.7819 39.3512Z" fill="#46A358"/>
<path d="M44.0991 44.5772C44.1917 44.7466 44.2877 44.9127 44.3804 45.0822C44.5922 45.4617 45.1548 45.1059 44.9463 44.7297C44.8536 44.5602 44.7577 44.3942 44.665 44.2247C44.4532 43.8451 43.8873 44.1976 44.0991 44.5772Z" fill="#46A358"/>
<path d="M33.4259 42.4828C33.6476 42.5912 33.8727 42.6963 34.0944 42.8047C34.4783 42.9911 34.8026 42.398 34.4154 42.2116C34.1937 42.1032 33.9686 41.9981 33.7469 41.8897C33.3663 41.7067 33.042 42.2964 33.4259 42.4828Z" fill="#46A358"/>
<path d="M35.534 43.4688C35.7789 43.6485 36.0238 43.8315 36.2654 44.0111C36.4111 44.1196 36.6361 44.028 36.7155 43.8789C36.8115 43.7027 36.7321 43.5265 36.5865 43.418C36.3416 43.2384 36.0967 43.0554 35.8551 42.8757C35.7094 42.7673 35.4844 42.8588 35.405 43.0079C35.3123 43.1842 35.3917 43.3604 35.534 43.4688Z" fill="#46A358"/>
<path d="M35.2097 42.4319C35.3785 42.4692 35.534 42.5268 35.6863 42.6149C36.0603 42.825 36.3813 42.2319 36.0073 42.0218C35.8087 41.91 35.5936 41.8253 35.3719 41.7744C34.9582 41.6795 34.7927 42.337 35.2097 42.4319Z" fill="#46A358"/>
<path d="M37.1491 43.879C37.298 43.9874 37.4469 44.0993 37.5959 44.2077C37.7415 44.3128 37.9665 44.2247 38.046 44.0755C38.1419 43.8993 38.0625 43.7197 37.9169 43.6146C37.768 43.5062 37.619 43.3943 37.4701 43.2859C37.3245 43.1808 37.0994 43.2689 37.02 43.418C36.9273 43.5943 37.0035 43.7705 37.1491 43.879Z" fill="#46A358"/>
<path d="M37.1027 44.8924C37.1789 45.0042 37.255 45.1161 37.3311 45.2279C37.5727 45.5838 38.1386 45.2347 37.897 44.8754C37.8209 44.7636 37.7448 44.6517 37.6687 44.5399C37.4271 44.1806 36.8578 44.5331 37.1027 44.8924Z" fill="#46A358"/>
<path d="M38.602 45.438C38.7509 45.5668 38.8998 45.6955 39.0521 45.8243C39.1877 45.9429 39.3896 45.9531 39.5187 45.8142C39.6378 45.6888 39.6478 45.4515 39.5088 45.3363C39.3598 45.2075 39.2109 45.0787 39.0587 44.9499C38.923 44.8313 38.7211 44.8211 38.592 44.9601C38.4729 45.0821 38.463 45.3193 38.602 45.438Z" fill="#46A358"/>
<path d="M72.7628 35.4537C72.4087 35.3859 72.0578 35.3927 71.707 35.4842C71.2933 35.5926 71.482 36.2434 71.8957 36.1349C72.1273 36.0739 72.3623 36.0637 72.5973 36.1112C73.0176 36.1925 73.1798 35.535 72.7628 35.4537Z" fill="#46A358"/>
<path d="M70.4792 36.1552C70.3534 36.2535 70.2244 36.3484 70.0986 36.4466C69.9563 36.5551 69.8901 36.7449 69.9894 36.9143C70.0754 37.0601 70.3005 37.138 70.4461 37.0262C70.5719 36.9279 70.7009 36.833 70.8267 36.7347C70.969 36.6263 71.0352 36.4365 70.9359 36.267C70.8499 36.1213 70.6248 36.0467 70.4792 36.1552Z" fill="#46A358"/>
<path d="M70.5851 35.823C71.012 35.8129 70.9988 35.1351 70.5719 35.1452C70.1449 35.1554 70.1582 35.8332 70.5851 35.823Z" fill="#46A358"/>
</g>
<g clip-path="url(#clip1_4_3611)">
<path d="M37.3859 49.3258C35.0446 55.5563 33.3971 62.0673 32.8568 68.7535C32.3966 74.4686 32.5367 80.6324 35.5582 85.6182C35.9051 86.1897 36.7589 85.6427 36.412 85.0677C33.3804 80.0679 33.3871 73.7954 33.914 68.0838C34.501 61.7201 36.1285 55.5177 38.3564 49.5853C38.5898 48.9577 37.6193 48.7053 37.3859 49.3258Z" fill="#727272"/>
<path d="M67.7884 48.3616C73.1145 52.569 73.1212 60.2825 73.6948 66.6147C73.985 69.8088 74.3852 73.0134 74.5253 76.2216C74.6553 79.1527 74.4219 82.2662 72.2141 84.3419C71.7338 84.7941 72.4575 85.5199 72.9344 85.0711C74.8788 83.2444 75.4791 80.6288 75.5458 77.9746C75.6425 74.195 75.0322 70.3522 74.692 66.5971C74.095 59.9985 74.0217 51.9834 68.4788 47.6042C67.9718 47.201 67.2748 47.9548 67.7884 48.3616Z" fill="#727272"/>
<path d="M35.7583 85.8285C38.5832 86.8979 41.4713 87.1643 44.4429 87.4273C47.7313 87.7183 51.0497 88.1566 54.3547 88.0339C57.7098 87.9112 61.0749 87.4098 64.41 87.0311C67.3282 86.698 70.223 86.2773 72.9444 85.0571C73.5281 84.7942 73.2513 83.7809 72.6576 84.0474C69.8361 85.3131 66.8412 85.7058 63.8163 86.0424C60.668 86.393 57.4997 86.8663 54.3347 86.982C51.2331 87.0977 48.1248 86.7015 45.0365 86.4316C41.9583 86.1581 38.9367 85.9197 36.0051 84.8117C35.3982 84.5768 35.158 85.6006 35.7583 85.8285Z" fill="#727272"/>
<path d="M37.626 49.9149C39.9539 50.9141 42.3318 51.7977 44.8431 52.1097C47.4545 52.4323 50.1158 51.9695 52.7439 52.0396C54.2013 52.0782 55.512 52.2851 56.9828 52.0642C58.2501 51.8713 59.5174 51.6049 60.7481 51.2367C63.2994 50.4724 65.7707 49.4065 68.2753 48.4879C68.879 48.267 68.5988 47.2572 67.9885 47.4781C63.0859 49.2768 58.4902 51.377 53.1975 51.0158C50.9963 50.8651 48.8052 51.2052 46.6107 51.1841C43.6558 51.1526 40.8143 50.1568 38.1062 48.9963C37.5226 48.7438 37.029 49.6589 37.626 49.9149Z" fill="#727272"/>
<path d="M7.66368 53.0809C13.2666 54.0065 18.4793 56.7939 22.3847 61.1381C26.1633 65.342 28.2878 70.8817 32.4099 74.7841C32.8868 75.2364 33.5839 74.479 33.1036 74.0268C28.7347 69.8895 26.5502 63.9044 22.348 59.6024C18.4126 55.5738 13.3233 52.9547 7.91047 52.0606C7.27681 51.9554 7.02668 52.9757 7.66368 53.0809Z" fill="#727272"/>
<path d="M8.53747 51.1981C13.6235 49.9779 19.0296 50.7037 23.5987 53.3929C27.2439 55.5387 30.2355 58.9292 34.5877 59.392C35.2281 59.4586 35.2014 58.4068 34.5677 58.3401C29.6852 57.8212 26.1633 53.1966 21.761 51.2963C17.4688 49.445 12.763 49.1084 8.25399 50.1883C7.62366 50.3391 7.91047 51.3488 8.53747 51.1981Z" fill="#727272"/>
<path d="M7.72371 50.4933C7.34018 51.0473 7.09338 51.696 7.00667 52.3726C6.96998 52.6566 7.08671 52.9336 7.37019 53.0108C7.60698 53.0774 7.94049 52.9126 7.97717 52.6286C8.05388 52.0255 8.25732 51.4961 8.5975 51.0017C8.75758 50.7703 8.61751 50.4162 8.40406 50.2865C8.14726 50.1357 7.88046 50.2654 7.72371 50.4933Z" fill="#727272"/>
<path d="M71.8105 51.4539C73.8783 47.2921 80.4483 46.7556 84.1569 48.663C88.1757 50.7316 90.03 55.7419 88.3825 60.1246C86.9484 63.9429 83.2631 65.8116 80.2316 68.0135C78.9542 68.9427 77.5335 69.9875 76.6497 71.3584C75.7259 72.7924 75.8459 74.6156 74.9321 76.0462C74.572 76.6106 75.4491 77.1155 75.8059 76.5581C76.3829 75.657 76.5496 74.6963 76.8064 73.6655C77.17 72.2244 77.897 71.2988 78.9409 70.3556C80.7385 68.7323 82.8463 67.5577 84.7606 66.1027C88.149 63.5256 90.5269 59.8652 89.8966 55.2791C89.3196 51.1033 86.1246 47.6497 82.1792 46.8889C78.2038 46.121 72.9644 46.8608 70.9334 50.9455C70.6366 51.5415 71.5104 52.0534 71.8105 51.4539Z" fill="#727272"/>
<path d="M72.8244 54.1012C74.2084 51.1981 77.3601 50.4478 80.2216 50.6792C82.1292 50.8335 83.3065 51.6223 84.3037 53.3439C85.4076 55.2442 85.3542 56.8535 84.7306 58.8801C83.7501 62.0567 81.9825 63.5293 79.2644 65.0194C77.4835 65.9941 74.7654 67.2704 74.055 69.4267C73.8449 70.0683 74.8154 70.3207 75.0255 69.6861C75.6725 67.7227 78.8475 66.4464 80.4817 65.5383C81.8991 64.7529 83.2265 63.8869 84.1836 62.502C85.6978 60.3141 86.9417 56.7413 85.8445 54.1503C84.5038 50.9807 82.4527 49.5747 79.1777 49.5993C76.2628 49.6203 73.3246 50.7142 71.9539 53.5893C71.6638 54.1924 72.5376 54.7043 72.8244 54.1012Z" fill="#727272"/>
<path d="M54.308 61.7096C51.3665 62.1689 48.8819 64.4689 48.585 67.6841C48.3016 70.7485 50.2693 74.7385 53.611 74.5036C56.6593 74.2897 59.3673 71.1833 59.6475 68.0768C59.9576 64.6583 57.5197 61.678 54.208 61.8288C53.5643 61.8568 53.5843 62.9087 54.228 62.8807C57.1328 62.7474 59.1339 65.5383 58.5903 68.4765C58.15 70.8537 55.9689 73.2519 53.591 73.4553C50.6695 73.7042 49.1787 69.8158 49.6423 67.2914C50.0858 64.8722 52.0569 63.1191 54.328 62.7649C54.955 62.6633 54.945 61.6079 54.308 61.7096Z" fill="#727272"/>
<path d="M54.8817 62.1689C54.7049 59.939 58.0366 56.5485 59.7042 59.1291C60.2211 59.9285 60.7214 61.3485 60.5079 62.3337C60.2778 63.3891 59.294 64.1779 58.5402 64.8266C58.0433 65.2543 58.7704 65.9801 59.2606 65.5559C60.4479 64.5356 61.6685 63.3119 61.5552 61.5623C61.4618 60.1318 60.708 58.2455 59.5208 57.4601C56.9861 55.7807 53.6777 59.6269 53.8811 62.1935C53.9345 62.8631 54.935 62.8456 54.8817 62.1689Z" fill="#727272"/>
<path d="M59.5274 65.7908C60.7814 65.0089 64.0264 65.2158 63.6896 67.4738C63.3694 69.6266 60.718 69.7142 59.1472 69.7353C58.5035 69.7423 58.5236 70.7941 59.1672 70.7871C61.3717 70.7591 65.2271 70.0298 64.6768 66.7515C64.2432 64.178 60.7881 63.7783 59.0038 64.8932C58.4502 65.2403 58.9705 66.1379 59.5274 65.7908Z" fill="#727272"/>
<path d="M58.5202 70.9798C60.2745 71.7933 62.2488 74.209 60.5813 76.1584C58.6303 78.4375 55.8088 76.183 55.0884 73.9846C54.8783 73.3465 53.9178 73.641 54.1279 74.2862C55.0618 77.1261 58.4268 79.5805 61.0215 77.1717C63.5429 74.8331 61.5385 71.2358 59.0072 70.0577C58.4235 69.7877 57.9333 70.7064 58.5202 70.9798Z" fill="#727272"/>
<path d="M53.6477 74.2476C53.7377 76.0147 53.2675 78.6443 51.0063 78.3288C49.9791 78.185 49.1887 77.2138 49.2354 76.1129C49.2754 75.1241 49.9391 73.9706 50.3026 73.066C50.5494 72.4489 49.6789 71.93 49.4288 72.5541C48.8985 73.8795 47.9781 75.4257 48.3182 76.9228C48.595 78.1359 49.5055 79.1001 50.6728 79.3421C53.651 79.9627 54.7749 76.7335 54.6482 74.2231C54.6149 73.5499 53.6143 73.5674 53.6477 74.2476Z" fill="#727272"/>
<path d="M50.1659 71.7583C48.3016 72.5682 45.4234 72.3613 44.773 69.9035C44.4896 68.8236 44.8064 67.5474 45.7702 66.9618C46.7074 66.3938 47.918 66.5446 48.9386 66.6743C49.5689 66.755 49.8223 65.7347 49.1853 65.654C47.7713 65.4752 46.1671 65.3174 44.9498 66.2711C43.9393 67.0635 43.5291 68.4519 43.7225 69.7317C44.2228 73.038 47.9013 73.869 50.4493 72.7645C51.043 72.5121 50.7628 71.4988 50.1659 71.7583Z" fill="#727272"/>
<path d="M49.5455 65.7732C47.8613 64.8265 46.9809 61.3484 48.4583 59.8443C50.3993 57.8703 52.7839 60.6682 53.9578 62.1829C54.3647 62.7053 55.0517 61.9445 54.6515 61.4256C53.1174 59.4481 49.799 56.4223 47.5312 59.2728C45.8636 61.373 46.8608 65.4576 49.0586 66.6953C49.6256 67.0144 50.1158 66.0958 49.5455 65.7732Z" fill="#727272"/>
<path d="M51.153 73.5043C50.3626 74.3037 49.849 76.4671 51.063 77.1227C52.5171 77.9116 53.1608 75.2294 53.3542 74.2617C53.4409 73.8199 52.7939 73.6481 52.7072 74.0899C52.6205 74.5281 52.5104 74.9594 52.357 75.3801C52.2803 75.587 52.1969 75.7939 52.0969 75.9902C51.9435 76.2953 51.8534 76.4916 51.4999 76.4495C50.5461 76.3268 51.1997 74.43 51.6366 73.9917C51.9435 73.6761 51.4632 73.1923 51.153 73.5043Z" fill="#727272"/>
<path d="M55.452 73.5534C55.2819 74.5631 56.3691 75.3555 57.1462 75.7167C57.9333 76.0813 59.0305 76.204 59.7675 75.6325C60.4712 75.0856 60.3612 74.0933 60.0577 73.336C59.6441 72.3052 58.7937 71.6109 57.8099 71.2463C57.403 71.0955 57.2429 71.7792 57.6464 71.9265C58.2401 72.1474 58.7737 72.519 59.1506 73.059C59.2806 73.2483 59.3807 73.4482 59.4641 73.6656C59.6575 74.1775 59.6875 74.4089 59.344 74.8542C59.0505 75.2328 58.8971 75.3205 58.4502 75.324C58.17 75.324 57.8799 75.2644 57.6164 75.1662C57.2129 75.0154 55.9956 74.3493 56.099 73.7322C56.1723 73.2834 55.5287 73.1081 55.452 73.5534Z" fill="#727272"/>
<path d="M59.3207 69.0165C60.1578 69.2374 60.9915 68.8588 61.6952 68.3924C62.2088 68.0523 62.8858 67.4318 62.8258 66.713C62.7758 66.1134 62.2088 65.8294 61.7019 65.7663C60.8281 65.6541 59.971 66.0503 59.2606 66.5482C58.9038 66.7971 59.2506 67.4002 59.6075 67.1478C59.9777 66.8848 60.3712 66.6534 60.8081 66.5377C61.2116 66.429 62.3856 66.2537 62.0287 67.1337C61.7152 67.9156 60.1944 68.5222 59.4841 68.3363C59.0672 68.2277 58.9038 68.9078 59.3207 69.0165Z" fill="#727272"/>
<path d="M56.209 62.4705C56.1557 61.9376 56.2624 61.4081 56.6292 61.0155C56.896 60.7244 57.5431 60.3388 57.9233 60.5632C58.2601 60.763 58.2368 61.6045 58.2368 61.9937C58.2334 62.5512 58.12 63.0806 57.9433 63.603C57.7999 64.0272 58.4469 64.1955 58.5903 63.7748C58.8771 62.9263 58.9771 62.0357 58.8404 61.1417C58.747 60.5281 58.647 59.918 57.99 59.8269C56.5359 59.62 55.4053 61.04 55.5487 62.488C55.5854 62.9298 56.2524 62.9193 56.209 62.4705Z" fill="#727272"/>
<path d="M50.0158 64.816C49.4989 64.1323 49.0553 62.8912 49.2287 62.0111C49.3321 61.4782 49.4522 61.3239 49.9791 61.2678C50.506 61.2117 50.6361 61.3765 51.0163 61.6991C51.4032 62.0251 51.78 62.3617 52.1636 62.6913C52.4937 62.9753 52.9573 62.4739 52.6238 62.1864C51.6833 61.373 50.1725 59.4972 48.9752 60.9242C48.0481 62.0321 48.6718 64.1639 49.4455 65.1842C49.709 65.5313 50.2826 65.1702 50.0158 64.816Z" fill="#727272"/>
<path d="M48.8185 67.5473C47.5178 67.0004 45.8203 68.217 46.0204 69.7527C46.2071 71.2078 48.4383 71.7477 49.4422 70.9273C49.7757 70.6538 49.4322 70.0507 49.0953 70.3277C48.5484 70.7765 47.1876 70.6573 46.7874 69.9876C46.2005 69.0164 47.6312 67.7928 48.4983 68.1609C48.8885 68.3257 49.2154 67.7156 48.8185 67.5473Z" fill="#727272"/>
</g>
<defs>
<clipPath id="clip0_4_3611">
<rect width="44" height="50.759" fill="white" transform="translate(31)"/>
</clipPath>
<clipPath id="clip1_4_3611">
<rect width="83" height="41.4359" fill="white" transform="translate(7 46.6155)"/>
</clipPath>
</defs>
</svg>
