<svg width="80" height="29" viewBox="0 0 80 29" fill="none" xmlns="http://www.w3.org/2000/svg">
<rect width="80" height="29" fill="#46A358"/>
<path d="M13.048 9.44L9.384 10.64L9.8 12.128L11.944 11.44V20H13.64V9.44H13.048ZM23.1384 16.608C23.1384 15.696 22.8664 14.96 22.3224 14.4C21.7784 13.84 21.1224 13.488 20.3384 13.36L22.8984 9.904V9.44H16.3224V10.992H20.2584L17.7944 14.304V14.768H18.9624C20.5144 14.768 21.3944 15.424 21.3944 16.624C21.3944 17.824 20.4984 18.624 19.2344 18.624C18.1464 18.624 17.3944 18.032 16.7544 17.056L15.5704 17.888C16.2744 19.248 17.5704 20.176 19.2824 20.176C21.3624 20.176 23.1384 18.752 23.1384 16.608ZM24.7416 11.856C24.7416 13.328 25.9416 14.464 27.4296 14.464C28.8696 14.464 30.0856 13.328 30.0856 11.856C30.0856 10.416 28.8696 9.264 27.4296 9.264C25.9416 9.264 24.7416 10.416 24.7416 11.856ZM26.8536 20H28.2616L34.3256 9.44H32.9016L26.8536 20ZM28.7576 11.856C28.7576 12.672 28.1816 13.264 27.4296 13.264C26.6456 13.264 26.1016 12.672 26.1016 11.856C26.1016 11.04 26.6616 10.448 27.4296 10.448C28.1816 10.448 28.7576 11.072 28.7576 11.856ZM31.0776 17.568C31.0776 19.008 32.2616 20.16 33.7336 20.16C35.1896 20.16 36.4056 19.008 36.4056 17.568C36.4056 16.096 35.2056 14.96 33.7336 14.96C32.2616 14.96 31.0776 16.096 31.0776 17.568ZM35.0616 17.568C35.0616 18.352 34.5016 18.96 33.7496 18.96C32.9656 18.96 32.4216 18.384 32.4216 17.568C32.4216 16.736 32.9656 16.16 33.7496 16.16C34.5016 16.16 35.0616 16.752 35.0616 17.568ZM42.5474 14.72C42.4834 17.744 45.0594 20.224 48.0834 20.176C51.0754 20.224 53.6994 17.744 53.6354 14.72C53.6994 11.696 51.0754 9.216 48.0834 9.264C45.0754 9.216 42.4994 11.696 42.5474 14.72ZM51.8914 14.704C51.8914 16.96 50.2594 18.624 48.0994 18.624C45.9074 18.624 44.3074 16.96 44.3074 14.704C44.3074 12.48 45.9074 10.816 48.0994 10.816C50.2594 10.816 51.8914 12.496 51.8914 14.704ZM55.6718 20H57.3678V15.648H61.5598V14.112H57.3678V10.96H62.4558V9.44H55.6718V20ZM64.1405 20H65.8365V15.648H70.0285V14.112H65.8365V10.96H70.9245V9.44H64.1405V20Z" fill="white"/>
</svg>
