<svg width="125" height="35" viewBox="0 0 125 35" fill="none" xmlns="http://www.w3.org/2000/svg">
<rect width="35" height="35" rx="4" fill="white"/>
<rect x="45" width="35" height="35" rx="4" fill="white"/>
<rect x="90" width="35" height="35" rx="4" fill="white"/>
<g clip-path="url(#clip0_2_1944)">
<path d="M20.294 24.8745H14.2408C11.6566 24.8745 9.55412 22.7721 9.55412 20.1879V15.3841C9.55412 12.9818 8.35676 10.7581 6.35123 9.4358C5.99106 9.19834 5.89162 8.7139 6.12908 8.35373C6.36654 7.99352 6.85094 7.89404 7.21119 8.13158C8.35606 8.88644 9.28487 9.88204 9.94905 11.0283C10.0926 11.1891 11.2499 12.4158 13.1473 12.4158H22.142C24.596 12.37 26.5168 14.8327 25.8752 17.2014L24.8397 21.3284C24.3159 23.4163 22.4466 24.8745 20.294 24.8745ZM10.9193 13.5368C11.0491 14.1367 11.1163 14.7553 11.1163 15.3841V20.1879C11.1163 21.9107 12.518 23.3123 14.2408 23.3123H20.294C21.7291 23.3123 22.9752 22.3401 23.3245 20.9482L24.3599 16.8212C24.7412 15.4137 23.5997 13.9508 22.142 13.9781H13.1472C12.2891 13.9781 11.5422 13.7931 10.9193 13.5368ZM13.8502 27.0226C13.8502 26.4833 13.4131 26.0462 12.8738 26.0462C11.5783 26.0978 11.5794 27.9479 12.8738 27.999C13.4131 27.999 13.8502 27.5618 13.8502 27.0226ZM21.6222 27.0226C21.6222 26.4833 21.1851 26.0462 20.6459 26.0462C19.3503 26.0978 19.3514 27.9479 20.6459 27.999C21.1851 27.999 21.6222 27.5618 21.6222 27.0226ZM22.9231 16.3214C22.9231 15.89 22.5734 15.5403 22.142 15.5403H13.4597C12.4233 15.5815 12.4241 17.0616 13.4597 17.1025H22.142C22.5734 17.1025 22.9231 16.7528 22.9231 16.3214Z" fill="#46A358"/>
</g>
<path d="M62 26.8873C61.7153 26.8873 61.4408 26.7842 61.2268 26.5968C60.4189 25.8903 59.6399 25.2264 58.9527 24.6408L58.9492 24.6377C56.9342 22.9207 55.1943 21.4378 53.9836 19.9771C52.6303 18.3441 52 16.7958 52 15.1043C52 13.461 52.5635 11.9449 53.5866 10.8351C54.6219 9.71219 56.0425 9.09375 57.5872 9.09375C58.7416 9.09375 59.7989 9.45874 60.7296 10.1785C61.1992 10.5418 61.6249 10.9865 62 11.5051C62.3752 10.9865 62.8008 10.5418 63.2706 10.1785C64.2012 9.45874 65.2585 9.09375 66.413 9.09375C67.9575 9.09375 69.3782 9.71219 70.4135 10.8351C71.4366 11.9449 72 13.461 72 15.1043C72 16.7958 71.3698 18.3441 70.0165 19.9769C68.8059 21.4378 67.0661 22.9205 65.0515 24.6374C64.363 25.224 63.5828 25.8889 62.773 26.5971C62.5592 26.7842 62.2846 26.8873 62 26.8873ZM57.5872 10.2653C56.3736 10.2653 55.2588 10.7496 54.4478 11.6292C53.6248 12.5219 53.1714 13.7561 53.1714 15.1043C53.1714 16.5269 53.7001 17.7992 54.8856 19.2296C56.0314 20.6122 57.7356 22.0645 59.7089 23.7462L59.7126 23.7492C60.4024 24.3371 61.1844 25.0036 61.9983 25.7153C62.8171 25.0023 63.6003 24.3347 64.2916 23.7458C66.2647 22.0642 67.9688 20.6122 69.1146 19.2296C70.2999 17.7992 70.8286 16.5269 70.8286 15.1043C70.8286 13.7561 70.3752 12.5219 69.5522 11.6292C68.7413 10.7496 67.6264 10.2653 66.413 10.2653C65.524 10.2653 64.7078 10.5479 63.9872 11.1052C63.3449 11.602 62.8975 12.23 62.6352 12.6695C62.5003 12.8955 62.2629 13.0304 62 13.0304C61.7371 13.0304 61.4997 12.8955 61.3648 12.6695C61.1026 12.23 60.6552 11.602 60.0128 11.1052C59.2922 10.5479 58.476 10.2653 57.5872 10.2653Z" fill="#3D3D3D"/>
<g clip-path="url(#clip1_2_1944)">
<path d="M113.566 23.0023C109.57 26.1859 103.985 25.3049 101.027 21.6536C98.1721 18.1285 98.3507 13.0431 101.448 9.82458C104.649 6.49926 109.68 6.05534 113.328 8.78316C114.635 9.76027 115.61 11.0034 116.246 12.5081C116.885 14.0215 117.079 15.5961 116.858 17.2201C116.637 18.8365 115.992 20.2769 114.942 21.6212C115.027 21.6767 115.118 21.7167 115.183 21.7816C116.336 22.9305 117.486 24.0836 118.64 25.2325C118.913 25.5047 119.049 25.8218 118.968 26.204C118.807 26.9644 117.902 27.2579 117.321 26.7359C117.049 26.4918 116.799 26.2227 116.54 25.9642C115.592 25.0171 114.645 24.0693 113.697 23.1221C113.658 23.0847 113.617 23.0497 113.566 23.0023ZM114.953 15.9864C114.963 12.1266 111.847 9.00605 107.978 9.00043C104.12 8.99481 101.007 12.0904 100.99 15.9476C100.973 19.8168 104.083 22.9461 107.963 22.9642C111.806 22.9823 114.943 19.8499 114.953 15.9864Z" fill="#3D3D3D"/>
</g>
<defs>
<clipPath id="clip0_2_1944">
<rect width="20" height="20" fill="white" transform="translate(6 8)"/>
</clipPath>
<clipPath id="clip1_2_1944">
<rect width="19.9913" height="20" fill="white" transform="translate(99 7)"/>
</clipPath>
</defs>
</svg>
